<?xml version="1.0" encoding="utf-8" standalone="no"?>
<!DOCTYPE svg PUBLIC "-//W3C//DTD SVG 1.1//EN"
  "http://www.w3.org/Graphics/SVG/1.1/DTD/svg11.dtd">
<svg xmlns:xlink="http://www.w3.org/1999/xlink" width="460.8pt" height="345.6pt" viewBox="0 0 460.8 345.6" xmlns="http://www.w3.org/2000/svg" version="1.1">
 <metadata>
  <rdf:RDF xmlns:dc="http://purl.org/dc/elements/1.1/" xmlns:cc="http://creativecommons.org/ns#" xmlns:rdf="http://www.w3.org/1999/02/22-rdf-syntax-ns#">
   <cc:Work>
    <dc:type rdf:resource="http://purl.org/dc/dcmitype/StillImage"/>
    <dc:date>2026-02-18T13:38:53.299019</dc:date>
    <dc:format>image/svg+xml</dc:format>
    <dc:creator>
     <cc:Agent>
      <dc:title>Matplotlib v3.6.3, https://matplotlib.org/</dc:title>
     </cc:Agent>
    </dc:creator>
   </cc:Work>
  </rdf:RDF>
 </metadata>
 <defs>
  <style type="text/css">*{stroke-linejoin: round; stroke-linecap: butt}</style>
 </defs>
 <g id="figure_1">
  <g id="patch_1">
   <path d="M 0 345.6 
L 460.8 345.6 
L 460.8 0 
L 0 0 
z
" style="fill: #ffffff"/>
  </g>
  <g id="axes_1">
   <g id="patch_2">
    <path d="M 57.6 307.584 
L 414.72 307.584 
L 414.72 41.472 
L 57.6 41.472 
z
" style="fill: #ffffff"/>
   </g>
   <g id="PathCollection_1">
    <defs>
     <path id="m6c9cfe273c" d="M 0 3 
C 0.795609 3 1.55874 2.683901 2.12132 2.12132 
C 2.683901 1.55874 3 0.795609 3 0 
C 3 -0.795609 2.683901 -1.55874 2.12132 -2.12132 
C 1.55874 -2.683901 0.795609 -3 0 -3 
C -0.795609 -3 -1.55874 -2.683901 -2.12132 -2.12132 
C -2.683901 -1.55874 -3 -0.795609 -3 0 
C -3 0.795609 -2.683901 1.55874 -2.12132 2.12132 
C -1.55874 2.683901 -0.795609 3 0 3 
z
" style="stroke: #0000ff"/>
    </defs>
    <g clip-path="url(#pf59e35098d)">
     <use xlink:href="#m6c9cfe273c" x="261.618993" y="178.369904" style="fill: #0000ff; stroke: #0000ff"/>
    </g>
   </g>
   <g id="matplotlib.axis_1">
    <g id="xtick_1">
     <g id="line2d_1">
      <path d="M 96.061418 307.584 
L 96.061418 41.472 
" clip-path="url(#pf59e35098d)" style="fill: none; stroke: #b0b0b0; stroke-opacity: 0.4; stroke-width: 0.8; stroke-linecap: square"/>
     </g>
     <g id="line2d_2">
      <defs>
       <path id="mddd7257622" d="M 0 0 
L 0 3.5 
" style="stroke: #000000; stroke-width: 0.8"/>
      </defs>
      <g>
       <use xlink:href="#mddd7257622" x="96.061418" y="307.584" style="stroke: #000000; stroke-width: 0.8"/>
      </g>
     </g>
     <g id="text_1">
      <!-- −2.0 -->
      <g transform="translate(83.920011 322.182437) scale(0.1 -0.1)">
       <defs>
        <path id="DejaVuSans-2212" d="M 678 2272 
L 4684 2272 
L 4684 1741 
L 678 1741 
L 678 2272 
z
" transform="scale(0.015625)"/>
        <path id="DejaVuSans-32" d="M 1228 531 
L 3431 531 
L 3431 0 
L 469 0 
L 469 531 
Q 828 903 1448 1529 
Q 2069 2156 2228 2338 
Q 2531 2678 2651 2914 
Q 2772 3150 2772 3378 
Q 2772 3750 2511 3984 
Q 2250 4219 1831 4219 
Q 1534 4219 1204 4116 
Q 875 4013 500 3803 
L 500 4441 
Q 881 4594 1212 4672 
Q 1544 4750 1819 4750 
Q 2544 4750 2975 4387 
Q 3406 4025 3406 3419 
Q 3406 3131 3298 2873 
Q 3191 2616 2906 2266 
Q 2828 2175 2409 1742 
Q 1991 1309 1228 531 
z
" transform="scale(0.015625)"/>
        <path id="DejaVuSans-2e" d="M 684 794 
L 1344 794 
L 1344 0 
L 684 0 
L 684 794 
z
" transform="scale(0.015625)"/>
        <path id="DejaVuSans-30" d="M 2034 4250 
Q 1547 4250 1301 3770 
Q 1056 3291 1056 2328 
Q 1056 1369 1301 889 
Q 1547 409 2034 409 
Q 2525 409 2770 889 
Q 3016 1369 3016 2328 
Q 3016 3291 2770 3770 
Q 2525 4250 2034 4250 
z
M 2034 4750 
Q 2819 4750 3233 4129 
Q 3647 3509 3647 2328 
Q 3647 1150 3233 529 
Q 2819 -91 2034 -91 
Q 1250 -91 836 529 
Q 422 1150 422 2328 
Q 422 3509 836 4129 
Q 1250 4750 2034 4750 
z
" transform="scale(0.015625)"/>
       </defs>
       <use xlink:href="#DejaVuSans-2212"/>
       <use xlink:href="#DejaVuSans-32" x="83.789062"/>
       <use xlink:href="#DejaVuSans-2e" x="147.412109"/>
       <use xlink:href="#DejaVuSans-30" x="179.199219"/>
      </g>
     </g>
    </g>
    <g id="xtick_2">
     <g id="line2d_3">
      <path d="M 137.450812 307.584 
L 137.450812 41.472 
" clip-path="url(#pf59e35098d)" style="fill: none; stroke: #b0b0b0; stroke-opacity: 0.4; stroke-width: 0.8; stroke-linecap: square"/>
     </g>
     <g id="line2d_4">
      <g>
       <use xlink:href="#mddd7257622" x="137.450812" y="307.584" style="stroke: #000000; stroke-width: 0.8"/>
      </g>
     </g>
     <g id="text_2">
      <!-- −1.5 -->
      <g transform="translate(125.309405 322.182437) scale(0.1 -0.1)">
       <defs>
        <path id="DejaVuSans-31" d="M 794 531 
L 1825 531 
L 1825 4091 
L 703 3866 
L 703 4441 
L 1819 4666 
L 2450 4666 
L 2450 531 
L 3481 531 
L 3481 0 
L 794 0 
L 794 531 
z
" transform="scale(0.015625)"/>
        <path id="DejaVuSans-35" d="M 691 4666 
L 3169 4666 
L 3169 4134 
L 1269 4134 
L 1269 2991 
Q 1406 3038 1543 3061 
Q 1681 3084 1819 3084 
Q 2600 3084 3056 2656 
Q 3513 2228 3513 1497 
Q 3513 744 3044 326 
Q 2575 -91 1722 -91 
Q 1428 -91 1123 -41 
Q 819 9 494 109 
L 494 744 
Q 775 591 1075 516 
Q 1375 441 1709 441 
Q 2250 441 2565 725 
Q 2881 1009 2881 1497 
Q 2881 1984 2565 2268 
Q 2250 2553 1709 2553 
Q 1456 2553 1204 2497 
Q 953 2441 691 2322 
L 691 4666 
z
" transform="scale(0.015625)"/>
       </defs>
       <use xlink:href="#DejaVuSans-2212"/>
       <use xlink:href="#DejaVuSans-31" x="83.789062"/>
       <use xlink:href="#DejaVuSans-2e" x="147.412109"/>
       <use xlink:href="#DejaVuSans-35" x="179.199219"/>
      </g>
     </g>
    </g>
    <g id="xtick_3">
     <g id="line2d_5">
      <path d="M 178.840206 307.584 
L 178.840206 41.472 
" clip-path="url(#pf59e35098d)" style="fill: none; stroke: #b0b0b0; stroke-opacity: 0.4; stroke-width: 0.8; stroke-linecap: square"/>
     </g>
     <g id="line2d_6">
      <g>
       <use xlink:href="#mddd7257622" x="178.840206" y="307.584" style="stroke: #000000; stroke-width: 0.8"/>
      </g>
     </g>
     <g id="text_3">
      <!-- −1.0 -->
      <g transform="translate(166.698799 322.182437) scale(0.1 -0.1)">
       <use xlink:href="#DejaVuSans-2212"/>
       <use xlink:href="#DejaVuSans-31" x="83.789062"/>
       <use xlink:href="#DejaVuSans-2e" x="147.412109"/>
       <use xlink:href="#DejaVuSans-30" x="179.199219"/>
      </g>
     </g>
    </g>
    <g id="xtick_4">
     <g id="line2d_7">
      <path d="M 220.229599 307.584 
L 220.229599 41.472 
" clip-path="url(#pf59e35098d)" style="fill: none; stroke: #b0b0b0; stroke-opacity: 0.4; stroke-width: 0.8; stroke-linecap: square"/>
     </g>
     <g id="line2d_8">
      <g>
       <use xlink:href="#mddd7257622" x="220.229599" y="307.584" style="stroke: #000000; stroke-width: 0.8"/>
      </g>
     </g>
     <g id="text_4">
      <!-- −0.5 -->
      <g transform="translate(208.088193 322.182437) scale(0.1 -0.1)">
       <use xlink:href="#DejaVuSans-2212"/>
       <use xlink:href="#DejaVuSans-30" x="83.789062"/>
       <use xlink:href="#DejaVuSans-2e" x="147.412109"/>
       <use xlink:href="#DejaVuSans-35" x="179.199219"/>
      </g>
     </g>
    </g>
    <g id="xtick_5">
     <g id="line2d_9">
      <path d="M 261.618993 307.584 
L 261.618993 41.472 
" clip-path="url(#pf59e35098d)" style="fill: none; stroke: #b0b0b0; stroke-opacity: 0.4; stroke-width: 0.8; stroke-linecap: square"/>
     </g>
     <g id="line2d_10">
      <g>
       <use xlink:href="#mddd7257622" x="261.618993" y="307.584" style="stroke: #000000; stroke-width: 0.8"/>
      </g>
     </g>
     <g id="text_5">
      <!-- 0.0 -->
      <g transform="translate(253.667431 322.182437) scale(0.1 -0.1)">
       <use xlink:href="#DejaVuSans-30"/>
       <use xlink:href="#DejaVuSans-2e" x="63.623047"/>
       <use xlink:href="#DejaVuSans-30" x="95.410156"/>
      </g>
     </g>
    </g>
    <g id="xtick_6">
     <g id="line2d_11">
      <path d="M 303.008387 307.584 
L 303.008387 41.472 
" clip-path="url(#pf59e35098d)" style="fill: none; stroke: #b0b0b0; stroke-opacity: 0.4; stroke-width: 0.8; stroke-linecap: square"/>
     </g>
     <g id="line2d_12">
      <g>
       <use xlink:href="#mddd7257622" x="303.008387" y="307.584" style="stroke: #000000; stroke-width: 0.8"/>
      </g>
     </g>
     <g id="text_6">
      <!-- 0.5 -->
      <g transform="translate(295.056825 322.182437) scale(0.1 -0.1)">
       <use xlink:href="#DejaVuSans-30"/>
       <use xlink:href="#DejaVuSans-2e" x="63.623047"/>
       <use xlink:href="#DejaVuSans-35" x="95.410156"/>
      </g>
     </g>
    </g>
    <g id="xtick_7">
     <g id="line2d_13">
      <path d="M 344.397781 307.584 
L 344.397781 41.472 
" clip-path="url(#pf59e35098d)" style="fill: none; stroke: #b0b0b0; stroke-opacity: 0.4; stroke-width: 0.8; stroke-linecap: square"/>
     </g>
     <g id="line2d_14">
      <g>
       <use xlink:href="#mddd7257622" x="344.397781" y="307.584" style="stroke: #000000; stroke-width: 0.8"/>
      </g>
     </g>
     <g id="text_7">
      <!-- 1.0 -->
      <g transform="translate(336.446219 322.182437) scale(0.1 -0.1)">
       <use xlink:href="#DejaVuSans-31"/>
       <use xlink:href="#DejaVuSans-2e" x="63.623047"/>
       <use xlink:href="#DejaVuSans-30" x="95.410156"/>
      </g>
     </g>
    </g>
    <g id="xtick_8">
     <g id="line2d_15">
      <path d="M 385.787175 307.584 
L 385.787175 41.472 
" clip-path="url(#pf59e35098d)" style="fill: none; stroke: #b0b0b0; stroke-opacity: 0.4; stroke-width: 0.8; stroke-linecap: square"/>
     </g>
     <g id="line2d_16">
      <g>
       <use xlink:href="#mddd7257622" x="385.787175" y="307.584" style="stroke: #000000; stroke-width: 0.8"/>
      </g>
     </g>
     <g id="text_8">
      <!-- 1.5 -->
      <g transform="translate(377.835613 322.182437) scale(0.1 -0.1)">
       <use xlink:href="#DejaVuSans-31"/>
       <use xlink:href="#DejaVuSans-2e" x="63.623047"/>
       <use xlink:href="#DejaVuSans-35" x="95.410156"/>
      </g>
     </g>
    </g>
    <g id="text_9">
     <!-- x -->
     <g transform="translate(233.200625 335.860562) scale(0.1 -0.1)">
      <defs>
       <path id="DejaVuSans-78" d="M 3513 3500 
L 2247 1797 
L 3578 0 
L 2900 0 
L 1881 1375 
L 863 0 
L 184 0 
L 1544 1831 
L 300 3500 
L 978 3500 
L 1906 2253 
L 2834 3500 
L 3513 3500 
z
" transform="scale(0.015625)"/>
      </defs>
      <use xlink:href="#DejaVuSans-78"/>
     </g>
    </g>
   </g>
   <g id="matplotlib.axis_2">
    <g id="ytick_1">
     <g id="line2d_17">
      <path d="M 57.6 294.056485 
L 414.72 294.056485 
" clip-path="url(#pf59e35098d)" style="fill: none; stroke: #b0b0b0; stroke-opacity: 0.4; stroke-width: 0.8; stroke-linecap: square"/>
     </g>
     <g id="line2d_18">
      <defs>
       <path id="m157284c18e" d="M 0 0 
L -3.5 0 
" style="stroke: #000000; stroke-width: 0.8"/>
      </defs>
      <g>
       <use xlink:href="#m157284c18e" x="57.6" y="294.056485" style="stroke: #000000; stroke-width: 0.8"/>
      </g>
     </g>
     <g id="text_10">
      <!-- −2 -->
      <g transform="translate(35.857813 297.855704) scale(0.1 -0.1)">
       <use xlink:href="#DejaVuSans-2212"/>
       <use xlink:href="#DejaVuSans-32" x="83.789062"/>
      </g>
     </g>
    </g>
    <g id="ytick_2">
     <g id="line2d_19">
      <path d="M 57.6 236.213195 
L 414.72 236.213195 
" clip-path="url(#pf59e35098d)" style="fill: none; stroke: #b0b0b0; stroke-opacity: 0.4; stroke-width: 0.8; stroke-linecap: square"/>
     </g>
     <g id="line2d_20">
      <g>
       <use xlink:href="#m157284c18e" x="57.6" y="236.213195" style="stroke: #000000; stroke-width: 0.8"/>
      </g>
     </g>
     <g id="text_11">
      <!-- −1 -->
      <g transform="translate(35.857813 240.012413) scale(0.1 -0.1)">
       <use xlink:href="#DejaVuSans-2212"/>
       <use xlink:href="#DejaVuSans-31" x="83.789062"/>
      </g>
     </g>
    </g>
    <g id="ytick_3">
     <g id="line2d_21">
      <path d="M 57.6 178.369904 
L 414.72 178.369904 
" clip-path="url(#pf59e35098d)" style="fill: none; stroke: #b0b0b0; stroke-opacity: 0.4; stroke-width: 0.8; stroke-linecap: square"/>
     </g>
     <g id="line2d_22">
      <g>
       <use xlink:href="#m157284c18e" x="57.6" y="178.369904" style="stroke: #000000; stroke-width: 0.8"/>
      </g>
     </g>
     <g id="text_12">
      <!-- 0 -->
      <g transform="translate(44.2375 182.169123) scale(0.1 -0.1)">
       <use xlink:href="#DejaVuSans-30"/>
      </g>
     </g>
    </g>
    <g id="ytick_4">
     <g id="line2d_23">
      <path d="M 57.6 120.526614 
L 414.72 120.526614 
" clip-path="url(#pf59e35098d)" style="fill: none; stroke: #b0b0b0; stroke-opacity: 0.4; stroke-width: 0.8; stroke-linecap: square"/>
     </g>
     <g id="line2d_24">
      <g>
       <use xlink:href="#m157284c18e" x="57.6" y="120.526614" style="stroke: #000000; stroke-width: 0.8"/>
      </g>
     </g>
     <g id="text_13">
      <!-- 1 -->
      <g transform="translate(44.2375 124.325832) scale(0.1 -0.1)">
       <use xlink:href="#DejaVuSans-31"/>
      </g>
     </g>
    </g>
    <g id="ytick_5">
     <g id="line2d_25">
      <path d="M 57.6 62.683323 
L 414.72 62.683323 
" clip-path="url(#pf59e35098d)" style="fill: none; stroke: #b0b0b0; stroke-opacity: 0.4; stroke-width: 0.8; stroke-linecap: square"/>
     </g>
     <g id="line2d_26">
      <g>
       <use xlink:href="#m157284c18e" x="57.6" y="62.683323" style="stroke: #000000; stroke-width: 0.8"/>
      </g>
     </g>
     <g id="text_14">
      <!-- 2 -->
      <g transform="translate(44.2375 66.482542) scale(0.1 -0.1)">
       <use xlink:href="#DejaVuSans-32"/>
      </g>
     </g>
    </g>
    <g id="text_15">
     <!-- y -->
     <g transform="translate(29.778125 177.487375) rotate(-90) scale(0.1 -0.1)">
      <defs>
       <path id="DejaVuSans-79" d="M 2059 -325 
Q 1816 -950 1584 -1140 
Q 1353 -1331 966 -1331 
L 506 -1331 
L 506 -850 
L 844 -850 
Q 1081 -850 1212 -737 
Q 1344 -625 1503 -206 
L 1606 56 
L 191 3500 
L 800 3500 
L 1894 763 
L 2988 3500 
L 3597 3500 
L 2059 -325 
z
" transform="scale(0.015625)"/>
      </defs>
      <use xlink:href="#DejaVuSans-79"/>
     </g>
    </g>
   </g>
   <g id="line2d_27">
    <path d="M 343.901109 178.369904 
L 343.779528 178.723509 
L 343.414712 179.078758 
L 342.632113 179.516233 
L 341.273151 180.004765 
L 339.597228 180.40153 
L 337.459516 180.695536 
L 334.977435 180.793308 
L 332.43036 180.646681 
L 330.255452 180.333907 
L 327.557386 179.71675 
L 324.129624 178.589373 
L 322.024008 177.722554 
L 319.518682 176.538848 
L 316.287633 174.80782 
L 310.392206 171.256351 
L 301.511084 165.693215 
L 295.426341 162.173243 
L 292.016987 160.37776 
L 287.977474 158.432913 
L 284.343387 156.854845 
L 280.546218 155.375989 
L 277.000245 154.145351 
L 273.568564 153.085097 
L 270.133127 152.144304 
L 266.583934 151.289892 
L 262.788114 150.497009 
L 258.562722 149.745899 
L 249.51725 148.515907 
L 239.366554 147.520128 
L 230.265281 146.64595 
L 223.812395 145.781132 
L 220.368715 145.133516 
L 216.754248 144.222242 
L 213.102918 142.925039 
L 209.984167 141.307944 
L 207.562846 139.428398 
L 205.802516 137.243697 
L 204.761075 134.718797 
L 204.568143 131.832688 
L 205.409754 128.6114 
L 207.420799 125.233798 
L 210.574117 121.945914 
L 214.842463 118.884597 
L 220.262012 116.168255 
L 226.839194 113.987221 
L 234.396334 112.619574 
L 242.106622 112.345176 
L 248.790718 113.089064 
L 254.221058 114.561976 
L 258.427638 116.546278 
L 261.447142 118.879907 
L 263.327717 121.437781 
L 264.133725 124.138954 
L 263.922683 126.934771 
L 262.745557 129.796602 
L 260.941268 132.376955 
L 258.792811 134.695269 
L 256.470941 136.805371 
L 254.052313 138.775526 
L 248.547958 142.864064 
L 240.251183 148.871066 
L 234.347913 153.508776 
L 230.903415 156.502897 
L 228.411668 158.855879 
L 226.017886 161.302601 
L 223.906353 163.644532 
L 221.984106 165.955174 
L 220.177301 168.308883 
L 218.423805 170.787009 
L 216.655987 173.502503 
L 213.128698 179.613217 
L 206.804679 191.429546 
L 205.519172 193.490623 
L 204.079479 195.545112 
L 202.404311 197.597133 
L 200.383481 199.627803 
L 197.877907 201.569954 
L 194.845619 203.232404 
L 191.465729 204.383055 
L 187.794193 204.956709 
L 183.814535 204.904196 
L 179.557869 204.14044 
L 175.173221 202.58801 
L 170.909828 200.239221 
L 166.981822 197.123485 
L 163.564684 193.258882 
L 160.85454 188.659953 
L 159.095408 183.35745 
L 158.594423 177.382149 
L 159.82673 170.681858 
L 162.729339 164.688961 
L 166.538997 160.043019 
L 171.288782 156.253366 
L 176.268856 153.687725 
L 181.218078 152.216133 
L 185.980513 151.725097 
L 190.41903 152.127077 
L 194.436384 153.33195 
L 197.997718 155.249962 
L 200.728287 157.426783 
L 202.905856 159.72006 
L 204.685636 162.026377 
L 206.200376 164.315688 
L 209.057403 169.353011 
L 214.600356 179.785494 
L 216.406578 182.835547 
L 218.589299 186.195512 
L 220.590637 188.986315 
L 222.517341 191.444361 
L 224.585989 193.869909 
L 226.655481 196.108905 
L 231.07522 200.392827 
L 233.572329 202.579373 
L 236.451097 204.942448 
L 242.579709 209.586011 
L 252.643733 216.881419 
L 257.066069 220.449506 
L 259.119753 222.368082 
L 261.009282 224.445721 
L 262.629849 226.743329 
L 263.771194 229.263849 
L 264.174948 231.817244 
L 263.764314 234.26865 
L 262.522806 236.607045 
L 260.422799 238.790708 
L 257.46808 240.739089 
L 253.660397 242.376435 
L 249.056084 243.599359 
L 243.748843 244.302982 
L 237.864586 244.383562 
L 231.557556 243.736512 
L 224.931429 242.224197 
L 218.264751 239.685676 
L 212.330993 236.187661 
L 208.047105 232.276586 
L 205.538632 228.422037 
L 204.557657 224.788643 
L 204.919757 221.445127 
L 206.494526 218.493727 
L 209.089405 216.03739 
L 212.514086 214.074896 
L 216.667414 212.543301 
L 220.774183 211.520573 
L 224.679264 210.820463 
L 231.875454 209.921959 
L 253.155173 207.7825 
L 257.312893 207.192152 
L 262.007321 206.391529 
L 267.1222 205.327635 
L 271.024299 204.362575 
L 274.901046 203.257787 
L 278.339919 202.146099 
L 284.696319 199.738771 
L 287.864191 198.358536 
L 291.179683 196.781654 
L 294.935967 194.833224 
L 301.342432 191.148817 
L 317.197878 181.424128 
L 320.343462 179.79434 
L 322.893819 178.644119 
L 327.017831 177.175779 
L 330.098273 176.435 
L 332.511521 176.084748 
L 335.259732 175.945335 
L 337.848899 176.082509 
L 340.004814 176.419459 
L 341.905694 176.936913 
L 343.123412 177.47267 
L 343.749089 177.974414 
L 343.900747 178.350647 
L 343.788362 178.710397 
L 343.435713 179.063217 
L 342.671046 179.498572 
L 341.340465 179.984925 
L 339.349439 180.446649 
L 337.087969 180.726042 
L 334.451931 180.782997 
L 331.726704 180.564015 
L 329.387523 180.162504 
L 326.466355 179.398155 
L 322.705057 178.016473 
L 320.341306 176.944426 
L 317.400299 175.426619 
L 311.28063 171.811771 
L 299.373303 164.415262 
L 293.00346 160.883049 
L 289.192058 158.996539 
L 285.423998 157.307228 
L 281.95385 155.904346 
L 278.359729 154.600489 
L 274.902149 153.482358 
L 271.480169 152.499351 
L 267.990188 151.614758 
L 264.307341 150.800131 
L 260.281075 150.035749 
L 251.492414 148.747796 
L 244.079349 147.953117 
L 228.637988 146.458217 
L 225.412349 146.029836 
L 222.045791 145.470589 
L 218.5132 144.701807 
L 214.835472 143.60043 
L 211.391689 142.11651 
L 208.645251 140.367924 
L 206.564706 138.334843 
L 205.165608 135.977407 
L 204.544178 133.265932 
L 204.863334 130.196847 
L 206.306846 126.859938 
L 208.918916 123.505026 
L 212.648889 120.322213 
L 217.509723 117.421497 
L 223.535532 114.953738 
L 230.668398 113.155058 
L 238.47064 112.33345 
L 245.737041 112.624203 
L 251.766446 113.778638 
L 256.556676 115.540085 
L 260.141583 117.723554 
L 262.562443 120.187148 
L 263.875642 122.823313 
L 264.147923 125.580133 
L 263.430647 128.409114 
L 261.770926 131.304897 
L 259.742226 133.730927 
L 257.481384 135.921563 
L 255.098296 137.944109 
L 249.583132 142.117214 
L 238.475689 150.215549 
L 235.520696 152.545014 
L 232.259295 155.292307 
L 229.578502 157.731771 
L 226.990115 160.284412 
L 224.763466 162.670985 
L 222.772394 164.985138 
L 220.924865 167.311947 
L 219.156633 169.726523 
L 217.404299 172.325109 
L 215.583558 175.263505 
L 212.270341 181.22404 
L 207.349059 190.497159 
L 206.110611 192.568035 
L 204.749025 194.623659 
L 203.191018 196.677589 
L 201.341257 198.722146 
L 199.070008 200.718015 
L 196.261003 202.539719 
L 193.016861 203.936677 
L 189.478918 204.772894 
L 185.637537 205.010028 
L 181.496398 204.577236 
L 177.139459 203.383832 
L 172.791543 201.389162 
L 168.690472 198.614015 
L 165.022365 195.08388 
L 161.96803 190.811595 
L 159.748911 185.819797 
L 158.639692 180.144806 
L 159.013837 173.786334 
L 161.553925 166.672816 
L 165.088856 161.579734 
L 169.720997 157.331651 
L 174.6733 154.381327 
L 179.651961 152.574718 
L 184.489292 151.780711 
L 189.045349 151.907196 
L 193.199694 152.864551 
L 196.908909 154.564542 
L 200.15125 156.906906 
L 202.439713 159.182425 
L 204.29911 161.490453 
L 205.865798 163.784448 
L 208.627678 168.548792 
L 214.073963 178.8512 
L 215.784994 181.813739 
L 217.832602 185.06998 
L 219.902715 188.056115 
L 221.841776 190.605968 
L 223.93601 193.129516 
L 226.000338 195.418502 
L 230.339473 199.7197 
L 232.756393 201.88045 
L 235.486246 204.166834 
L 241.80371 209.018533 
L 254.311817 218.168093 
L 256.503353 219.962118 
L 258.590405 221.848202 
L 260.530595 223.877909 
L 262.23725 226.112214 
L 263.532856 228.583993 
L 264.147215 231.15119 
L 263.952274 233.631913 
L 262.933739 236.001094 
L 261.061982 238.232681 
L 258.331597 240.251281 
L 254.745285 241.980427 
L 250.343483 243.322885 
L 245.210679 244.173635 
L 239.464795 244.428617 
L 233.252739 243.983968 
L 226.697916 242.716146 
L 219.991841 240.458599 
L 213.759573 237.175943 
L 208.995367 233.313585 
L 206.040685 229.41882 
L 204.680203 225.720435 
L 204.701065 222.292312 
L 205.972164 219.225019 
L 208.319411 216.634356 
L 211.539647 214.546647 
L 215.505918 212.908767 
L 219.623853 211.771465 
L 223.593709 210.99493 
L 230.896864 210.02497 
L 252.181102 207.906912 
L 256.234306 207.355161 
L 260.779212 206.616126 
L 265.857833 205.610886 
L 269.938707 204.645314 
L 273.528177 203.666455 
L 277.073288 202.57052 
L 283.504494 200.226425 
L 286.651572 198.901404 
L 289.891163 197.41059 
L 293.419327 195.640234 
L 300.375183 191.730586 
L 308.433121 186.719407 
L 313.560349 183.529073 
L 316.267551 181.943352 
L 319.247869 180.337866 
L 322.236027 178.924409 
L 324.562864 177.987896 
L 328.230914 176.845904 
L 331.041044 176.273474 
L 333.261314 176.018747 
L 335.806267 175.951875 
L 338.224547 176.125622 
L 340.558716 176.544685 
L 342.392082 177.120591 
L 343.394018 177.64606 
L 343.826827 178.093614 
L 343.89178 178.467762 
L 343.70108 178.823722 
L 343.223073 179.207452 
L 342.289458 179.660502 
L 340.674757 180.166545 
L 338.651375 180.557564 
L 336.648817 180.754725 
L 334.629895 180.787668 
L 331.965633 180.594091 
L 329.682728 180.223732 
L 326.838506 179.511167 
L 323.194263 178.219722 
L 320.924084 177.221992 
L 318.152048 175.831811 
L 311.756865 172.107519 
L 300.16722 164.885182 
L 293.920083 161.363031 
L 290.284896 159.519232 
L 286.334631 157.699493 
L 282.816766 156.23974 
L 279.16239 154.87887 
L 275.679867 153.722621 
L 272.2587 152.712613 
L 268.794157 151.808454 
L 265.166966 150.979937 
L 261.235475 150.205809 
L 256.743871 149.460747 
L 248.383582 148.390266 
L 235.426344 147.163288 
L 229.316564 146.538426 
L 222.783877 145.605383 
L 219.288674 144.89056 
L 215.630885 143.872347 
L 212.076666 142.459913 
L 209.178222 140.766366 
L 206.956618 138.798274 
L 205.405259 136.513502 
L 204.604934 133.87986 
L 204.705343 130.885193 
L 205.897034 127.586799 
L 208.262827 124.215053 
L 211.754432 120.985383 
L 216.368719 118.014025 
L 222.144184 115.436484 
L 229.055102 113.469753 
L 236.792571 112.413541 
L 244.277109 112.478253 
L 250.573253 113.471185 
L 255.627541 115.119276 
L 259.469105 117.225033 
L 262.136594 119.638501 
L 263.682968 122.24487 
L 264.17482 124.980634 
L 263.665379 127.796658 
L 262.202566 130.680409 
L 260.256408 133.172533 
L 258.037799 135.413826 
L 255.678122 137.470573 
L 250.495138 141.45376 
L 239.420443 149.495757 
L 236.519537 151.742915 
L 233.39111 154.314449 
L 230.505452 156.867004 
L 228.058661 159.20431 
L 225.711805 161.630602 
L 223.632163 163.963018 
L 221.729668 166.275339 
L 219.933895 168.640882 
L 218.182761 171.143939 
L 216.406231 173.904805 
L 212.896564 180.045051 
L 206.631429 191.719133 
L 205.328615 193.778183 
L 203.861348 195.832554 
L 202.145276 197.88337 
L 200.065172 199.907495 
L 197.482663 201.825831 
L 194.389939 203.427061 
L 190.970078 204.498696 
L 187.255839 204.988648 
L 183.233895 204.842306 
L 178.945779 203.971393 
L 174.563095 202.306322 
L 170.335219 199.848309 
L 166.468314 196.626954 
L 163.137405 192.658352 
L 160.544611 187.958608 
L 158.94129 182.560641 
L 158.647646 176.490417 
L 160.18418 169.677818 
L 163.254327 163.913638 
L 167.164617 159.445338 
L 171.955726 155.837764 
L 176.941563 153.42852 
L 181.873843 152.094781 
L 186.600427 151.729074 
L 190.985253 152.244379 
L 194.942919 153.550649 
L 198.441799 155.557378 
L 201.082372 157.763064 
L 203.191007 160.062142 
L 204.924154 162.366869 
L 206.408542 164.653226 
L 209.22634 169.672154 
L 214.816618 180.163546 
L 216.66429 183.250592 
L 218.902062 186.649045 
L 220.881836 189.371393 
L 222.806679 191.796138 
L 224.868539 194.185958 
L 226.943315 196.407197 
L 231.402476 200.687764 
L 233.938907 202.88889 
L 236.89558 205.294791 
L 243.153084 210.00281 
L 253.111697 217.237248 
L 257.49626 220.83169 
L 259.521771 222.778005 
L 261.367346 224.895815 
L 262.911427 227.243634 
L 263.919167 229.791364 
L 264.157233 232.327618 
L 263.579169 234.756018 
L 262.163809 237.0682 
L 259.887521 239.210866 
L 256.755496 241.103467 
L 252.778608 242.664381 
L 248.021392 243.789352 
L 242.584617 244.373646 
L 236.600201 244.313683 
L 230.222856 243.502949 
L 223.55358 241.79204 
L 216.954054 239.035614 
L 211.303406 235.399883 
L 207.396194 231.474149 
L 205.221147 227.657951 
L 204.526478 224.07781 
L 205.148165 220.805106 
L 206.949155 217.94967 
L 209.726904 215.597444 
L 213.305582 213.729028 
L 217.602258 212.276737 
L 221.673561 211.340115 
L 225.528518 210.692905 
L 232.643752 209.843822 
L 250.092546 208.158115 
L 258.200378 207.052431 
L 263.01578 206.198533 
L 267.533303 205.232518 
L 271.386629 204.26568 
L 275.211451 203.162666 
L 278.621043 202.049491 
L 284.965454 199.62629 
L 288.140203 198.232458 
L 291.477405 196.63346 
L 295.301919 194.634518 
L 301.610405 190.986336 
L 317.469439 181.275564 
L 320.676256 179.634936 
L 323.183208 178.524709 
L 327.224384 177.1163 
L 330.257984 176.405553 
L 332.638198 176.072264 
L 335.351586 175.945734 
L 337.911881 176.089417 
L 340.04542 176.428143 
L 341.928055 176.944839 
L 343.134964 177.479469 
L 343.752717 177.979282 
L 343.90084 178.35558 
L 343.785495 178.714576 
L 343.429071 179.068063 
L 342.658809 179.504033 
L 341.319454 179.991002 
L 339.313967 180.452659 
L 337.034757 180.729703 
L 334.37658 180.78038 
L 331.625476 180.550337 
L 329.262343 180.135286 
L 326.308255 179.348411 
L 322.496154 177.927218 
L 320.090557 176.822002 
L 317.068667 175.243963 
L 311.03937 171.6608 
L 299.149146 164.282978 
L 292.740213 160.746355 
L 288.871644 158.845356 
L 285.14485 157.188259 
L 281.687611 155.801863 
L 278.110027 154.514554 
L 274.658785 153.407646 
L 271.235496 152.432682 
L 267.736145 151.55385 
L 264.034254 150.743306 
L 259.975281 149.981613 
L 251.157137 148.70596 
L 240.612096 147.630636 
L 228.390492 146.426108 
L 225.154743 145.989335 
L 221.776051 145.416802 
L 218.229866 144.626675 
L 214.548696 143.493522 
L 211.152675 141.985481 
L 208.460908 140.216106 
L 206.432404 138.158656 
L 205.090377 135.774147 
L 204.536616 133.033986 
L 204.938563 129.938371 
L 206.475241 126.5905 
L 209.177078 123.244103 
L 212.994909 120.079704 
L 217.946914 117.206691 
L 224.064381 114.782007 
L 231.275027 113.048793 
L 239.08604 112.315678 
L 246.264389 112.686051 
L 252.195872 113.89676 
L 256.889965 115.697686 
L 260.381489 117.908019 
L 262.712801 120.388712 
L 263.941528 123.034877 
L 264.134192 125.798777 
L 263.341589 128.632245 
L 261.611327 131.531216 
L 259.555439 133.932942 
L 257.280284 136.105735 
L 254.888994 138.116353 
L 249.375528 142.269773 
L 238.25729 150.384151 
L 235.28672 152.735578 
L 231.988467 155.53035 
L 229.34906 157.948932 
L 226.803131 160.476381 
L 224.600275 162.852186 
L 222.622864 165.164443 
L 220.783401 167.495161 
L 219.018312 169.920255 
L 217.263689 172.538564 
L 215.431027 175.515189 
L 212.179625 181.387483 
L 207.270916 190.620108 
L 206.026171 192.689206 
L 204.654157 194.744427 
L 203.080628 196.798032 
L 201.208359 198.840941 
L 198.905702 200.830745 
L 196.063235 202.633533 
L 192.798708 203.996998 
L 189.242396 204.796889 
L 185.38169 204.994426 
L 181.223622 204.516525 
L 176.860162 203.27331 
L 172.521642 201.228851 
L 168.443044 198.405945 
L 164.808194 194.829107 
L 161.799551 190.511111 
L 159.641574 185.475766 
L 158.612771 179.75937 
L 159.097216 173.355858 
L 161.794831 166.220191 
L 165.394667 161.224375 
L 170.055843 157.076891 
L 175.017073 154.210022 
L 179.99172 152.475766 
L 184.814951 151.747086 
L 189.347446 151.933178 
L 193.473406 152.944323 
L 197.150954 154.69191 
L 200.04723 156.799084 
L 202.361375 159.076543 
L 204.234149 161.3843 
L 205.809676 163.679355 
L 208.580476 168.446693 
L 214.01344 178.737054 
L 215.71326 181.690708 
L 217.744947 184.935852 
L 219.822318 187.946015 
L 221.762244 190.507403 
L 223.85891 193.04324 
L 225.922242 195.338822 
L 230.251659 199.643719 
L 232.659856 201.802957 
L 235.374957 204.083462 
L 241.667516 208.928002 
L 254.200724 218.098838 
L 256.394766 219.890843 
L 258.485314 221.773066 
L 260.431149 223.796646 
L 262.147924 226.022329 
L 263.462796 228.48622 
L 264.105913 231.054594 
L 263.940992 233.539672 
L 262.953388 235.912962 
L 261.11357 238.150644 
L 258.414682 240.178401 
L 254.859251 241.919669 
L 250.485858 243.277915 
L 245.377768 244.148133 
L 239.651885 244.426258 
L 233.454178 244.008575 
L 226.910629 242.773295 
L 220.20268 240.554093 
L 213.933948 237.303494 
L 209.101916 233.449107 
L 206.082073 229.547844 
L 204.666782 225.839234 
L 204.638937 222.398774 
L 205.866307 219.315312 
L 208.177795 216.70544 
L 211.368907 214.599895 
L 215.308849 212.947304 
L 219.425374 211.794582 
L 223.405387 211.00747 
L 230.725207 210.029135 
L 256.051568 207.377645 
L 260.575758 206.649144 
L 265.645195 205.65547 
L 269.755478 204.691377 
L 273.361075 203.715358 
L 276.923397 202.621146 
L 283.366518 200.285543 
L 286.5136 198.967033 
L 289.748575 197.485371 
L 293.260812 195.73122 
L 296.903123 193.757453 
L 303.153873 190.054615 
L 316.19941 182.0075 
L 319.172638 180.403903 
L 322.189833 178.974117 
L 324.519131 178.034797 
L 328.192847 176.88758 
L 331.006142 176.311514 
L 333.228463 176.053937 
L 335.775028 175.983568 
L 338.193334 176.153117 
L 340.525822 176.5658 
L 342.355653 177.131598 
L 343.356147 177.643941 
L 343.802268 178.087934 
L 343.875052 178.449723 
L 343.704788 178.78674 
L 343.268868 179.148002 
L 342.403191 179.578206 
L 340.913299 180.058347 
L 339.059967 180.437939 
L 336.679117 180.683619 
L 334.686074 180.710682 
L 332.058434 180.516168 
L 329.810682 180.151349 
L 327.015905 179.454473 
L 323.447657 178.199258 
L 321.236247 177.235398 
L 318.559344 175.904491 
L 314.862182 173.830065 
L 308.846106 170.107545 
L 300.01291 164.60026 
L 293.67784 161.031756 
L 289.917913 159.132464 
L 286.111827 157.386143 
L 282.633543 155.944237 
L 279.027296 154.599445 
L 275.566591 153.445699 
L 272.147526 152.42949 
L 268.666151 151.512317 
L 264.998883 150.664152 
L 260.995413 149.863053 
L 252.199791 148.482659 
L 244.694163 147.599517 
L 229.198061 145.919849 
L 225.984516 145.448815 
L 222.6398 144.842694 
L 219.143806 144.022309 
L 215.526556 142.866267 
L 212.157935 141.328157 
L 209.485512 139.526613 
L 207.490167 137.444535 
L 206.192613 135.042836 
L 205.693377 132.294036 
L 206.157947 129.200549 
L 207.75928 125.869127 
L 210.523489 122.547153 
L 214.402658 119.410958 
L 219.414263 116.570656 
L 225.590626 114.181719 
L 232.875472 112.482376 
L 240.828249 111.7819 
L 248.175295 112.201022 
L 254.213768 113.464813 
L 258.966113 115.306124 
L 262.493661 117.539389 
L 264.853647 120.02577 
L 266.117648 122.689321 
L 266.325579 125.457197 
L 265.530159 128.274725 
L 263.783474 131.133809 
L 261.685651 133.504961 
L 259.355123 135.640672 
L 256.901034 137.607424 
L 251.224597 141.649333 
L 239.678531 149.524407 
L 236.575502 151.804948 
L 233.139296 154.49994 
L 230.347196 156.860178 
L 227.639209 159.33242 
L 225.291322 161.652428 
L 223.175344 163.909535 
L 221.195833 166.186156 
L 219.285132 168.555261 
L 217.373533 171.112232 
L 215.359992 174.020495 
L 211.688906 179.850616 
L 206.092699 188.996681 
L 204.681882 191.034277 
L 203.139765 193.0458 
L 201.38864 195.040291 
L 199.328793 197.003235 
L 196.831097 198.881542 
L 193.810984 200.526322 
L 190.41498 201.698486 
L 186.763615 202.293345 
L 182.851034 202.26823 
L 178.701019 201.549639 
L 174.431718 200.060813 
L 170.271764 197.785164 
L 166.435226 194.751071 
L 163.098342 190.985554 
L 160.444227 186.511173 
L 158.691931 181.364604 
L 158.106528 175.590316 
L 159.063023 169.171389 
L 162.402774 161.846893 
L 166.543418 156.775539 
L 171.728481 152.636531 
L 177.082223 149.866286 
L 182.319278 148.274194 
L 187.296926 147.706026 
L 191.889773 148.060925 
L 195.989266 149.248414 
L 199.537069 151.172407 
L 202.200585 153.396243 
L 204.249632 155.753717 
L 205.852024 158.122338 
L 207.155516 160.465926 
L 208.264361 162.781413 
L 210.339869 167.807931 
L 213.447665 175.748467 
L 214.768398 178.819288 
L 216.40104 182.2573 
L 218.070014 185.395467 
L 219.664992 188.094284 
L 221.414804 190.778979 
L 223.153505 193.214017 
L 226.860387 197.820045 
L 228.951198 200.154015 
L 231.326988 202.637075 
L 236.829048 207.925098 
L 245.639662 216.015853 
L 249.420853 219.905524 
L 251.127851 221.962473 
L 252.641988 224.150106 
L 253.857495 226.514124 
L 254.590383 229.066354 
L 254.606743 231.674723 
L 253.793606 234.157343 
L 252.115157 236.466704 
L 249.539129 238.547866 
L 246.057106 240.316662 
L 241.716113 241.666614 
L 236.625517 242.489703 
L 230.937625 242.691311 
L 224.824238 242.191192 
L 218.393969 240.895599 
L 211.746947 238.650689 
L 205.222921 235.29972 
L 199.638816 230.974734 
L 196.223917 226.884814 
L 194.21651 222.628042 
L 193.734194 218.733985 
L 194.577398 215.261504 
L 196.603576 212.308809 
L 199.595345 209.987384 
L 203.345394 208.288962 
L 207.747815 207.14208 
L 212.097134 206.532443 
L 216.15218 206.261879 
L 223.487007 206.206035 
L 248.530888 206.733473 
L 253.162116 206.595708 
L 258.029801 206.302572 
L 262.422856 205.891681 
L 266.342472 205.397969 
L 270.251753 204.779218 
L 277.287352 203.332659 
L 284.370543 201.434187 
L 288.321906 200.186817 
L 295.81663 197.490913 
L 304.959581 193.804431 
L 313.739761 190.293414 
L 316.855023 189.179941 
L 320.123145 188.146152 
L 323.465412 187.271483 
L 328.177454 186.421517 
L 331.668037 186.115791 
L 334.796053 186.077919 
L 337.878087 186.236751 
L 341.822543 186.673243 
L 345.529186 187.306889 
L 348.278543 187.955239 
L 351.105862 188.839529 
L 354.023852 190.05237 
L 355.675603 190.904285 
L 357.507406 192.01527 
L 359.533937 193.484147 
L 361.750069 195.445964 
L 364.114523 198.084683 
L 366.503231 201.619569 
L 368.681584 206.30775 
L 370.259636 212.460165 
L 370.623077 219.977069 
L 369.333566 228.201396 
L 366.178304 236.918685 
L 360.83526 246.123693 
L 352.925734 255.65635 
L 342.154811 265.167507 
L 328.502204 274.127003 
L 312.251114 281.982522 
L 293.819338 288.307258 
L 273.643786 292.802099 
L 252.165641 295.249834 
L 229.839028 295.488 
L 206.658466 293.328575 
L 183.128453 288.533589 
L 160.304034 281.075011 
L 139.104055 271.125867 
L 120.18438 258.943658 
L 104.03057 244.817501 
L 91.032052 229.061381 
L 81.507333 212.01332 
L 75.709955 194.030675 
L 73.832727 175.48147 
L 76.019032 156.733531 
L 82.387505 138.144434 
L 92.764011 120.488072 
L 106.749095 104.318622 
L 123.895991 89.988004 
L 143.733189 77.764333 
L 165.76211 67.864125 
L 189.461476 60.456707 
L 214.29852 55.664679 
L 239.739921 53.568 
L 265.202763 54.207427 
L 289.776437 57.509999 
L 312.511562 63.182173 
L 333.056448 70.911314 
L 351.132533 80.386962 
L 366.50183 91.288681 
L 378.976254 103.283206 
L 388.42025 116.017214 
L 394.747989 129.071443 
L 397.966076 141.796431 
L 398.487273 151.949768 
L 397.228389 161.537267 
L 394.602329 169.855958 
L 390.867736 177.22735 
L 386.657577 183.164165 
L 382.296967 187.887035 
L 377.525059 191.963092 
L 372.406616 195.393591 
L 367.243351 198.052091 
L 362.063425 200.004352 
L 356.9211 201.262823 
L 351.966738 201.804206 
L 347.338865 201.621281 
L 343.711803 200.882872 
L 340.887308 199.801314 
L 338.485703 198.351467 
L 336.56241 196.594172 
L 335.132725 194.596139 
L 334.313327 192.793178 
L 333.86979 191.156816 
L 333.681473 189.693292 
L 333.66685 188.386045 
L 333.969751 186.144844 
L 334.532885 184.326722 
L 335.22507 182.854154 
L 336.349332 181.152949 
L 337.5107 179.868132 
L 338.975702 178.674873 
L 340.361116 177.883081 
L 341.701185 177.404234 
L 342.840246 177.236327 
L 343.921363 177.316164 
L 344.901769 177.634322 
L 345.772664 178.162958 
L 346.627406 178.983979 
L 347.323438 179.994096 
L 347.906008 181.327728 
L 348.209158 182.590312 
L 348.312509 184.154148 
L 348.197759 185.405313 
L 347.84757 186.863595 
L 347.140325 188.548806 
L 346.599297 189.476849 
L 345.895617 190.456599 
L 344.994205 191.478035 
L 343.854362 192.523264 
L 342.430922 193.56275 
L 340.678405 194.550276 
L 338.562458 195.417235 
L 336.089017 196.070296 
L 333.112527 196.4212 
L 329.095087 196.221117 
L 325.690079 195.471702 
L 322.222034 194.157852 
L 318.928706 192.383987 
L 315.730341 190.171667 
L 312.967003 187.898782 
L 308.264569 183.44668 
L 299.889797 175.108164 
L 295.482514 171.18588 
L 293.134651 169.301251 
L 290.630173 167.451661 
L 287.873162 165.601418 
L 284.636639 163.663054 
L 281.652461 162.082154 
L 278.498645 160.607617 
L 275.526423 159.386256 
L 272.613553 158.33375 
L 269.658073 157.399468 
L 266.572681 156.555302 
L 263.255509 155.783694 
L 259.571613 155.075604 
L 255.169002 154.411036 
L 248.431911 153.714863 
L 242.571322 153.354617 
L 234.334645 153.088115 
L 224.967489 152.843851 
L 221.291211 152.670329 
L 217.130327 152.350596 
L 212.790311 151.797288 
L 209.107239 151.058835 
L 205.896897 150.110372 
L 203.075997 148.916939 
L 200.649956 147.448387 
L 198.664205 145.676222 
L 198.113874 145.014812 
L 198.113874 145.014812 
" clip-path="url(#pf59e35098d)" style="fill: none; stroke: #000000; stroke-width: 1.5; stroke-linecap: square"/>
   </g>
   <g id="patch_3">
    <path d="M 57.6 307.584 
L 57.6 41.472 
" style="fill: none; stroke: #000000; stroke-width: 0.8; stroke-linejoin: miter; stroke-linecap: square"/>
   </g>
   <g id="patch_4">
    <path d="M 414.72 307.584 
L 414.72 41.472 
" style="fill: none; stroke: #000000; stroke-width: 0.8; stroke-linejoin: miter; stroke-linecap: square"/>
   </g>
   <g id="patch_5">
    <path d="M 57.6 307.584 
L 414.72 307.584 
" style="fill: none; stroke: #000000; stroke-width: 0.8; stroke-linejoin: miter; stroke-linecap: square"/>
   </g>
   <g id="patch_6">
    <path d="M 57.6 41.472 
L 414.72 41.472 
" style="fill: none; stroke: #000000; stroke-width: 0.8; stroke-linejoin: miter; stroke-linecap: square"/>
   </g>
   <g id="legend_1">
    <g id="patch_7">
     <path d="M 326.349688 78.82825 
L 407.72 78.82825 
Q 409.72 78.82825 409.72 76.82825 
L 409.72 48.472 
Q 409.72 46.472 407.72 46.472 
L 326.349688 46.472 
Q 324.349688 46.472 324.349688 48.472 
L 324.349688 76.82825 
Q 324.349688 78.82825 326.349688 78.82825 
z
" style="fill: #ffffff; opacity: 0.8; stroke: #cccccc; stroke-linejoin: miter"/>
    </g>
    <g id="PathCollection_2">
     <g>
      <use xlink:href="#m6c9cfe273c" x="338.349688" y="55.445437" style="fill: #0000ff; stroke: #0000ff"/>
     </g>
    </g>
    <g id="text_16">
     <!-- Earth -->
     <g transform="translate(356.349688 58.070437) scale(0.1 -0.1)">
      <defs>
       <path id="DejaVuSans-45" d="M 628 4666 
L 3578 4666 
L 3578 4134 
L 1259 4134 
L 1259 2753 
L 3481 2753 
L 3481 2222 
L 1259 2222 
L 1259 531 
L 3634 531 
L 3634 0 
L 628 0 
L 628 4666 
z
" transform="scale(0.015625)"/>
       <path id="DejaVuSans-61" d="M 2194 1759 
Q 1497 1759 1228 1600 
Q 959 1441 959 1056 
Q 959 750 1161 570 
Q 1363 391 1709 391 
Q 2188 391 2477 730 
Q 2766 1069 2766 1631 
L 2766 1759 
L 2194 1759 
z
M 3341 1997 
L 3341 0 
L 2766 0 
L 2766 531 
Q 2569 213 2275 61 
Q 1981 -91 1556 -91 
Q 1019 -91 701 211 
Q 384 513 384 1019 
Q 384 1609 779 1909 
Q 1175 2209 1959 2209 
L 2766 2209 
L 2766 2266 
Q 2766 2663 2505 2880 
Q 2244 3097 1772 3097 
Q 1472 3097 1187 3025 
Q 903 2953 641 2809 
L 641 3341 
Q 956 3463 1253 3523 
Q 1550 3584 1831 3584 
Q 2591 3584 2966 3190 
Q 3341 2797 3341 1997 
z
" transform="scale(0.015625)"/>
       <path id="DejaVuSans-72" d="M 2631 2963 
Q 2534 3019 2420 3045 
Q 2306 3072 2169 3072 
Q 1681 3072 1420 2755 
Q 1159 2438 1159 1844 
L 1159 0 
L 581 0 
L 581 3500 
L 1159 3500 
L 1159 2956 
Q 1341 3275 1631 3429 
Q 1922 3584 2338 3584 
Q 2397 3584 2469 3576 
Q 2541 3569 2628 3553 
L 2631 2963 
z
" transform="scale(0.015625)"/>
       <path id="DejaVuSans-74" d="M 1172 4494 
L 1172 3500 
L 2356 3500 
L 2356 3053 
L 1172 3053 
L 1172 1153 
Q 1172 725 1289 603 
Q 1406 481 1766 481 
L 2356 481 
L 2356 0 
L 1766 0 
Q 1100 0 847 248 
Q 594 497 594 1153 
L 594 3053 
L 172 3053 
L 172 3500 
L 594 3500 
L 594 4494 
L 1172 4494 
z
" transform="scale(0.015625)"/>
       <path id="DejaVuSans-68" d="M 3513 2113 
L 3513 0 
L 2938 0 
L 2938 2094 
Q 2938 2591 2744 2837 
Q 2550 3084 2163 3084 
Q 1697 3084 1428 2787 
Q 1159 2491 1159 1978 
L 1159 0 
L 581 0 
L 581 4863 
L 1159 4863 
L 1159 2956 
Q 1366 3272 1645 3428 
Q 1925 3584 2291 3584 
Q 2894 3584 3203 3211 
Q 3513 2838 3513 2113 
z
" transform="scale(0.015625)"/>
      </defs>
      <use xlink:href="#DejaVuSans-45"/>
      <use xlink:href="#DejaVuSans-61" x="63.183594"/>
      <use xlink:href="#DejaVuSans-72" x="124.462891"/>
      <use xlink:href="#DejaVuSans-74" x="165.576172"/>
      <use xlink:href="#DejaVuSans-68" x="204.785156"/>
     </g>
    </g>
    <g id="line2d_28">
     <path d="M 328.349688 69.248562 
L 338.349688 69.248562 
L 348.349688 69.248562 
" style="fill: none; stroke: #000000; stroke-width: 1.5; stroke-linecap: square"/>
    </g>
    <g id="text_17">
     <!-- Trajectory -->
     <g transform="translate(356.349688 72.748562) scale(0.1 -0.1)">
      <defs>
       <path id="DejaVuSans-54" d="M -19 4666 
L 3928 4666 
L 3928 4134 
L 2272 4134 
L 2272 0 
L 1638 0 
L 1638 4134 
L -19 4134 
L -19 4666 
z
" transform="scale(0.015625)"/>
       <path id="DejaVuSans-6a" d="M 603 3500 
L 1178 3500 
L 1178 -63 
Q 1178 -731 923 -1031 
Q 669 -1331 103 -1331 
L -116 -1331 
L -116 -844 
L 38 -844 
Q 366 -844 484 -692 
Q 603 -541 603 -63 
L 603 3500 
z
M 603 4863 
L 1178 4863 
L 1178 4134 
L 603 4134 
L 603 4863 
z
" transform="scale(0.015625)"/>
       <path id="DejaVuSans-65" d="M 3597 1894 
L 3597 1613 
L 953 1613 
Q 991 1019 1311 708 
Q 1631 397 2203 397 
Q 2534 397 2845 478 
Q 3156 559 3463 722 
L 3463 178 
Q 3153 47 2828 -22 
Q 2503 -91 2169 -91 
Q 1331 -91 842 396 
Q 353 884 353 1716 
Q 353 2575 817 3079 
Q 1281 3584 2069 3584 
Q 2775 3584 3186 3129 
Q 3597 2675 3597 1894 
z
M 3022 2063 
Q 3016 2534 2758 2815 
Q 2500 3097 2075 3097 
Q 1594 3097 1305 2825 
Q 1016 2553 972 2059 
L 3022 2063 
z
" transform="scale(0.015625)"/>
       <path id="DejaVuSans-63" d="M 3122 3366 
L 3122 2828 
Q 2878 2963 2633 3030 
Q 2388 3097 2138 3097 
Q 1578 3097 1268 2742 
Q 959 2388 959 1747 
Q 959 1106 1268 751 
Q 1578 397 2138 397 
Q 2388 397 2633 464 
Q 2878 531 3122 666 
L 3122 134 
Q 2881 22 2623 -34 
Q 2366 -91 2075 -91 
Q 1284 -91 818 406 
Q 353 903 353 1747 
Q 353 2603 823 3093 
Q 1294 3584 2113 3584 
Q 2378 3584 2631 3529 
Q 2884 3475 3122 3366 
z
" transform="scale(0.015625)"/>
       <path id="DejaVuSans-6f" d="M 1959 3097 
Q 1497 3097 1228 2736 
Q 959 2375 959 1747 
Q 959 1119 1226 758 
Q 1494 397 1959 397 
Q 2419 397 2687 759 
Q 2956 1122 2956 1747 
Q 2956 2369 2687 2733 
Q 2419 3097 1959 3097 
z
M 1959 3584 
Q 2709 3584 3137 3096 
Q 3566 2609 3566 1747 
Q 3566 888 3137 398 
Q 2709 -91 1959 -91 
Q 1206 -91 779 398 
Q 353 888 353 1747 
Q 353 2609 779 3096 
Q 1206 3584 1959 3584 
z
" transform="scale(0.015625)"/>
      </defs>
      <use xlink:href="#DejaVuSans-54"/>
      <use xlink:href="#DejaVuSans-72" x="46.333984"/>
      <use xlink:href="#DejaVuSans-61" x="87.447266"/>
      <use xlink:href="#DejaVuSans-6a" x="148.726562"/>
      <use xlink:href="#DejaVuSans-65" x="176.509766"/>
      <use xlink:href="#DejaVuSans-63" x="238.033203"/>
      <use xlink:href="#DejaVuSans-74" x="293.013672"/>
      <use xlink:href="#DejaVuSans-6f" x="332.222656"/>
      <use xlink:href="#DejaVuSans-72" x="393.404297"/>
      <use xlink:href="#DejaVuSans-79" x="434.517578"/>
     </g>
    </g>
   </g>
  </g>
 </g>
 <defs>
  <clipPath id="pf59e35098d">
   <rect x="57.6" y="41.472" width="357.12" height="266.112"/>
  </clipPath>
 </defs>
</svg>
