<?xml version="1.0" encoding="utf-8" standalone="no"?>
<!DOCTYPE svg PUBLIC "-//W3C//DTD SVG 1.1//EN"
  "http://www.w3.org/Graphics/SVG/1.1/DTD/svg11.dtd">
<svg xmlns:xlink="http://www.w3.org/1999/xlink" width="460.8pt" height="345.6pt" viewBox="0 0 460.8 345.6" xmlns="http://www.w3.org/2000/svg" version="1.1">
 <metadata>
  <rdf:RDF xmlns:dc="http://purl.org/dc/elements/1.1/" xmlns:cc="http://creativecommons.org/ns#" xmlns:rdf="http://www.w3.org/1999/02/22-rdf-syntax-ns#">
   <cc:Work>
    <dc:type rdf:resource="http://purl.org/dc/dcmitype/StillImage"/>
    <dc:date>2026-02-18T13:40:10.356410</dc:date>
    <dc:format>image/svg+xml</dc:format>
    <dc:creator>
     <cc:Agent>
      <dc:title>Matplotlib v3.6.3, https://matplotlib.org/</dc:title>
     </cc:Agent>
    </dc:creator>
   </cc:Work>
  </rdf:RDF>
 </metadata>
 <defs>
  <style type="text/css">*{stroke-linejoin: round; stroke-linecap: butt}</style>
 </defs>
 <g id="figure_1">
  <g id="patch_1">
   <path d="M 0 345.6 
L 460.8 345.6 
L 460.8 0 
L 0 0 
z
" style="fill: #ffffff"/>
  </g>
  <g id="axes_1">
   <g id="patch_2">
    <path d="M 57.6 307.584 
L 414.72 307.584 
L 414.72 41.472 
L 57.6 41.472 
z
" style="fill: #ffffff"/>
   </g>
   <g id="PathCollection_1">
    <defs>
     <path id="m3f092f92e2" d="M 0 3 
C 0.795609 3 1.55874 2.683901 2.12132 2.12132 
C 2.683901 1.55874 3 0.795609 3 0 
C 3 -0.795609 2.683901 -1.55874 2.12132 -2.12132 
C 1.55874 -2.683901 0.795609 -3 0 -3 
C -0.795609 -3 -1.55874 -2.683901 -2.12132 -2.12132 
C -2.683901 -1.55874 -3 -0.795609 -3 0 
C -3 0.795609 -2.683901 1.55874 -2.12132 2.12132 
C -1.55874 2.683901 -0.795609 3 0 3 
z
" style="stroke: #0000ff"/>
    </defs>
    <g clip-path="url(#p725e0c36d6)">
     <use xlink:href="#m3f092f92e2" x="241.408813" y="176.795771" style="fill: #0000ff; stroke: #0000ff"/>
    </g>
   </g>
   <g id="matplotlib.axis_1">
    <g id="xtick_1">
     <g id="line2d_1">
      <path d="M 106.863496 307.584 
L 106.863496 41.472 
" clip-path="url(#p725e0c36d6)" style="fill: none; stroke: #b0b0b0; stroke-opacity: 0.4; stroke-width: 0.8; stroke-linecap: square"/>
     </g>
     <g id="line2d_2">
      <defs>
       <path id="m5ac2b4661f" d="M 0 0 
L 0 3.5 
" style="stroke: #000000; stroke-width: 0.8"/>
      </defs>
      <g>
       <use xlink:href="#m5ac2b4661f" x="106.863496" y="307.584" style="stroke: #000000; stroke-width: 0.8"/>
      </g>
     </g>
     <g id="text_1">
      <!-- −1.0 -->
      <g transform="translate(94.72209 322.182437) scale(0.1 -0.1)">
       <defs>
        <path id="DejaVuSans-2212" d="M 678 2272 
L 4684 2272 
L 4684 1741 
L 678 1741 
L 678 2272 
z
" transform="scale(0.015625)"/>
        <path id="DejaVuSans-31" d="M 794 531 
L 1825 531 
L 1825 4091 
L 703 3866 
L 703 4441 
L 1819 4666 
L 2450 4666 
L 2450 531 
L 3481 531 
L 3481 0 
L 794 0 
L 794 531 
z
" transform="scale(0.015625)"/>
        <path id="DejaVuSans-2e" d="M 684 794 
L 1344 794 
L 1344 0 
L 684 0 
L 684 794 
z
" transform="scale(0.015625)"/>
        <path id="DejaVuSans-30" d="M 2034 4250 
Q 1547 4250 1301 3770 
Q 1056 3291 1056 2328 
Q 1056 1369 1301 889 
Q 1547 409 2034 409 
Q 2525 409 2770 889 
Q 3016 1369 3016 2328 
Q 3016 3291 2770 3770 
Q 2525 4250 2034 4250 
z
M 2034 4750 
Q 2819 4750 3233 4129 
Q 3647 3509 3647 2328 
Q 3647 1150 3233 529 
Q 2819 -91 2034 -91 
Q 1250 -91 836 529 
Q 422 1150 422 2328 
Q 422 3509 836 4129 
Q 1250 4750 2034 4750 
z
" transform="scale(0.015625)"/>
       </defs>
       <use xlink:href="#DejaVuSans-2212"/>
       <use xlink:href="#DejaVuSans-31" x="83.789062"/>
       <use xlink:href="#DejaVuSans-2e" x="147.412109"/>
       <use xlink:href="#DejaVuSans-30" x="179.199219"/>
      </g>
     </g>
    </g>
    <g id="xtick_2">
     <g id="line2d_3">
      <path d="M 174.136155 307.584 
L 174.136155 41.472 
" clip-path="url(#p725e0c36d6)" style="fill: none; stroke: #b0b0b0; stroke-opacity: 0.4; stroke-width: 0.8; stroke-linecap: square"/>
     </g>
     <g id="line2d_4">
      <g>
       <use xlink:href="#m5ac2b4661f" x="174.136155" y="307.584" style="stroke: #000000; stroke-width: 0.8"/>
      </g>
     </g>
     <g id="text_2">
      <!-- −0.5 -->
      <g transform="translate(161.994748 322.182437) scale(0.1 -0.1)">
       <defs>
        <path id="DejaVuSans-35" d="M 691 4666 
L 3169 4666 
L 3169 4134 
L 1269 4134 
L 1269 2991 
Q 1406 3038 1543 3061 
Q 1681 3084 1819 3084 
Q 2600 3084 3056 2656 
Q 3513 2228 3513 1497 
Q 3513 744 3044 326 
Q 2575 -91 1722 -91 
Q 1428 -91 1123 -41 
Q 819 9 494 109 
L 494 744 
Q 775 591 1075 516 
Q 1375 441 1709 441 
Q 2250 441 2565 725 
Q 2881 1009 2881 1497 
Q 2881 1984 2565 2268 
Q 2250 2553 1709 2553 
Q 1456 2553 1204 2497 
Q 953 2441 691 2322 
L 691 4666 
z
" transform="scale(0.015625)"/>
       </defs>
       <use xlink:href="#DejaVuSans-2212"/>
       <use xlink:href="#DejaVuSans-30" x="83.789062"/>
       <use xlink:href="#DejaVuSans-2e" x="147.412109"/>
       <use xlink:href="#DejaVuSans-35" x="179.199219"/>
      </g>
     </g>
    </g>
    <g id="xtick_3">
     <g id="line2d_5">
      <path d="M 241.408813 307.584 
L 241.408813 41.472 
" clip-path="url(#p725e0c36d6)" style="fill: none; stroke: #b0b0b0; stroke-opacity: 0.4; stroke-width: 0.8; stroke-linecap: square"/>
     </g>
     <g id="line2d_6">
      <g>
       <use xlink:href="#m5ac2b4661f" x="241.408813" y="307.584" style="stroke: #000000; stroke-width: 0.8"/>
      </g>
     </g>
     <g id="text_3">
      <!-- 0.0 -->
      <g transform="translate(233.45725 322.182437) scale(0.1 -0.1)">
       <use xlink:href="#DejaVuSans-30"/>
       <use xlink:href="#DejaVuSans-2e" x="63.623047"/>
       <use xlink:href="#DejaVuSans-30" x="95.410156"/>
      </g>
     </g>
    </g>
    <g id="xtick_4">
     <g id="line2d_7">
      <path d="M 308.681471 307.584 
L 308.681471 41.472 
" clip-path="url(#p725e0c36d6)" style="fill: none; stroke: #b0b0b0; stroke-opacity: 0.4; stroke-width: 0.8; stroke-linecap: square"/>
     </g>
     <g id="line2d_8">
      <g>
       <use xlink:href="#m5ac2b4661f" x="308.681471" y="307.584" style="stroke: #000000; stroke-width: 0.8"/>
      </g>
     </g>
     <g id="text_4">
      <!-- 0.5 -->
      <g transform="translate(300.729909 322.182437) scale(0.1 -0.1)">
       <use xlink:href="#DejaVuSans-30"/>
       <use xlink:href="#DejaVuSans-2e" x="63.623047"/>
       <use xlink:href="#DejaVuSans-35" x="95.410156"/>
      </g>
     </g>
    </g>
    <g id="xtick_5">
     <g id="line2d_9">
      <path d="M 375.954129 307.584 
L 375.954129 41.472 
" clip-path="url(#p725e0c36d6)" style="fill: none; stroke: #b0b0b0; stroke-opacity: 0.4; stroke-width: 0.8; stroke-linecap: square"/>
     </g>
     <g id="line2d_10">
      <g>
       <use xlink:href="#m5ac2b4661f" x="375.954129" y="307.584" style="stroke: #000000; stroke-width: 0.8"/>
      </g>
     </g>
     <g id="text_5">
      <!-- 1.0 -->
      <g transform="translate(368.002567 322.182437) scale(0.1 -0.1)">
       <use xlink:href="#DejaVuSans-31"/>
       <use xlink:href="#DejaVuSans-2e" x="63.623047"/>
       <use xlink:href="#DejaVuSans-30" x="95.410156"/>
      </g>
     </g>
    </g>
    <g id="text_6">
     <!-- x -->
     <g transform="translate(233.200625 335.860562) scale(0.1 -0.1)">
      <defs>
       <path id="DejaVuSans-78" d="M 3513 3500 
L 2247 1797 
L 3578 0 
L 2900 0 
L 1881 1375 
L 863 0 
L 184 0 
L 1544 1831 
L 300 3500 
L 978 3500 
L 1906 2253 
L 2834 3500 
L 3513 3500 
z
" transform="scale(0.015625)"/>
      </defs>
      <use xlink:href="#DejaVuSans-78"/>
     </g>
    </g>
   </g>
   <g id="matplotlib.axis_2">
    <g id="ytick_1">
     <g id="line2d_11">
      <path d="M 57.6 280.720028 
L 414.72 280.720028 
" clip-path="url(#p725e0c36d6)" style="fill: none; stroke: #b0b0b0; stroke-opacity: 0.4; stroke-width: 0.8; stroke-linecap: square"/>
     </g>
     <g id="line2d_12">
      <defs>
       <path id="m6ee12c0806" d="M 0 0 
L -3.5 0 
" style="stroke: #000000; stroke-width: 0.8"/>
      </defs>
      <g>
       <use xlink:href="#m6ee12c0806" x="57.6" y="280.720028" style="stroke: #000000; stroke-width: 0.8"/>
      </g>
     </g>
     <g id="text_7">
      <!-- −1.0 -->
      <g transform="translate(26.317187 284.519247) scale(0.1 -0.1)">
       <use xlink:href="#DejaVuSans-2212"/>
       <use xlink:href="#DejaVuSans-31" x="83.789062"/>
       <use xlink:href="#DejaVuSans-2e" x="147.412109"/>
       <use xlink:href="#DejaVuSans-30" x="179.199219"/>
      </g>
     </g>
    </g>
    <g id="ytick_2">
     <g id="line2d_13">
      <path d="M 57.6 228.757899 
L 414.72 228.757899 
" clip-path="url(#p725e0c36d6)" style="fill: none; stroke: #b0b0b0; stroke-opacity: 0.4; stroke-width: 0.8; stroke-linecap: square"/>
     </g>
     <g id="line2d_14">
      <g>
       <use xlink:href="#m6ee12c0806" x="57.6" y="228.757899" style="stroke: #000000; stroke-width: 0.8"/>
      </g>
     </g>
     <g id="text_8">
      <!-- −0.5 -->
      <g transform="translate(26.317187 232.557118) scale(0.1 -0.1)">
       <use xlink:href="#DejaVuSans-2212"/>
       <use xlink:href="#DejaVuSans-30" x="83.789062"/>
       <use xlink:href="#DejaVuSans-2e" x="147.412109"/>
       <use xlink:href="#DejaVuSans-35" x="179.199219"/>
      </g>
     </g>
    </g>
    <g id="ytick_3">
     <g id="line2d_15">
      <path d="M 57.6 176.795771 
L 414.72 176.795771 
" clip-path="url(#p725e0c36d6)" style="fill: none; stroke: #b0b0b0; stroke-opacity: 0.4; stroke-width: 0.8; stroke-linecap: square"/>
     </g>
     <g id="line2d_16">
      <g>
       <use xlink:href="#m6ee12c0806" x="57.6" y="176.795771" style="stroke: #000000; stroke-width: 0.8"/>
      </g>
     </g>
     <g id="text_9">
      <!-- 0.0 -->
      <g transform="translate(34.696875 180.59499) scale(0.1 -0.1)">
       <use xlink:href="#DejaVuSans-30"/>
       <use xlink:href="#DejaVuSans-2e" x="63.623047"/>
       <use xlink:href="#DejaVuSans-30" x="95.410156"/>
      </g>
     </g>
    </g>
    <g id="ytick_4">
     <g id="line2d_17">
      <path d="M 57.6 124.833642 
L 414.72 124.833642 
" clip-path="url(#p725e0c36d6)" style="fill: none; stroke: #b0b0b0; stroke-opacity: 0.4; stroke-width: 0.8; stroke-linecap: square"/>
     </g>
     <g id="line2d_18">
      <g>
       <use xlink:href="#m6ee12c0806" x="57.6" y="124.833642" style="stroke: #000000; stroke-width: 0.8"/>
      </g>
     </g>
     <g id="text_10">
      <!-- 0.5 -->
      <g transform="translate(34.696875 128.632861) scale(0.1 -0.1)">
       <use xlink:href="#DejaVuSans-30"/>
       <use xlink:href="#DejaVuSans-2e" x="63.623047"/>
       <use xlink:href="#DejaVuSans-35" x="95.410156"/>
      </g>
     </g>
    </g>
    <g id="ytick_5">
     <g id="line2d_19">
      <path d="M 57.6 72.871514 
L 414.72 72.871514 
" clip-path="url(#p725e0c36d6)" style="fill: none; stroke: #b0b0b0; stroke-opacity: 0.4; stroke-width: 0.8; stroke-linecap: square"/>
     </g>
     <g id="line2d_20">
      <g>
       <use xlink:href="#m6ee12c0806" x="57.6" y="72.871514" style="stroke: #000000; stroke-width: 0.8"/>
      </g>
     </g>
     <g id="text_11">
      <!-- 1.0 -->
      <g transform="translate(34.696875 76.670733) scale(0.1 -0.1)">
       <use xlink:href="#DejaVuSans-31"/>
       <use xlink:href="#DejaVuSans-2e" x="63.623047"/>
       <use xlink:href="#DejaVuSans-30" x="95.410156"/>
      </g>
     </g>
    </g>
    <g id="text_12">
     <!-- y -->
     <g transform="translate(20.2375 177.487375) rotate(-90) scale(0.1 -0.1)">
      <defs>
       <path id="DejaVuSans-79" d="M 2059 -325 
Q 1816 -950 1584 -1140 
Q 1353 -1331 966 -1331 
L 506 -1331 
L 506 -850 
L 844 -850 
Q 1081 -850 1212 -737 
Q 1344 -625 1503 -206 
L 1606 56 
L 191 3500 
L 800 3500 
L 1894 763 
L 2988 3500 
L 3597 3500 
L 2059 -325 
z
" transform="scale(0.015625)"/>
      </defs>
      <use xlink:href="#DejaVuSans-79"/>
     </g>
    </g>
   </g>
   <g id="line2d_21">
    <path d="M 375.146857 176.795771 
L 375.035731 177.271983 
L 374.678767 177.774684 
L 373.987097 178.339611 
L 372.840278 178.973053 
L 371.152694 179.641455 
L 368.967675 180.263886 
L 366.423853 180.755621 
L 363.683204 181.058838 
L 360.822966 181.151265 
L 357.904408 181.024137 
L 354.919504 180.67221 
L 351.859893 180.086509 
L 348.737166 179.262216 
L 345.510492 178.180478 
L 342.165415 176.826256 
L 338.641788 175.163347 
L 334.738334 173.069096 
L 330.377568 170.46625 
L 325.225982 167.121147 
L 317.766302 161.981931 
L 305.091399 153.248179 
L 298.674326 149.116071 
L 292.792457 145.591958 
L 287.2108 142.506519 
L 281.68212 139.707242 
L 276.191834 137.17923 
L 270.650446 134.875072 
L 265.111624 132.80955 
L 259.305004 130.884899 
L 253.439098 129.174037 
L 247.24217 127.60122 
L 240.778158 126.193237 
L 233.966258 124.936876 
L 226.453744 123.781593 
L 217.84966 122.692231 
L 206.26154 121.470813 
L 190.112593 119.757656 
L 183.124762 118.782611 
L 177.60853 117.793908 
L 172.989149 116.743543 
L 169.076606 115.633329 
L 165.649794 114.436656 
L 162.680674 113.173854 
L 160.015847 111.80102 
L 157.741214 110.386256 
L 155.733092 108.879256 
L 154.041846 107.342464 
L 152.552155 105.686203 
L 151.308367 103.958213 
L 150.352551 102.261848 
L 149.609227 100.514647 
L 149.05085 98.622973 
L 148.724785 96.730339 
L 148.612987 94.744275 
L 148.724686 92.73457 
L 149.054698 90.710288 
L 149.638449 88.553641 
L 150.422982 86.477062 
L 151.445209 84.363993 
L 152.777379 82.127551 
L 154.345074 79.931498 
L 156.137895 77.787632 
L 158.285933 75.571188 
L 160.663364 73.440315 
L 163.255182 71.40759 
L 166.226198 69.36861 
L 169.401467 67.467063 
L 172.760136 65.715152 
L 176.280471 64.123963 
L 179.93993 62.703416 
L 183.940407 61.394959 
L 188.042321 60.296376 
L 192.216537 59.414879 
L 196.43334 58.756054 
L 200.662557 58.323846 
L 204.873688 58.120564 
L 209.036036 58.146892 
L 213.118832 58.401917 
L 216.874078 58.850562 
L 220.505236 59.497709 
L 223.986798 60.338924 
L 227.293566 61.368708 
L 230.223914 62.504384 
L 232.957119 63.795253 
L 235.473257 65.234593 
L 237.617667 66.712395 
L 239.538499 68.308069 
L 241.116075 69.897997 
L 242.473477 71.579607 
L 243.586906 73.325958 
L 244.435042 75.083219 
L 245.021521 76.793574 
L 245.398269 78.56139 
L 245.557897 80.383611 
L 245.493285 82.257565 
L 245.206789 84.137546 
L 244.679689 86.105636 
L 243.909634 88.120739 
L 242.827002 90.298804 
L 241.461447 92.530486 
L 239.744156 94.90042 
L 237.582402 97.483586 
L 234.957925 100.257415 
L 231.702522 103.359702 
L 227.514154 107.021563 
L 221.697881 111.781013 
L 203.222187 126.697596 
L 197.795169 131.477239 
L 193.130901 135.876359 
L 188.895179 140.174342 
L 185.019104 144.422413 
L 181.424994 148.689548 
L 178.038454 153.057469 
L 174.883222 157.486513 
L 171.810982 162.188107 
L 168.862354 167.111701 
L 165.932373 172.438939 
L 162.777539 178.655432 
L 158.59099 187.461179 
L 153.923313 197.173961 
L 151.348036 202.020654 
L 149.077052 205.83686 
L 146.954574 208.987439 
L 144.835353 211.742705 
L 142.74472 214.105804 
L 140.562601 216.232089 
L 138.398704 218.033874 
L 136.164133 219.609386 
L 133.861423 220.963088 
L 131.473529 222.108469 
L 129.068731 223.022836 
L 126.482881 223.763445 
L 123.849877 224.28118 
L 121.179488 224.580844 
L 118.482188 224.667305 
L 115.712054 224.54081 
L 112.774412 224.176406 
L 109.846564 223.581591 
L 106.943449 222.763448 
L 104.080042 221.729418 
L 101.209361 220.457342 
L 98.470208 219.010345 
L 95.641388 217.256457 
L 92.925048 215.296252 
L 90.337424 213.141427 
L 87.893977 210.804252 
L 85.609297 208.29756 
L 83.497009 205.63472 
L 81.569694 202.829616 
L 79.838815 199.896609 
L 78.314652 196.8505 
L 77.081547 193.905563 
L 76.044505 190.887373 
L 75.208922 187.80896 
L 74.579139 184.683548 
L 74.15843 181.524509 
L 73.948978 178.345324 
L 73.95187 175.15954 
L 74.167091 171.980724 
L 74.593525 168.822422 
L 75.228957 165.698113 
L 76.070086 162.621165 
L 77.112541 159.604797 
L 78.350897 156.662033 
L 79.880452 153.618623 
L 81.616476 150.688698 
L 83.548659 147.887047 
L 85.665506 145.228021 
L 87.954411 142.72549 
L 90.401722 140.392811 
L 92.992826 138.242802 
L 95.712242 136.287718 
L 98.543713 134.539243 
L 101.470326 133.008479 
L 104.284918 131.780486 
L 107.153083 130.761329 
L 110.059909 129.958822 
L 112.990395 129.380389 
L 115.92959 129.033097 
L 118.764315 128.923441 
L 121.511765 129.036134 
L 124.229862 129.371078 
L 126.907594 129.933424 
L 129.381775 130.674972 
L 131.803439 131.62668 
L 134.163764 132.791647 
L 136.434682 134.158585 
L 138.638458 135.74333 
L 140.77284 137.550216 
L 142.837572 139.583661 
L 144.953481 141.992584 
L 146.982686 144.643224 
L 149.033937 147.686675 
L 151.196707 151.302551 
L 153.597942 155.778207 
L 156.539628 161.772768 
L 165.253729 179.855845 
L 168.31639 185.520687 
L 171.28579 190.557277 
L 174.308538 195.256439 
L 177.509762 199.817708 
L 180.859392 204.197587 
L 184.421219 208.482852 
L 188.16167 212.638365 
L 192.262381 216.859715 
L 196.685035 221.094796 
L 201.711402 225.594091 
L 207.574759 230.533081 
L 215.624103 236.993194 
L 226.929583 246.078597 
L 231.516889 250.063011 
L 234.933646 253.309808 
L 237.632239 256.163912 
L 239.8591 258.839129 
L 241.622862 261.304949 
L 242.973909 263.560898 
L 244.034918 265.761975 
L 244.784203 267.817038 
L 245.280005 269.822754 
L 245.526574 271.742981 
L 245.541801 273.612858 
L 245.332653 275.43006 
L 244.906394 277.191789 
L 244.270555 278.894881 
L 243.432917 280.535887 
L 242.324777 282.215461 
L 241.005743 283.815491 
L 239.384746 285.423131 
L 237.550054 286.930078 
L 235.389029 288.409784 
L 233.018949 289.764071 
L 230.308367 291.050878 
L 227.401026 292.185145 
L 224.284779 293.169587 
L 220.800836 294.031202 
L 217.163755 294.697337 
L 213.399382 295.163404 
L 209.533801 295.425964 
L 205.359677 295.479694 
L 201.132705 295.301669 
L 196.884035 294.892397 
L 192.644629 294.254038 
L 188.445128 293.390421 
L 184.315722 292.307046 
L 180.286021 291.011073 
L 176.384928 289.511298 
L 172.843964 287.917058 
L 169.465652 286.160318 
L 166.272051 284.252299 
L 163.284327 282.205355 
L 160.522691 280.032921 
L 158.14725 277.886564 
L 156.004275 275.65463 
L 154.108102 273.350589 
L 152.566601 271.13757 
L 151.264342 268.885563 
L 150.21115 266.606941 
L 149.461028 264.467384 
L 148.942956 262.326146 
L 148.663588 260.193814 
L 148.623421 258.231071 
L 148.799319 256.293706 
L 149.202303 254.366586 
L 149.798422 252.57726 
L 150.606585 250.83428 
L 151.630744 249.144704 
L 152.874921 247.51532 
L 154.413663 245.884889 
L 156.119291 244.399319 
L 158.172648 242.916082 
L 160.491746 241.525406 
L 163.083252 240.23174 
L 166.031913 239.008981 
L 169.37112 237.866069 
L 173.200499 236.794399 
L 177.578852 235.803651 
L 182.667673 234.882161 
L 188.95858 233.979068 
L 197.287919 233.023598 
L 224.78681 230.038265 
L 232.672883 228.869552 
L 239.834738 227.585515 
L 246.507317 226.161875 
L 252.757177 224.601998 
L 258.679551 222.899927 
L 264.5474 220.97957 
L 270.148655 218.913198 
L 275.602116 216.669175 
L 281.017536 214.203563 
L 286.487411 211.465876 
L 291.948648 208.482555 
L 297.594999 205.142202 
L 303.678126 201.276382 
L 310.774205 196.487171 
L 329.579869 183.626607 
L 334.2445 180.80432 
L 338.313106 178.594813 
L 341.971062 176.850893 
L 345.481249 175.421899 
L 348.753138 174.324543 
L 351.96671 173.480834 
L 355.041303 172.900679 
L 358.055464 172.555493 
L 361.007648 172.439643 
L 363.883768 172.547558 
L 366.656742 172.872038 
L 369.243961 173.394936 
L 371.502796 174.072048 
L 373.231724 174.81098 
L 374.339132 175.508401 
L 374.921265 176.11689 
L 375.134862 176.639392 
L 375.096042 177.117698 
L 374.824937 177.607094 
L 374.252933 178.150405 
L 373.263893 178.763851 
L 371.750434 179.428623 
L 369.702519 180.078203 
L 367.24508 180.620604 
L 364.540954 180.987372 
L 361.697741 181.146305 
L 358.770807 181.084624 
L 355.791516 180.797766 
L 352.770997 180.284274 
L 349.665025 179.530492 
L 346.49804 178.535654 
L 343.148679 177.24793 
L 339.665382 175.670015 
L 335.873076 173.703006 
L 331.650086 171.250949 
L 326.800302 168.168202 
L 320.299759 163.749259 
L 303.35411 152.102957 
L 297.084315 148.136935 
L 291.382761 144.788358 
L 285.901951 141.820647 
L 280.433274 139.110337 
L 275.016433 136.67004 
L 269.562486 134.450994 
L 263.966121 132.410842 
L 258.272711 130.567311 
L 252.371988 128.886612 
L 246.157559 127.349084 
L 239.694583 125.978592 
L 232.75435 124.735317 
L 225.1601 123.603608 
L 216.268179 122.512939 
L 203.256196 121.172715 
L 190.139765 119.761012 
L 183.166439 118.78922 
L 177.645327 117.801357 
L 173.057378 116.760911 
L 169.106508 115.642754 
L 165.64549 114.434993 
L 162.608249 113.13986 
L 160.010276 111.79786 
L 157.695836 110.355203 
L 155.737424 108.882836 
L 153.984193 107.284467 
L 152.53402 105.663688 
L 151.318736 103.974465 
L 150.33389 102.223859 
L 149.575169 100.419296 
L 149.038195 98.56798 
L 148.71667 96.65794 
L 148.613018 94.717043 
L 148.722594 92.753702 
L 149.067241 90.652512 
L 149.624975 88.595182 
L 150.469765 86.368997 
L 151.556368 84.159244 
L 152.876175 81.977496 
L 154.530683 79.693893 
L 156.428274 77.468313 
L 158.556377 75.313568 
L 161.055146 73.11547 
L 163.782197 71.025125 
L 166.719709 69.055635 
L 169.848971 67.219191 
L 173.349559 65.432187 
L 177.019004 63.818978 
L 180.832209 62.390286 
L 184.763256 61.155444 
L 188.785504 60.122349 
L 192.871693 59.297433 
L 196.99405 58.685647 
L 201.124409 58.290448 
L 205.23432 58.113801 
L 209.295165 58.156198 
L 213.278272 58.416678 
L 217.155025 58.89287 
L 220.896973 59.581047 
L 224.281852 60.42113 
L 227.497896 61.440615 
L 230.52201 62.6334 
L 233.172593 63.908162 
L 235.614543 65.324021 
L 237.829737 66.874212 
L 239.684808 68.443193 
L 241.310831 70.117934 
L 242.609597 71.77103 
L 243.685857 73.505937 
L 244.485315 75.207378 
L 245.075812 76.994581 
L 245.422078 78.726403 
L 245.560695 80.509844 
L 245.485056 82.342451 
L 245.188824 84.222217 
L 244.644828 86.211855 
L 243.83338 88.292869 
L 242.757182 90.423908 
L 241.410739 92.606206 
L 239.696335 94.961622 
L 237.599091 97.464863 
L 235.042548 100.172489 
L 231.87993 103.197661 
L 227.821356 106.761751 
L 222.198226 111.380205 
L 202.504293 127.312598 
L 197.29365 131.935847 
L 192.705125 136.29418 
L 188.475734 140.618356 
L 184.606304 144.895291 
L 181.021506 149.191079 
L 177.649166 153.583983 
L 174.51178 158.033433 
L 171.465103 162.743908 
L 168.546955 167.66394 
L 165.591602 173.087178 
L 162.436722 179.35365 
L 157.928762 188.874396 
L 153.803294 197.410625 
L 151.238599 202.214904 
L 148.957293 206.02535 
L 146.817736 209.176891 
L 144.677991 211.932447 
L 142.605915 214.251017 
L 140.4761 216.309739 
L 138.272711 218.130101 
L 135.996383 219.716877 
L 133.728524 221.033485 
L 131.316221 222.175353 
L 128.844098 223.096817 
L 126.319434 223.802323 
L 123.750511 224.296299 
L 121.015459 224.592184 
L 118.224211 224.6646 
L 115.363832 224.509878 
L 112.500387 224.130512 
L 109.647569 223.532796 
L 106.663093 222.672274 
L 103.752633 221.596464 
L 100.839911 220.275824 
L 98.004563 218.740432 
L 95.262662 217.000145 
L 92.629772 215.065339 
L 90.120845 212.94691 
L 87.750123 210.656274 
L 85.531051 208.205349 
L 83.476203 205.60654 
L 81.597206 202.872713 
L 79.904675 200.017167 
L 78.408164 197.053595 
L 77.116104 193.996051 
L 76.03577 190.858905 
L 75.173235 187.656798 
L 74.533347 184.404594 
L 74.119698 181.117332 
L 73.934609 177.81017 
L 73.979118 174.498339 
L 74.252976 171.197084 
L 74.754647 167.921614 
L 75.481314 164.687049 
L 76.428896 161.508363 
L 77.592069 158.400343 
L 78.964289 155.377527 
L 80.537828 152.45417 
L 82.303814 149.64419 
L 84.252277 146.961132 
L 86.3722 144.418131 
L 88.651584 142.027878 
L 91.077507 139.802591 
L 93.636205 137.753996 
L 96.31315 135.893308 
L 99.093143 134.231223 
L 101.960408 132.777913 
L 104.898706 131.543037 
L 107.891454 130.535748 
L 110.731674 129.805831 
L 113.591098 129.290361 
L 116.455909 128.995817 
L 119.312498 128.928398 
L 122.021385 129.081597 
L 124.668055 129.446857 
L 127.274636 130.029509 
L 129.831756 130.834271 
L 132.330995 131.865854 
L 134.670543 133.074812 
L 136.988919 134.532035 
L 139.235593 136.220517 
L 141.408657 138.144992 
L 143.508536 140.310276 
L 145.554466 142.741566 
L 147.600211 145.520099 
L 149.667616 148.703028 
L 151.84755 152.47032 
L 154.335402 157.237161 
L 157.641637 164.105614 
L 164.133939 177.666256 
L 167.258647 183.618859 
L 170.272125 188.886938 
L 173.295906 193.727346 
L 176.43112 198.324822 
L 179.726512 202.757284 
L 183.145127 206.987566 
L 186.852672 211.220312 
L 190.822603 215.413216 
L 195.124658 219.633805 
L 199.930056 224.032395 
L 205.488097 228.806182 
L 212.475351 234.492896 
L 228.586619 247.482148 
L 232.785488 251.232233 
L 235.96507 254.362503 
L 238.464457 257.120963 
L 240.503706 259.694633 
L 242.08899 262.035996 
L 243.368518 264.318576 
L 244.313434 266.452971 
L 244.989241 268.536045 
L 245.398069 270.535105 
L 245.55772 272.397637 
L 245.49792 274.211197 
L 245.225305 275.973442 
L 244.714291 277.774882 
L 244.008562 279.458823 
L 243.05878 281.149624 
L 241.900725 282.767038 
L 240.452734 284.400264 
L 238.792095 285.940459 
L 236.815383 287.464027 
L 234.628438 288.871329 
L 232.190839 290.183836 
L 229.444454 291.412133 
L 226.512436 292.48843 
L 223.215549 293.459128 
L 219.754829 294.245883 
L 216.154369 294.843668 
L 212.216888 295.266203 
L 208.179223 295.46894 
L 204.070676 295.449844 
L 199.920576 295.208346 
L 195.758162 294.745378 
L 191.612466 294.063403 
L 187.512195 293.166421 
L 183.485607 292.059967 
L 179.560403 290.751104 
L 175.763608 289.248392 
L 172.121467 287.561858 
L 168.659345 285.702949 
L 165.576852 283.800566 
L 162.696385 281.767705 
L 160.036738 279.617204 
L 157.615778 277.362817 
L 155.570415 275.159205 
L 153.764758 272.889291 
L 152.211331 270.566413 
L 150.994535 268.35289 
L 150.018859 266.116657 
L 149.333317 264.019562 
L 148.871805 261.922969 
L 148.640505 259.836846 
L 148.645282 257.771203 
L 148.866003 255.880179 
L 149.313347 253.976402 
L 149.988817 252.117413 
L 150.896979 250.311072 
L 151.963736 248.67254 
L 153.242798 247.093586 
L 154.845612 245.481724 
L 156.635152 243.999617 
L 158.71032 242.570191 
L 161.041596 241.23059 
L 163.779305 239.921811 
L 166.838206 238.712038 
L 170.324749 237.577939 
L 174.317355 236.520673 
L 178.963282 235.531691 
L 184.387144 234.6136 
L 191.062418 233.71813 
L 200.645038 232.679533 
L 221.024674 230.521622 
L 229.586059 229.354707 
L 236.946199 228.131714 
L 243.723725 226.784504 
L 250.124815 225.287297 
L 256.233113 223.630726 
L 262.148859 221.793824 
L 267.821403 219.800362 
L 273.363279 217.618892 
L 278.879205 215.205928 
L 284.31779 212.581792 
L 289.7672 209.704005 
L 295.294748 206.533491 
L 301.177648 202.896431 
L 307.665298 198.615457 
L 316.742437 192.326305 
L 326.697835 185.490904 
L 331.939718 182.164718 
L 336.30425 179.652873 
L 340.232513 177.64895 
L 343.780614 176.082838 
L 347.199038 174.816553 
L 350.480883 173.841365 
L 353.644552 173.13616 
L 356.703343 172.682475 
L 359.692816 172.463536 
L 362.611097 172.472168 
L 365.440195 172.701724 
L 368.122905 173.139704 
L 370.552095 173.756779 
L 372.540172 174.482624 
L 373.921893 175.208956 
L 374.717496 175.85837 
L 375.075984 176.415543 
L 375.140639 176.908356 
L 374.976246 177.386004 
L 374.551314 177.900458 
L 373.76421 178.48197 
L 372.489571 179.130956 
L 370.664338 179.800062 
L 368.377362 180.397954 
L 365.772578 180.847742 
L 363.004229 181.100839 
L 360.135619 181.141071 
L 357.171658 180.958221 
L 354.167077 180.548994 
L 351.101743 179.907077 
L 347.919639 179.00979 
L 344.683872 177.867251 
L 341.244312 176.414042 
L 337.606476 174.632223 
L 333.681746 172.46174 
L 329.194158 169.720089 
L 323.682142 166.077736 
L 314.406291 159.630106 
L 305.026928 153.20536 
L 298.557733 149.043629 
L 292.704344 145.541253 
L 287.066052 142.429959 
L 281.563384 139.649931 
L 276.079717 137.130178 
L 270.538291 134.830932 
L 264.992042 132.767481 
L 259.187417 130.848357 
L 253.324656 129.142871 
L 247.149276 127.579364 
L 240.724438 126.182456 
L 233.827849 124.913539 
L 226.28607 123.758205 
L 217.734327 122.67897 
L 206.007725 121.44559 
L 190.116233 119.758104 
L 183.090464 118.777162 
L 177.57216 117.786531 
L 172.953144 116.734351 
L 169.009911 115.612246 
L 165.550983 114.398362 
L 162.511753 113.094303 
L 159.893762 111.731446 
L 157.565987 110.265652 
L 155.612752 108.779166 
L 153.897101 107.196038 
L 152.431334 105.534921 
L 151.210483 103.802891 
L 150.273214 102.09867 
L 149.548502 100.343334 
L 149.028461 98.525077 
L 148.718008 96.670052 
L 148.613185 94.667329 
L 148.735207 92.640943 
L 149.084128 90.575955 
L 149.686611 88.407307 
L 150.524619 86.243992 
L 151.590685 84.096827 
L 152.97025 81.836282 
L 154.590028 79.618776 
L 156.439126 77.456512 
L 158.642117 75.23278 
L 161.076234 73.098176 
L 163.725938 71.065499 
L 166.748288 69.037719 
L 169.973579 67.150997 
L 173.380466 65.41754 
L 176.946717 63.848408 
L 180.691384 62.438873 
L 184.508002 61.228695 
L 188.675265 60.147689 
L 192.912086 59.290374 
L 197.187505 58.662286 
L 201.470099 58.267231 
L 205.728129 58.107294 
L 209.92967 58.182856 
L 213.78888 58.46645 
L 217.544063 58.953541 
L 221.1691 59.640564 
L 224.638118 60.522804 
L 227.925574 61.59448 
L 230.807876 62.759667 
L 233.490052 64.077792 
L 235.924471 65.523803 
L 238.050139 67.04581 
L 239.83192 68.581321 
L 241.396169 70.216265 
L 242.730215 71.945003 
L 243.756755 73.638166 
L 244.562296 75.403693 
L 245.126467 77.192961 
L 245.457113 78.997661 
L 245.562998 80.857527 
L 245.436784 82.769895 
L 245.071458 84.732643 
L 244.460369 86.744322 
L 243.607836 88.78209 
L 242.437901 90.978522 
L 240.982831 93.229342 
L 239.142926 95.654804 
L 236.868744 98.2698 
L 234.066991 101.136714 
L 230.620719 104.333769 
L 226.170337 108.145732 
L 219.574718 113.471843 
L 205.424359 124.838592 
L 199.612533 129.841083 
L 194.683252 134.377313 
L 190.313108 138.699095 
L 186.376317 142.896622 
L 182.702846 147.13232 
L 179.226684 151.482662 
L 175.976256 155.90932 
L 172.889272 160.490729 
L 169.917383 165.300972 
L 166.961461 170.517421 
L 163.900338 176.38961 
L 160.35489 183.704211 
L 153.334417 198.325892 
L 150.826846 202.936554 
L 148.599006 206.581562 
L 146.441137 209.689903 
L 144.319222 212.357628 
L 142.220487 214.64693 
L 140.047576 216.687296 
L 137.890404 218.416509 
L 135.588451 219.972279 
L 133.291015 221.259535 
L 130.932095 222.334402 
L 128.517481 223.201024 
L 125.929719 223.89134 
L 123.29711 224.361316 
L 120.600731 224.617291 
L 117.827561 224.656764 
L 115.040518 224.478184 
L 112.097316 224.059329 
L 109.167404 223.410654 
L 106.265546 222.539269 
L 103.376675 221.439993 
L 100.547598 220.129242 
L 97.793489 218.615703 
L 95.129164 216.908526 
L 92.568968 215.017326 
L 90.126694 212.95219 
L 87.815494 210.723668 
L 85.647802 208.342766 
L 83.63527 205.820926 
L 81.788701 203.170008 
L 80.117994 200.402262 
L 78.632095 197.530298 
L 77.338948 194.567056 
L 76.24546 191.525763 
L 75.357465 188.419902 
L 74.67252 185.223155 
L 74.220131 182.108585 
L 73.973433 178.971943 
L 73.933675 175.826262 
L 74.101059 172.684607 
L 74.474736 169.56003 
L 75.052816 166.465528 
L 75.900575 163.181418 
L 76.976998 159.963089 
L 78.275753 156.826243 
L 79.789193 153.786291 
L 81.508395 150.858303 
L 83.423209 148.056959 
L 85.522317 145.396507 
L 87.793292 142.890723 
L 90.222674 140.552879 
L 92.796045 138.395714 
L 95.498121 136.431415 
L 98.31285 134.671601 
L 101.223516 133.12732 
L 104.212862 131.809054 
L 107.226367 130.738265 
L 110.167389 129.93352 
L 113.132051 129.358273 
L 116.104888 129.019823 
L 118.885783 128.923789 
L 121.648206 129.047528 
L 124.411542 129.401735 
L 126.955113 129.945589 
L 129.452814 130.699595 
L 131.89673 131.668106 
L 134.27998 132.8555 
L 136.573837 134.250809 
L 138.775772 135.851171 
L 140.908079 137.674453 
L 142.970639 139.72509 
L 145.063801 142.127841 
L 147.135743 144.85743 
L 149.239196 148.011928 
L 151.445773 151.745217 
L 153.855683 156.284097 
L 156.930186 162.596272 
L 164.78753 178.951673 
L 167.922355 184.81895 
L 170.928334 189.973903 
L 173.968355 194.747637 
L 177.079291 199.227046 
L 180.430384 203.656855 
L 183.967148 207.955639 
L 187.710337 212.153594 
L 191.809541 216.408666 
L 196.226582 220.669041 
L 201.118917 225.078318 
L 206.822025 229.913527 
L 214.370329 235.999994 
L 227.349841 246.431481 
L 231.792626 250.314066 
L 235.189397 253.567059 
L 237.877495 256.441437 
L 240.017907 259.045796 
L 241.707541 261.434732 
L 243.081807 263.762413 
L 244.110004 265.941961 
L 244.828471 267.963767 
L 245.301157 269.937855 
L 245.534306 271.862852 
L 245.534661 273.736956 
L 245.309298 275.55778 
L 244.865587 277.322462 
L 244.218537 279.011459 
L 243.352337 280.672916 
L 242.214003 282.363486 
L 240.861257 283.972399 
L 239.207115 285.581582 
L 237.337602 287.088076 
L 235.241843 288.50125 
L 232.820413 289.866999 
L 230.201537 291.096725 
L 227.222129 292.247724 
L 224.060794 293.232163 
L 220.539304 294.086688 
L 216.864294 294.742426 
L 213.062213 295.194774 
L 209.159752 295.440318 
L 205.183745 295.476892 
L 201.11605 295.300512 
L 196.803486 294.882415 
L 192.501067 294.228356 
L 188.240825 293.342385 
L 184.31322 292.306318 
L 180.475921 291.077731 
L 176.753851 289.664169 
L 173.171258 288.074492 
L 169.75163 286.318837 
L 166.517612 284.40857 
L 163.490931 282.356235 
L 160.871413 280.324582 
L 158.466652 278.192991 
L 156.291899 275.974132 
L 154.361571 273.681349 
L 152.79987 271.498337 
L 151.470875 269.27521 
L 150.384209 267.023908 
L 149.548911 264.756664 
L 149.002486 262.631754 
L 148.69835 260.601605 
L 148.614755 258.587293 
L 148.756915 256.597976 
L 149.129836 254.642763 
L 149.686995 252.865612 
L 150.484909 251.066664 
L 151.496373 249.344266 
L 152.734052 247.68307 
L 154.202281 246.08985 
L 155.905625 244.570919 
L 157.933394 243.075105 
L 160.226256 241.672107 
L 162.791521 240.365962 
L 165.786303 239.102351 
L 169.15274 237.93423 
L 172.918767 236.865966 
L 177.214159 235.878277 
L 182.342151 234.935154 
L 188.443276 234.045624 
L 196.655646 233.090163 
L 225.821078 229.89769 
L 233.671829 228.704206 
L 240.653403 227.423315 
L 247.159782 226.009707 
L 253.414167 224.4243 
L 259.351043 222.692311 
L 265.07338 220.795458 
L 270.687703 218.701787 
L 276.148809 216.43115 
L 281.558867 213.943791 
L 287.004183 211.194256 
L 292.550058 208.138926 
L 298.238835 204.74554 
L 304.30852 200.861687 
L 311.504593 195.981971 
L 328.860856 184.084278 
L 333.650554 181.14799 
L 337.744791 178.88732 
L 341.54319 177.041968 
L 345.088852 175.569057 
L 348.410531 174.428408 
L 351.606415 173.563548 
L 354.740201 172.947469 
L 357.777441 172.577882 
L 360.732169 172.440937 
L 363.614452 172.52789 
L 366.40988 172.833828 
L 369.026226 173.341685 
L 371.318939 174.007107 
L 373.099804 174.743968 
L 374.263627 175.449316 
L 374.887129 176.067239 
L 375.127528 176.597313 
L 375.107894 177.077605 
L 374.858845 177.563041 
L 374.317977 178.099948 
L 373.36823 178.70858 
L 371.903246 179.370464 
L 369.90462 180.023198 
L 367.49221 180.575677 
L 364.809317 180.960675 
L 361.983681 181.140235 
L 359.095921 181.102353 
L 356.114356 180.839464 
L 353.104388 180.351665 
L 349.975696 179.61588 
L 346.807237 178.64247 
L 343.534656 177.408096 
L 339.997353 175.830205 
L 336.201815 173.882862 
L 332.103175 171.525527 
L 327.306405 168.500529 
L 321.0714 164.284359 
L 302.39172 151.476478 
L 296.239702 147.624514 
L 290.487237 144.286224 
L 284.985969 141.349075 
L 279.519942 138.68186 
L 273.987062 136.233094 
L 268.440772 134.023118 
L 262.757777 132.000383 
L 256.98612 130.18136 
L 250.99574 128.526143 
L 244.661744 127.01194 
L 237.983238 125.651146 
L 230.858676 124.432054 
L 223.029501 123.322027 
L 213.726872 122.235008 
L 184.6938 119.023537 
L 178.939325 118.054851 
L 174.152535 117.030966 
L 170.056691 115.933617 
L 166.521176 114.763885 
L 163.443777 113.521473 
L 160.679113 112.167237 
L 158.307471 110.762883 
L 156.256623 109.299743 
L 154.488283 107.776797 
L 152.96168 106.176654 
L 151.672029 104.505766 
L 150.614803 102.771088 
L 149.785266 100.979033 
L 149.169847 99.100782 
L 148.782952 97.180114 
L 148.619959 95.225592 
L 148.676113 93.245886 
L 148.942247 91.272315 
L 149.454829 89.146946 
L 150.196114 87.023123 
L 151.159214 84.911087 
L 152.42277 82.682598 
L 153.92096 80.490961 
L 155.758656 78.215738 
L 157.83713 76.008738 
L 160.11463 73.907196 
L 162.785944 71.756532 
L 165.678239 69.724333 
L 168.772591 67.823469 
L 172.049182 66.065827 
L 175.487355 64.462246 
L 179.308668 62.932533 
L 183.262512 61.599592 
L 187.321163 60.472313 
L 191.456191 59.558031 
L 195.638579 58.862505 
L 199.838843 58.389896 
L 204.027156 58.142772 
L 208.173477 58.122118 
L 212.247667 58.327356 
L 216.219619 58.75639 
L 220.059368 59.405657 
L 223.512645 60.209964 
L 226.799432 61.198348 
L 229.895891 62.364732 
L 232.593539 63.607858 
L 235.086324 64.993808 
L 237.355979 66.51589 
L 239.29499 68.086666 
L 240.900662 69.660096 
L 242.28867 71.325664 
L 243.377386 72.958628 
L 244.256946 74.66296 
L 244.918319 76.434551 
L 245.348851 78.246786 
L 245.546567 80.048124 
L 245.524104 81.900992 
L 245.274708 83.803151 
L 244.791945 85.752925 
L 244.069743 87.749323 
L 243.046353 89.897839 
L 241.760614 92.07647 
L 240.113295 94.421713 
L 238.056032 96.946875 
L 235.577997 99.629863 
L 232.534354 102.594506 
L 228.699823 106.012832 
L 223.493661 110.337252 
L 213.061224 118.631977 
L 205.050893 125.151258 
L 199.336743 130.086939 
L 194.496138 134.556026 
L 190.107119 138.910918 
L 186.094921 143.209238 
L 182.373276 147.529253 
L 178.965384 151.824527 
L 175.778402 156.190837 
L 172.735141 160.729507 
L 169.777598 165.536886 
L 166.866006 170.69235 
L 163.839107 176.510451 
L 160.240357 183.945245 
L 153.405778 198.185275 
L 150.887698 202.82844 
L 148.643581 206.510591 
L 146.492037 209.618907 
L 144.34669 212.323113 
L 142.207301 214.658026 
L 140.077519 216.659102 
L 137.87504 218.425724 
L 135.600311 219.962922 
L 133.237702 221.284512 
L 130.810236 222.381698 
L 128.324251 223.258982 
L 125.787272 223.920816 
L 123.18111 224.375194 
L 120.489837 224.621483 
L 117.774197 224.653766 
L 114.893739 224.461305 
L 112.012434 224.042283 
L 109.14428 223.403164 
L 106.271547 222.539906 
L 103.441341 221.465838 
L 100.497061 220.102323 
L 97.634264 218.51936 
L 94.869625 216.727281 
L 92.219269 214.736966 
L 89.698658 212.559845 
L 87.322488 210.207894 
L 85.104605 207.693616 
L 83.057913 205.030024 
L 81.194307 202.230612 
L 79.524603 199.309321 
L 78.10661 196.388964 
L 76.858242 193.306767 
L 75.823861 190.147893 
L 75.009305 186.927119 
L 74.419167 183.65944 
L 74.056773 180.360012 
L 73.924164 177.044102 
L 74.022087 173.727035 
L 74.349991 170.424141 
L 74.906029 167.150699 
L 75.687067 163.921886 
L 76.688703 160.752722 
L 77.905284 157.658023 
L 79.329939 154.652346 
L 80.954612 151.749949 
L 82.770105 148.964741 
L 84.766126 146.310247 
L 86.931342 143.799568 
L 89.253446 141.445351 
L 91.719221 139.259761 
L 94.314621 137.254462 
L 97.024851 135.440599 
L 99.834466 133.828793 
L 102.727467 132.42914 
L 105.68742 131.251218 
L 108.697575 130.304103 
L 111.630146 129.617804 
L 114.541885 129.165389 
L 117.454492 128.943692 
L 120.173207 128.951118 
L 122.868836 129.172104 
L 125.501203 129.60554 
L 128.119362 130.266033 
L 130.543165 131.09934 
L 132.912285 132.140346 
L 135.220735 133.393193 
L 137.485288 134.877457 
L 139.6165 136.533031 
L 141.781939 138.503761 
L 143.874177 140.717319 
L 145.896986 143.178564 
L 147.934475 146.005558 
L 150.052103 149.334072 
L 152.277353 153.257676 
L 154.86659 158.305907 
L 158.588575 166.123212 
L 163.807565 177.015803 
L 166.989521 183.125192 
L 170.007166 188.441883 
L 172.996328 193.26653 
L 176.071285 197.817405 
L 179.289547 202.191342 
L 182.727932 206.489969 
L 186.358837 210.676337 
L 190.268476 214.847547 
L 194.546863 219.085116 
L 199.27364 223.449593 
L 204.625875 228.084962 
L 211.315938 233.567413 
L 229.645831 248.401843 
L 233.523494 251.934634 
L 236.543682 254.977005 
L 238.947895 257.704204 
L 240.913812 260.270933 
L 242.415845 262.58399 
L 243.617101 264.839638 
L 244.487268 266.936419 
L 245.100555 269.001331 
L 245.443016 270.915048 
L 245.557791 272.780638 
L 245.451424 274.596104 
L 245.130749 276.358961 
L 244.601955 278.068753 
L 243.863943 279.736883 
L 242.864287 281.439462 
L 241.652094 283.065765 
L 240.148029 284.699536 
L 238.429046 286.237246 
L 236.417622 287.734975 
L 234.150231 289.144322 
L 231.523186 290.5015 
L 228.690775 291.707405 
L 225.672969 292.755682 
L 222.298189 293.687476 
L 218.762922 294.430262 
L 215.092056 294.979141 
L 211.097935 295.343939 
L 207.139519 295.484288 
L 202.943543 295.405477 
L 198.712735 295.096345 
L 194.477885 294.558327 
L 190.269518 293.794501 
L 186.117774 292.809598 
L 182.052271 291.609997 
L 178.101987 290.203702 
L 174.295129 288.60032 
L 170.880778 286.928057 
L 167.638252 285.102765 
L 164.588453 283.135955 
L 161.751395 281.040197 
L 159.146144 278.829062 
L 156.939686 276.674017 
L 154.964829 274.443551 
L 153.2347 272.150716 
L 151.858091 269.977669 
L 150.712452 267.773771 
L 149.806526 265.550534 
L 149.148533 263.319699 
L 148.753479 261.151846 
L 148.609833 259.169722 
L 148.682163 257.209106 
L 148.975255 255.278629 
L 149.493738 253.386835 
L 150.231893 251.563727 
L 151.160346 249.856702 
L 152.305523 248.206605 
L 153.671474 246.619961 
L 155.262434 245.102897 
L 157.082905 243.661043 
L 159.273473 242.217444 
L 161.683889 240.894961 
L 164.50231 239.609229 
L 167.701559 238.404834 
L 171.255025 237.306845 
L 175.310163 236.286252 
L 180.096788 235.318188 
L 185.794537 234.403976 
L 193.012592 233.487319 
L 204.199671 232.323373 
L 219.829398 230.665558 
L 228.509745 229.51424 
L 236.063952 228.290028 
L 242.982153 226.942842 
L 249.404531 225.467263 
L 255.555614 223.826053 
L 261.374776 222.047986 
L 267.116589 220.061256 
L 272.73101 217.880386 
L 278.174223 215.528856 
L 283.546271 212.970066 
L 288.931761 210.162587 
L 294.515853 206.996797 
L 300.317828 203.445771 
L 306.730444 199.2495 
L 315.103095 193.477279 
L 326.70371 185.491316 
L 331.941984 182.168092 
L 336.331772 179.643015 
L 340.194864 177.672201 
L 343.795632 176.082275 
L 347.168617 174.832399 
L 350.404095 173.867178 
L 353.513401 173.166541 
L 356.57885 172.702344 
L 359.59411 172.473009 
L 362.506313 172.473742 
L 365.34462 172.695901 
L 368.039145 173.127904 
L 370.475378 173.738518 
L 372.476983 174.459833 
L 373.880466 175.186662 
L 374.696031 175.839953 
L 375.066352 176.399053 
L 375.139179 176.891167 
L 374.982459 177.368126 
L 374.566439 177.880811 
L 373.791117 178.459692 
L 372.533662 179.105042 
L 370.729314 179.77159 
L 368.443404 180.373967 
L 365.854698 180.825694 
L 363.078255 181.084278 
L 360.193502 181.128416 
L 357.252149 180.950798 
L 354.276814 180.551194 
L 351.230887 179.920657 
L 348.044156 179.029904 
L 344.754895 177.874023 
L 341.301093 176.417741 
L 337.689404 174.651716 
L 333.696431 172.444899 
L 329.151824 169.665925 
L 323.604906 165.995959 
L 314.145129 159.415616 
L 304.930517 153.107393 
L 298.502589 148.974276 
L 292.710378 145.508618 
L 287.120594 142.421707 
L 281.684752 139.670398 
L 276.159645 137.125833 
L 270.596496 134.813149 
L 265.05092 132.74592 
L 259.222957 130.815205 
L 253.336581 129.099676 
L 247.089917 127.51622 
L 240.54896 126.094783 
L 233.622252 124.822333 
L 226.087437 123.668673 
L 217.339509 122.564591 
L 205.340032 121.297662 
L 190.36143 119.685389 
L 183.354537 118.702723 
L 177.864286 117.71645 
L 173.277091 116.674409 
L 169.350257 115.563251 
L 165.955309 114.38308 
L 162.893856 113.085566 
L 160.2514 111.727115 
L 158.001345 110.334191 
L 155.978968 108.825787 
L 154.218708 107.230505 
L 152.780871 105.636437 
L 151.571256 103.975801 
L 150.576746 102.23761 
L 149.799919 100.427515 
L 149.247497 98.570332 
L 148.915136 96.674067 
L 148.798412 94.746873 
L 148.904794 92.681769 
L 149.242569 90.599304 
L 149.805815 88.511075 
L 150.588271 86.426868 
L 151.657032 84.219041 
L 152.959119 82.038329 
L 154.588074 79.763627 
L 156.505742 77.493592 
L 158.585465 75.370311 
L 161.047667 73.183876 
L 163.735805 71.102339 
L 166.632578 69.138537 
L 169.719821 67.304432 
L 173.201415 65.503416 
L 176.854105 63.874652 
L 180.652968 62.428959 
L 184.572257 61.17577 
L 188.585489 60.123096 
L 192.665561 59.277493 
L 196.784849 58.64404 
L 200.915324 58.22633 
L 205.028665 58.026469 
L 209.096374 58.045093 
L 213.089886 58.281387 
L 216.980685 58.733125 
L 220.740406 59.396724 
L 224.340939 60.267301 
L 227.547175 61.266044 
L 230.56658 62.435443 
L 233.377031 63.768805 
L 235.792471 65.154712 
L 237.98978 66.670592 
L 239.930151 68.289387 
L 241.568433 69.957086 
L 242.885216 71.610846 
L 243.978675 73.34682 
L 244.78828 75.036866 
L 245.385536 76.790343 
L 245.762236 78.603619 
L 245.908646 80.38122 
L 245.841666 82.207457 
L 245.554983 84.080281 
L 245.042581 85.998183 
L 244.244497 88.084401 
L 243.179609 90.219232 
L 241.798981 92.469142 
L 240.124213 94.775726 
L 238.049768 97.257904 
L 235.410633 100.050888 
L 232.245898 103.067599 
L 228.150751 106.647435 
L 222.547163 111.225082 
L 202.43769 127.399301 
L 197.17593 132.050719 
L 192.567882 136.414771 
L 188.426446 140.634208 
L 184.549369 144.900339 
L 180.969083 149.169435 
L 177.599434 153.533562 
L 174.368137 158.091203 
L 171.307516 162.799051 
L 168.358105 167.742404 
L 165.335339 173.25329 
L 162.060473 179.710836 
L 156.800693 190.688977 
L 153.268861 197.797453 
L 150.713048 202.45295 
L 148.430493 206.154518 
L 146.238841 209.283241 
L 144.120335 211.925571 
L 142.011244 214.211331 
L 139.829614 216.248267 
L 137.679338 217.964097 
L 135.425016 219.485419 
L 133.104709 220.786232 
L 130.722902 221.870863 
L 128.285433 222.743569 
L 125.727324 223.424607 
L 123.124914 223.890605 
L 120.488916 224.145766 
L 117.681147 224.191552 
L 114.859561 224.013299 
L 112.03699 223.616857 
L 109.10786 222.97792 
L 106.118915 222.085966 
L 103.176338 220.965226 
L 100.296437 219.624454 
L 97.495248 218.072885 
L 94.788416 216.320246 
L 92.191083 214.37677 
L 89.717786 212.253193 
L 87.382365 209.960753 
L 85.197882 207.511174 
L 83.199223 204.947819 
L 81.370565 202.254697 
L 79.722164 199.444761 
L 78.262993 196.530971 
L 77.000989 193.526622 
L 75.943009 190.445299 
L 75.094803 187.300835 
L 74.460981 184.107273 
L 74.044992 180.878816 
L 73.849104 177.629783 
L 73.874399 174.374559 
L 74.120764 171.127547 
L 74.58689 167.903121 
L 75.270281 164.715575 
L 76.167265 161.57908 
L 77.273012 158.50763 
L 78.581553 155.515004 
L 80.085817 152.614719 
L 81.777658 149.81999 
L 83.647899 147.143692 
L 85.68638 144.598324 
L 87.882006 142.19598 
L 90.22281 139.948322 
L 92.696012 137.866555 
L 95.288097 135.961413 
L 97.984889 134.243146 
L 100.771638 132.721516 
L 103.633115 131.405799 
L 106.553715 130.304792 
L 109.517573 129.426833 
L 112.471723 128.786364 
L 115.328189 128.389203 
L 118.181393 128.213977 
L 121.017971 128.2666 
L 123.650657 128.527945 
L 126.247195 128.999151 
L 128.855172 129.702757 
L 131.351395 130.612657 
L 133.785222 131.746216 
L 136.020682 133.02628 
L 138.190464 134.513835 
L 140.309505 136.228394 
L 142.396379 138.201528 
L 144.410934 140.407038 
L 146.448061 142.971745 
L 148.47745 145.892178 
L 150.579753 149.323628 
L 152.782703 153.357556 
L 155.336932 158.519499 
L 159.366675 167.253255 
L 163.885526 176.883053 
L 167.010144 183.007643 
L 169.989918 188.35591 
L 172.954606 193.221776 
L 176.013266 197.817768 
L 179.220056 202.237294 
L 182.647395 206.578485 
L 186.266403 210.804103 
L 190.157613 215.008352 
L 194.404628 219.270534 
L 199.203549 223.761701 
L 204.714692 228.599806 
L 211.586548 234.318675 
L 227.415874 247.377459 
L 231.471311 251.079758 
L 234.6013 254.224136 
L 237.102443 257.0415 
L 239.07513 259.581902 
L 240.6537 261.960019 
L 241.87905 264.187692 
L 242.79751 266.291981 
L 243.453445 268.328312 
L 243.861491 270.313734 
L 244.028203 272.247064 
L 243.96053 274.126412 
L 243.669763 275.931613 
L 243.145059 277.730824 
L 242.400189 279.464744 
L 241.443814 281.129583 
L 240.210578 282.812622 
L 238.761151 284.408861 
L 237.106755 285.913366 
L 235.126341 287.413459 
L 232.939624 288.797455 
L 230.406677 290.134456 
L 227.675544 291.327678 
L 224.588254 292.42784 
L 221.32179 293.353912 
L 217.898845 294.100394 
L 214.1414 294.688424 
L 210.303273 295.064104 
L 206.288487 295.232926 
L 202.206161 295.182863 
L 198.084878 294.913554 
L 193.953119 294.426086 
L 189.839146 293.723024 
L 185.77089 292.808413 
L 181.775836 291.687785 
L 177.880911 290.368141 
L 174.112378 288.857928 
L 170.49573 287.167009 
L 167.055596 285.306617 
L 163.815649 283.289304 
L 160.980162 281.26782 
L 158.358312 279.132869 
L 155.966992 276.897637 
L 153.822177 274.576103 
L 152.05603 272.344438 
L 150.52921 270.062866 
L 149.252497 267.744291 
L 148.299754 265.569792 
L 147.578936 263.385689 
L 147.097145 261.203018 
L 146.868738 259.172091 
L 146.863436 257.107899 
L 147.072685 255.209282 
L 147.493007 253.345872 
L 148.12845 251.525583 
L 148.983002 249.756174 
L 150.074771 248.025299 
L 151.399129 246.361785 
L 152.960502 244.772672 
L 154.763548 243.264555 
L 156.813297 241.843399 
L 159.138501 240.502141 
L 161.779843 239.236046 
L 164.848651 238.02268 
L 168.26194 236.919061 
L 172.212656 235.886062 
L 176.709953 234.949233 
L 181.964266 234.089646 
L 188.38331 233.275132 
L 197.106196 232.410837 
L 222.314565 230.041341 
L 230.465542 228.981273 
L 237.735593 227.814239 
L 244.478514 226.507491 
L 250.769374 225.066253 
L 256.895648 223.434223 
L 262.799408 221.629317 
L 268.432864 219.67916 
L 274.099442 217.479722 
L 279.579009 215.115771 
L 285.150609 212.466085 
L 290.745736 209.553728 
L 296.440748 206.337082 
L 302.542687 202.630502 
L 309.603946 198.06834 
L 330.388559 184.435974 
L 335.065874 181.762625 
L 339.086407 179.711177 
L 342.828401 178.04692 
L 346.332285 176.729582 
L 349.65623 175.713516 
L 352.876222 174.95862 
L 356.00872 174.449424 
L 359.10648 174.170209 
L 362.180937 174.117909 
L 365.226014 174.290672 
L 368.204284 174.68231 
L 371.006097 175.271744 
L 373.184136 175.942162 
L 374.232934 176.464109 
L 374.455748 176.774119 
L 374.349319 176.967007 
L 373.93861 177.163797 
L 372.913182 177.375099 
L 370.947527 177.535907 
L 368.207858 177.534193 
L 365.193158 177.31066 
L 362.141262 176.860797 
L 359.144161 176.196371 
L 356.132354 175.300017 
L 353.14857 174.180891 
L 350.098724 172.797103 
L 346.987323 171.137852 
L 343.768989 169.167444 
L 340.384315 166.834834 
L 336.639097 163.977337 
L 332.313463 160.380755 
L 326.955883 155.616739 
L 316.573893 146.003208 
L 307.526747 137.779813 
L 300.155563 131.385151 
L 292.521556 125.064784 
L 282.93862 117.44379 
L 269.986675 107.130688 
L 265.034686 102.891515 
L 261.292418 99.404731 
L 258.40052 96.420052 
L 256.072354 93.711753 
L 254.170496 91.161358 
L 252.714915 88.853458 
L 251.548293 86.586757 
L 250.708167 84.471597 
L 250.128279 82.394368 
L 249.816997 80.462564 
L 249.734795 78.567618 
L 249.87856 76.71181 
L 250.24466 74.897917 
L 250.829147 73.12875 
L 251.627829 71.407524 
L 252.710021 69.629655 
L 254.023542 67.916662 
L 255.561439 66.273767 
L 257.433021 64.61102 
L 259.540153 63.040051 
L 262.016955 61.484039 
L 264.734362 60.046096 
L 267.679429 58.733851 
L 270.984219 57.505367 
L 274.5842 56.408939 
L 278.393601 55.480546 
L 282.394186 54.727726 
L 286.833302 54.127922 
L 291.444006 53.741459 
L 296.202736 53.574708 
L 301.085525 53.632976 
L 306.06809 53.920447 
L 311.12594 54.440136 
L 316.234477 55.19385 
L 321.3691 56.18216 
L 326.505318 57.404382 
L 331.618853 58.858569 
L 336.685756 60.541505 
L 341.682509 62.448716 
L 346.300672 64.443507 
L 350.817707 66.626148 
L 355.215565 68.989942 
L 359.476853 71.52728 
L 363.584903 74.229669 
L 367.523837 77.087773 
L 371.278631 80.091448 
L 374.835171 83.229788 
L 378.1803 86.491168 
L 381.113535 89.649537 
L 383.841091 92.89463 
L 386.354617 96.215398 
L 388.646606 99.600393 
L 390.710408 103.037824 
L 392.540231 106.515592 
L 394.131143 110.021344 
L 395.479055 113.542512 
L 396.5807 117.066369 
L 397.433603 120.580076 
L 398.00369 123.838998 
L 398.354716 127.067347 
L 398.486276 130.254667 
L 398.39399 133.458442 
L 398.078485 136.557288 
L 397.540521 139.582912 
L 396.807399 142.435807 
L 395.857516 145.224266 
L 394.696035 147.915842 
L 393.392099 150.382697 
L 391.905747 152.731486 
L 390.193061 155.01575 
L 388.324457 157.136392 
L 386.243848 159.159383 
L 383.935414 161.089882 
L 381.350874 162.958848 
L 378.262228 164.907595 
L 373.683799 167.49754 
L 368.690871 170.388333 
L 365.346413 172.603097 
L 357.394027 178.01987 
L 354.714556 179.476789 
L 352.061331 180.669491 
L 349.312531 181.658155 
L 346.464028 182.442554 
L 343.543082 183.020101 
L 340.432147 183.410182 
L 337.138043 183.597581 
L 333.64906 183.570201 
L 329.951388 183.314915 
L 326.027764 182.817586 
L 321.763013 182.04393 
L 317.18411 180.979076 
L 312.137204 179.569536 
L 306.372936 177.720553 
L 299.157469 175.159746 
L 277.186594 167.198195 
L 271.366099 165.422473 
L 266.313271 164.106616 
L 261.680776 163.125838 
L 257.396792 162.443129 
L 253.378663 162.026219 
L 249.602352 161.856603 
L 246.062287 161.916855 
L 242.703951 162.193845 
L 239.532787 162.676264 
L 236.556889 163.349502 
L 233.727212 164.215137 
L 231.042354 165.270031 
L 228.543836 166.489047 
L 226.178837 167.890797 
L 223.982386 169.449762 
L 221.91106 171.194177 
L 219.997032 173.096715 
L 218.209959 175.1881 
L 216.556042 177.469188 
L 215.045593 179.930176 
L 213.65497 182.620576 
L 212.380331 185.574656 
L 211.223728 188.820774 
L 210.165673 192.46493 
L 209.194866 196.625595 
L 208.261952 201.639388 
L 207.153009 208.95554 
L 205.585694 219.13293 
L 204.587569 224.078947 
L 203.557621 228.087334 
L 202.443615 231.553133 
L 201.213843 234.659895 
L 199.87843 237.436388 
L 198.404051 239.983938 
L 196.816593 242.278211 
L 195.135636 244.322088 
L 193.350443 246.152893 
L 191.430321 247.80828 
L 189.355738 249.296644 
L 187.21662 250.556931 
L 184.942484 251.634052 
L 182.580216 252.500237 
L 180.198002 253.138031 
L 177.792156 253.559025 
L 175.318507 253.768588 
L 172.882609 253.757338 
L 170.385241 253.518108 
L 168.036897 253.071965 
L 165.790817 252.426154 
L 163.685625 251.599913 
L 161.719767 250.599239 
L 159.912001 249.435421 
L 158.280689 248.120121 
L 156.843811 246.665385 
L 155.69908 245.200568 
L 154.751076 243.636488 
L 154.038304 242.0501 
L 153.533083 240.396995 
L 153.244531 238.681671 
L 153.183797 236.935223 
L 153.344317 235.230423 
L 153.728429 233.496283 
L 154.346508 231.741295 
L 155.189773 230.009014 
L 156.278405 228.273324 
L 157.623866 226.541541 
L 159.238265 224.821273 
L 161.150554 223.106806 
L 163.344789 221.432229 
L 165.944291 219.733362 
L 168.917991 218.064458 
L 172.296618 216.430407 
L 176.18074 214.808467 
L 180.601534 213.210818 
L 185.773696 211.586233 
L 192.063612 209.854984 
L 200.749095 207.71651 
L 217.928344 203.527594 
L 224.30677 201.711006 
L 229.504721 200.004469 
L 233.879302 198.342205 
L 237.698839 196.660086 
L 241.07111 194.934472 
L 244.017751 193.17784 
L 246.562823 191.405953 
L 248.782997 189.592172 
L 250.682445 187.75676 
L 252.281129 185.910686 
L 253.627677 184.021349 
L 254.723204 182.10483 
L 255.587283 180.143781 
L 256.215779 178.170026 
L 256.627777 176.144621 
L 256.822069 174.062073 
L 256.795711 171.93691 
L 256.545017 169.746188 
L 256.063941 167.493944 
L 255.337714 165.154919 
L 254.333866 162.684584 
L 253.034145 160.092239 
L 251.406827 157.356308 
L 249.425959 154.467755 
L 247.011532 151.346183 
L 244.064377 147.905477 
L 240.322259 143.891935 
L 235.054402 138.595368 
L 224.225062 127.776072 
L 220.498403 123.687619 
L 217.623173 120.209344 
L 215.335245 117.101511 
L 213.503407 114.251625 
L 212.045901 111.589361 
L 210.902958 109.049671 
L 210.070539 106.680208 
L 209.495873 104.390458 
L 209.172087 102.192078 
L 209.08714 100.142654 
L 209.227386 98.113799 
L 209.585504 96.197777 
L 210.163302 94.350172 
L 210.916995 92.665237 
L 211.893977 91.023773 
L 213.045759 89.514474 
L 214.395602 88.103537 
L 215.981926 86.774358 
L 217.714429 85.612676 
L 219.593646 84.612055 
L 221.707084 83.744168 
L 223.889922 83.087282 
L 226.142062 82.632864 
L 228.407038 82.385336 
L 230.793705 82.34137 
L 233.17616 82.518035 
L 235.449756 82.899364 
L 237.67045 83.488142 
L 239.862908 84.305479 
L 241.80407 85.259011 
L 243.631896 86.399285 
L 245.325093 87.725716 
L 246.813853 89.184549 
L 248.096454 90.760228 
L 249.14912 92.396782 
L 250.030981 94.175731 
L 250.714153 96.055315 
L 251.204772 98.074206 
L 251.484336 100.196934 
L 251.548647 102.398023 
L 251.393035 104.734835 
L 251.002677 107.21108 
L 250.352338 109.868599 
L 249.428337 112.688316 
L 248.182305 115.753829 
L 246.565725 119.115296 
L 244.5112 122.854835 
L 241.825261 127.25826 
L 237.944061 133.155547 
L 230.116165 144.973295 
L 227.413965 149.516052 
L 225.382859 153.356018 
L 223.821864 156.770973 
L 222.633445 159.89049 
L 221.752442 162.819891 
L 221.157978 165.563339 
L 220.822388 168.163274 
L 220.729622 170.631247 
L 220.865136 172.972672 
L 221.212942 175.183547 
L 221.768841 177.306864 
L 222.531999 179.351486 
L 223.506642 181.327165 
L 224.702403 183.242578 
L 226.104626 185.069223 
L 227.752201 186.847036 
L 229.628472 188.54386 
L 231.779259 190.185965 
L 234.215878 191.76094 
L 236.950008 193.258035 
L 240.010598 194.675026 
L 243.423189 196.005099 
L 247.197822 197.23619 
L 251.461019 198.388981 
L 256.255378 199.451249 
L 261.765622 200.439969 
L 268.39938 201.395072 
L 277.331433 202.437897 
L 296.197014 204.584733 
L 302.811888 205.601176 
L 308.230038 206.653367 
L 312.871102 207.774456 
L 317.013823 209.002514 
L 320.643305 210.307932 
L 323.837225 211.687093 
L 326.674676 213.149296 
L 329.189996 214.694303 
L 331.394421 216.312679 
L 333.221475 217.920617 
L 334.793048 219.592862 
L 336.090543 221.29492 
L 337.123073 223.014267 
L 337.900697 224.739953 
L 338.429851 226.447836 
L 338.725081 228.126034 
L 338.800882 229.779497 
L 338.666028 231.398401 
L 338.29988 233.076228 
L 337.714905 234.691827 
L 336.908365 236.256926 
L 335.857594 237.788205 
L 334.678826 239.134633 
L 333.198613 240.482805 
L 331.531404 241.691425 
L 329.693306 242.747435 
L 327.617983 243.670173 
L 325.408551 244.396191 
L 323.072382 244.918002 
L 320.689762 245.217532 
L 318.310554 245.298671 
L 315.870936 245.164246 
L 313.364805 244.798583 
L 310.906765 244.211477 
L 308.44044 243.384424 
L 306.043351 242.335883 
L 303.809787 241.121605 
L 301.607498 239.675095 
L 299.480766 238.012959 
L 297.406599 236.103939 
L 295.467702 234.021051 
L 293.58083 231.669939 
L 291.771402 229.062324 
L 289.982156 226.084282 
L 288.25685 222.776042 
L 286.51929 218.958409 
L 284.669536 214.340976 
L 282.370025 207.952215 
L 277.948675 195.563877 
L 275.966225 190.757707 
L 274.081099 186.758013 
L 272.204107 183.285751 
L 270.293182 180.204512 
L 268.284536 177.383836 
L 266.198351 174.835715 
L 263.999043 172.503156 
L 261.729102 170.41753 
L 259.335534 168.519858 
L 256.827579 166.816776 
L 254.193195 165.300203 
L 251.469869 163.988981 
L 248.602424 162.857103 
L 245.611123 161.918385 
L 242.485712 161.174447 
L 239.272933 160.637825 
L 235.911267 160.301674 
L 232.399155 160.175735 
L 228.741407 160.269316 
L 224.915612 160.592923 
L 220.921617 161.157132 
L 216.724707 161.97806 
L 212.32547 163.066039 
L 207.602469 164.464931 
L 202.459621 166.222685 
L 196.608465 168.463449 
L 189.256661 171.532381 
L 169.099102 180.086215 
L 163.483999 182.145361 
L 158.545132 183.721596 
L 154.085528 184.911506 
L 150.026629 185.769105 
L 146.244521 186.347963 
L 142.689243 186.67418 
L 139.571899 186.765964 
L 139.571899 186.765964 
" clip-path="url(#p725e0c36d6)" style="fill: none; stroke: #000000; stroke-width: 1.5; stroke-linecap: square"/>
   </g>
   <g id="patch_3">
    <path d="M 57.6 307.584 
L 57.6 41.472 
" style="fill: none; stroke: #000000; stroke-width: 0.8; stroke-linejoin: miter; stroke-linecap: square"/>
   </g>
   <g id="patch_4">
    <path d="M 414.72 307.584 
L 414.72 41.472 
" style="fill: none; stroke: #000000; stroke-width: 0.8; stroke-linejoin: miter; stroke-linecap: square"/>
   </g>
   <g id="patch_5">
    <path d="M 57.6 307.584 
L 414.72 307.584 
" style="fill: none; stroke: #000000; stroke-width: 0.8; stroke-linejoin: miter; stroke-linecap: square"/>
   </g>
   <g id="patch_6">
    <path d="M 57.6 41.472 
L 414.72 41.472 
" style="fill: none; stroke: #000000; stroke-width: 0.8; stroke-linejoin: miter; stroke-linecap: square"/>
   </g>
   <g id="legend_1">
    <g id="patch_7">
     <path d="M 326.349688 78.82825 
L 407.72 78.82825 
Q 409.72 78.82825 409.72 76.82825 
L 409.72 48.472 
Q 409.72 46.472 407.72 46.472 
L 326.349688 46.472 
Q 324.349688 46.472 324.349688 48.472 
L 324.349688 76.82825 
Q 324.349688 78.82825 326.349688 78.82825 
z
" style="fill: #ffffff; opacity: 0.8; stroke: #cccccc; stroke-linejoin: miter"/>
    </g>
    <g id="PathCollection_2">
     <g>
      <use xlink:href="#m3f092f92e2" x="338.349688" y="55.445437" style="fill: #0000ff; stroke: #0000ff"/>
     </g>
    </g>
    <g id="text_13">
     <!-- Earth -->
     <g transform="translate(356.349688 58.070437) scale(0.1 -0.1)">
      <defs>
       <path id="DejaVuSans-45" d="M 628 4666 
L 3578 4666 
L 3578 4134 
L 1259 4134 
L 1259 2753 
L 3481 2753 
L 3481 2222 
L 1259 2222 
L 1259 531 
L 3634 531 
L 3634 0 
L 628 0 
L 628 4666 
z
" transform="scale(0.015625)"/>
       <path id="DejaVuSans-61" d="M 2194 1759 
Q 1497 1759 1228 1600 
Q 959 1441 959 1056 
Q 959 750 1161 570 
Q 1363 391 1709 391 
Q 2188 391 2477 730 
Q 2766 1069 2766 1631 
L 2766 1759 
L 2194 1759 
z
M 3341 1997 
L 3341 0 
L 2766 0 
L 2766 531 
Q 2569 213 2275 61 
Q 1981 -91 1556 -91 
Q 1019 -91 701 211 
Q 384 513 384 1019 
Q 384 1609 779 1909 
Q 1175 2209 1959 2209 
L 2766 2209 
L 2766 2266 
Q 2766 2663 2505 2880 
Q 2244 3097 1772 3097 
Q 1472 3097 1187 3025 
Q 903 2953 641 2809 
L 641 3341 
Q 956 3463 1253 3523 
Q 1550 3584 1831 3584 
Q 2591 3584 2966 3190 
Q 3341 2797 3341 1997 
z
" transform="scale(0.015625)"/>
       <path id="DejaVuSans-72" d="M 2631 2963 
Q 2534 3019 2420 3045 
Q 2306 3072 2169 3072 
Q 1681 3072 1420 2755 
Q 1159 2438 1159 1844 
L 1159 0 
L 581 0 
L 581 3500 
L 1159 3500 
L 1159 2956 
Q 1341 3275 1631 3429 
Q 1922 3584 2338 3584 
Q 2397 3584 2469 3576 
Q 2541 3569 2628 3553 
L 2631 2963 
z
" transform="scale(0.015625)"/>
       <path id="DejaVuSans-74" d="M 1172 4494 
L 1172 3500 
L 2356 3500 
L 2356 3053 
L 1172 3053 
L 1172 1153 
Q 1172 725 1289 603 
Q 1406 481 1766 481 
L 2356 481 
L 2356 0 
L 1766 0 
Q 1100 0 847 248 
Q 594 497 594 1153 
L 594 3053 
L 172 3053 
L 172 3500 
L 594 3500 
L 594 4494 
L 1172 4494 
z
" transform="scale(0.015625)"/>
       <path id="DejaVuSans-68" d="M 3513 2113 
L 3513 0 
L 2938 0 
L 2938 2094 
Q 2938 2591 2744 2837 
Q 2550 3084 2163 3084 
Q 1697 3084 1428 2787 
Q 1159 2491 1159 1978 
L 1159 0 
L 581 0 
L 581 4863 
L 1159 4863 
L 1159 2956 
Q 1366 3272 1645 3428 
Q 1925 3584 2291 3584 
Q 2894 3584 3203 3211 
Q 3513 2838 3513 2113 
z
" transform="scale(0.015625)"/>
      </defs>
      <use xlink:href="#DejaVuSans-45"/>
      <use xlink:href="#DejaVuSans-61" x="63.183594"/>
      <use xlink:href="#DejaVuSans-72" x="124.462891"/>
      <use xlink:href="#DejaVuSans-74" x="165.576172"/>
      <use xlink:href="#DejaVuSans-68" x="204.785156"/>
     </g>
    </g>
    <g id="line2d_22">
     <path d="M 328.349688 69.248562 
L 338.349688 69.248562 
L 348.349688 69.248562 
" style="fill: none; stroke: #000000; stroke-width: 1.5; stroke-linecap: square"/>
    </g>
    <g id="text_14">
     <!-- Trajectory -->
     <g transform="translate(356.349688 72.748562) scale(0.1 -0.1)">
      <defs>
       <path id="DejaVuSans-54" d="M -19 4666 
L 3928 4666 
L 3928 4134 
L 2272 4134 
L 2272 0 
L 1638 0 
L 1638 4134 
L -19 4134 
L -19 4666 
z
" transform="scale(0.015625)"/>
       <path id="DejaVuSans-6a" d="M 603 3500 
L 1178 3500 
L 1178 -63 
Q 1178 -731 923 -1031 
Q 669 -1331 103 -1331 
L -116 -1331 
L -116 -844 
L 38 -844 
Q 366 -844 484 -692 
Q 603 -541 603 -63 
L 603 3500 
z
M 603 4863 
L 1178 4863 
L 1178 4134 
L 603 4134 
L 603 4863 
z
" transform="scale(0.015625)"/>
       <path id="DejaVuSans-65" d="M 3597 1894 
L 3597 1613 
L 953 1613 
Q 991 1019 1311 708 
Q 1631 397 2203 397 
Q 2534 397 2845 478 
Q 3156 559 3463 722 
L 3463 178 
Q 3153 47 2828 -22 
Q 2503 -91 2169 -91 
Q 1331 -91 842 396 
Q 353 884 353 1716 
Q 353 2575 817 3079 
Q 1281 3584 2069 3584 
Q 2775 3584 3186 3129 
Q 3597 2675 3597 1894 
z
M 3022 2063 
Q 3016 2534 2758 2815 
Q 2500 3097 2075 3097 
Q 1594 3097 1305 2825 
Q 1016 2553 972 2059 
L 3022 2063 
z
" transform="scale(0.015625)"/>
       <path id="DejaVuSans-63" d="M 3122 3366 
L 3122 2828 
Q 2878 2963 2633 3030 
Q 2388 3097 2138 3097 
Q 1578 3097 1268 2742 
Q 959 2388 959 1747 
Q 959 1106 1268 751 
Q 1578 397 2138 397 
Q 2388 397 2633 464 
Q 2878 531 3122 666 
L 3122 134 
Q 2881 22 2623 -34 
Q 2366 -91 2075 -91 
Q 1284 -91 818 406 
Q 353 903 353 1747 
Q 353 2603 823 3093 
Q 1294 3584 2113 3584 
Q 2378 3584 2631 3529 
Q 2884 3475 3122 3366 
z
" transform="scale(0.015625)"/>
       <path id="DejaVuSans-6f" d="M 1959 3097 
Q 1497 3097 1228 2736 
Q 959 2375 959 1747 
Q 959 1119 1226 758 
Q 1494 397 1959 397 
Q 2419 397 2687 759 
Q 2956 1122 2956 1747 
Q 2956 2369 2687 2733 
Q 2419 3097 1959 3097 
z
M 1959 3584 
Q 2709 3584 3137 3096 
Q 3566 2609 3566 1747 
Q 3566 888 3137 398 
Q 2709 -91 1959 -91 
Q 1206 -91 779 398 
Q 353 888 353 1747 
Q 353 2609 779 3096 
Q 1206 3584 1959 3584 
z
" transform="scale(0.015625)"/>
      </defs>
      <use xlink:href="#DejaVuSans-54"/>
      <use xlink:href="#DejaVuSans-72" x="46.333984"/>
      <use xlink:href="#DejaVuSans-61" x="87.447266"/>
      <use xlink:href="#DejaVuSans-6a" x="148.726562"/>
      <use xlink:href="#DejaVuSans-65" x="176.509766"/>
      <use xlink:href="#DejaVuSans-63" x="238.033203"/>
      <use xlink:href="#DejaVuSans-74" x="293.013672"/>
      <use xlink:href="#DejaVuSans-6f" x="332.222656"/>
      <use xlink:href="#DejaVuSans-72" x="393.404297"/>
      <use xlink:href="#DejaVuSans-79" x="434.517578"/>
     </g>
    </g>
   </g>
  </g>
 </g>
 <defs>
  <clipPath id="p725e0c36d6">
   <rect x="57.6" y="41.472" width="357.12" height="266.112"/>
  </clipPath>
 </defs>
</svg>
