<?xml version="1.0" encoding="utf-8" standalone="no"?>
<!DOCTYPE svg PUBLIC "-//W3C//DTD SVG 1.1//EN"
  "http://www.w3.org/Graphics/SVG/1.1/DTD/svg11.dtd">
<svg xmlns:xlink="http://www.w3.org/1999/xlink" width="460.8pt" height="345.6pt" viewBox="0 0 460.8 345.6" xmlns="http://www.w3.org/2000/svg" version="1.1">
 <metadata>
  <rdf:RDF xmlns:dc="http://purl.org/dc/elements/1.1/" xmlns:cc="http://creativecommons.org/ns#" xmlns:rdf="http://www.w3.org/1999/02/22-rdf-syntax-ns#">
   <cc:Work>
    <dc:type rdf:resource="http://purl.org/dc/dcmitype/StillImage"/>
    <dc:date>2026-02-18T13:44:46.396846</dc:date>
    <dc:format>image/svg+xml</dc:format>
    <dc:creator>
     <cc:Agent>
      <dc:title>Matplotlib v3.6.3, https://matplotlib.org/</dc:title>
     </cc:Agent>
    </dc:creator>
   </cc:Work>
  </rdf:RDF>
 </metadata>
 <defs>
  <style type="text/css">*{stroke-linejoin: round; stroke-linecap: butt}</style>
 </defs>
 <g id="figure_1">
  <g id="patch_1">
   <path d="M 0 345.6 
L 460.8 345.6 
L 460.8 0 
L 0 0 
z
" style="fill: #ffffff"/>
  </g>
  <g id="axes_1">
   <g id="patch_2">
    <path d="M 57.6 307.584 
L 414.72 307.584 
L 414.72 41.472 
L 57.6 41.472 
z
" style="fill: #ffffff"/>
   </g>
   <g id="PathCollection_1">
    <defs>
     <path id="mb7e11f1591" d="M 0 3 
C 0.795609 3 1.55874 2.683901 2.12132 2.12132 
C 2.683901 1.55874 3 0.795609 3 0 
C 3 -0.795609 2.683901 -1.55874 2.12132 -2.12132 
C 1.55874 -2.683901 0.795609 -3 0 -3 
C -0.795609 -3 -1.55874 -2.683901 -2.12132 -2.12132 
C -2.683901 -1.55874 -3 -0.795609 -3 0 
C -3 0.795609 -2.683901 1.55874 -2.12132 2.12132 
C -1.55874 2.683901 -0.795609 3 0 3 
z
" style="stroke: #0000ff"/>
    </defs>
    <g clip-path="url(#p70de209403)">
     <use xlink:href="#mb7e11f1591" x="262.649389" y="179.063919" style="fill: #0000ff; stroke: #0000ff"/>
    </g>
   </g>
   <g id="matplotlib.axis_1">
    <g id="xtick_1">
     <g id="line2d_1">
      <path d="M 57.662644 307.584 
L 57.662644 41.472 
" clip-path="url(#p70de209403)" style="fill: none; stroke: #b0b0b0; stroke-opacity: 0.4; stroke-width: 0.8; stroke-linecap: square"/>
     </g>
     <g id="line2d_2">
      <defs>
       <path id="m9e701c9556" d="M 0 0 
L 0 3.5 
" style="stroke: #000000; stroke-width: 0.8"/>
      </defs>
      <g>
       <use xlink:href="#m9e701c9556" x="57.662644" y="307.584" style="stroke: #000000; stroke-width: 0.8"/>
      </g>
     </g>
     <g id="text_1">
      <!-- −1.5 -->
      <g transform="translate(45.521237 322.182437) scale(0.1 -0.1)">
       <defs>
        <path id="DejaVuSans-2212" d="M 678 2272 
L 4684 2272 
L 4684 1741 
L 678 1741 
L 678 2272 
z
" transform="scale(0.015625)"/>
        <path id="DejaVuSans-31" d="M 794 531 
L 1825 531 
L 1825 4091 
L 703 3866 
L 703 4441 
L 1819 4666 
L 2450 4666 
L 2450 531 
L 3481 531 
L 3481 0 
L 794 0 
L 794 531 
z
" transform="scale(0.015625)"/>
        <path id="DejaVuSans-2e" d="M 684 794 
L 1344 794 
L 1344 0 
L 684 0 
L 684 794 
z
" transform="scale(0.015625)"/>
        <path id="DejaVuSans-35" d="M 691 4666 
L 3169 4666 
L 3169 4134 
L 1269 4134 
L 1269 2991 
Q 1406 3038 1543 3061 
Q 1681 3084 1819 3084 
Q 2600 3084 3056 2656 
Q 3513 2228 3513 1497 
Q 3513 744 3044 326 
Q 2575 -91 1722 -91 
Q 1428 -91 1123 -41 
Q 819 9 494 109 
L 494 744 
Q 775 591 1075 516 
Q 1375 441 1709 441 
Q 2250 441 2565 725 
Q 2881 1009 2881 1497 
Q 2881 1984 2565 2268 
Q 2250 2553 1709 2553 
Q 1456 2553 1204 2497 
Q 953 2441 691 2322 
L 691 4666 
z
" transform="scale(0.015625)"/>
       </defs>
       <use xlink:href="#DejaVuSans-2212"/>
       <use xlink:href="#DejaVuSans-31" x="83.789062"/>
       <use xlink:href="#DejaVuSans-2e" x="147.412109"/>
       <use xlink:href="#DejaVuSans-35" x="179.199219"/>
      </g>
     </g>
    </g>
    <g id="xtick_2">
     <g id="line2d_3">
      <path d="M 125.991559 307.584 
L 125.991559 41.472 
" clip-path="url(#p70de209403)" style="fill: none; stroke: #b0b0b0; stroke-opacity: 0.4; stroke-width: 0.8; stroke-linecap: square"/>
     </g>
     <g id="line2d_4">
      <g>
       <use xlink:href="#m9e701c9556" x="125.991559" y="307.584" style="stroke: #000000; stroke-width: 0.8"/>
      </g>
     </g>
     <g id="text_2">
      <!-- −1.0 -->
      <g transform="translate(113.850153 322.182437) scale(0.1 -0.1)">
       <defs>
        <path id="DejaVuSans-30" d="M 2034 4250 
Q 1547 4250 1301 3770 
Q 1056 3291 1056 2328 
Q 1056 1369 1301 889 
Q 1547 409 2034 409 
Q 2525 409 2770 889 
Q 3016 1369 3016 2328 
Q 3016 3291 2770 3770 
Q 2525 4250 2034 4250 
z
M 2034 4750 
Q 2819 4750 3233 4129 
Q 3647 3509 3647 2328 
Q 3647 1150 3233 529 
Q 2819 -91 2034 -91 
Q 1250 -91 836 529 
Q 422 1150 422 2328 
Q 422 3509 836 4129 
Q 1250 4750 2034 4750 
z
" transform="scale(0.015625)"/>
       </defs>
       <use xlink:href="#DejaVuSans-2212"/>
       <use xlink:href="#DejaVuSans-31" x="83.789062"/>
       <use xlink:href="#DejaVuSans-2e" x="147.412109"/>
       <use xlink:href="#DejaVuSans-30" x="179.199219"/>
      </g>
     </g>
    </g>
    <g id="xtick_3">
     <g id="line2d_5">
      <path d="M 194.320474 307.584 
L 194.320474 41.472 
" clip-path="url(#p70de209403)" style="fill: none; stroke: #b0b0b0; stroke-opacity: 0.4; stroke-width: 0.8; stroke-linecap: square"/>
     </g>
     <g id="line2d_6">
      <g>
       <use xlink:href="#m9e701c9556" x="194.320474" y="307.584" style="stroke: #000000; stroke-width: 0.8"/>
      </g>
     </g>
     <g id="text_3">
      <!-- −0.5 -->
      <g transform="translate(182.179068 322.182437) scale(0.1 -0.1)">
       <use xlink:href="#DejaVuSans-2212"/>
       <use xlink:href="#DejaVuSans-30" x="83.789062"/>
       <use xlink:href="#DejaVuSans-2e" x="147.412109"/>
       <use xlink:href="#DejaVuSans-35" x="179.199219"/>
      </g>
     </g>
    </g>
    <g id="xtick_4">
     <g id="line2d_7">
      <path d="M 262.649389 307.584 
L 262.649389 41.472 
" clip-path="url(#p70de209403)" style="fill: none; stroke: #b0b0b0; stroke-opacity: 0.4; stroke-width: 0.8; stroke-linecap: square"/>
     </g>
     <g id="line2d_8">
      <g>
       <use xlink:href="#m9e701c9556" x="262.649389" y="307.584" style="stroke: #000000; stroke-width: 0.8"/>
      </g>
     </g>
     <g id="text_4">
      <!-- 0.0 -->
      <g transform="translate(254.697827 322.182437) scale(0.1 -0.1)">
       <use xlink:href="#DejaVuSans-30"/>
       <use xlink:href="#DejaVuSans-2e" x="63.623047"/>
       <use xlink:href="#DejaVuSans-30" x="95.410156"/>
      </g>
     </g>
    </g>
    <g id="xtick_5">
     <g id="line2d_9">
      <path d="M 330.978305 307.584 
L 330.978305 41.472 
" clip-path="url(#p70de209403)" style="fill: none; stroke: #b0b0b0; stroke-opacity: 0.4; stroke-width: 0.8; stroke-linecap: square"/>
     </g>
     <g id="line2d_10">
      <g>
       <use xlink:href="#m9e701c9556" x="330.978305" y="307.584" style="stroke: #000000; stroke-width: 0.8"/>
      </g>
     </g>
     <g id="text_5">
      <!-- 0.5 -->
      <g transform="translate(323.026742 322.182437) scale(0.1 -0.1)">
       <use xlink:href="#DejaVuSans-30"/>
       <use xlink:href="#DejaVuSans-2e" x="63.623047"/>
       <use xlink:href="#DejaVuSans-35" x="95.410156"/>
      </g>
     </g>
    </g>
    <g id="xtick_6">
     <g id="line2d_11">
      <path d="M 399.30722 307.584 
L 399.30722 41.472 
" clip-path="url(#p70de209403)" style="fill: none; stroke: #b0b0b0; stroke-opacity: 0.4; stroke-width: 0.8; stroke-linecap: square"/>
     </g>
     <g id="line2d_12">
      <g>
       <use xlink:href="#m9e701c9556" x="399.30722" y="307.584" style="stroke: #000000; stroke-width: 0.8"/>
      </g>
     </g>
     <g id="text_6">
      <!-- 1.0 -->
      <g transform="translate(391.355657 322.182437) scale(0.1 -0.1)">
       <use xlink:href="#DejaVuSans-31"/>
       <use xlink:href="#DejaVuSans-2e" x="63.623047"/>
       <use xlink:href="#DejaVuSans-30" x="95.410156"/>
      </g>
     </g>
    </g>
    <g id="text_7">
     <!-- x -->
     <g transform="translate(233.200625 335.860562) scale(0.1 -0.1)">
      <defs>
       <path id="DejaVuSans-78" d="M 3513 3500 
L 2247 1797 
L 3578 0 
L 2900 0 
L 1881 1375 
L 863 0 
L 184 0 
L 1544 1831 
L 300 3500 
L 978 3500 
L 1906 2253 
L 2834 3500 
L 3513 3500 
z
" transform="scale(0.015625)"/>
      </defs>
      <use xlink:href="#DejaVuSans-78"/>
     </g>
    </g>
   </g>
   <g id="matplotlib.axis_2">
    <g id="ytick_1">
     <g id="line2d_13">
      <path d="M 57.6 281.003807 
L 414.72 281.003807 
" clip-path="url(#p70de209403)" style="fill: none; stroke: #b0b0b0; stroke-opacity: 0.4; stroke-width: 0.8; stroke-linecap: square"/>
     </g>
     <g id="line2d_14">
      <defs>
       <path id="m93d55f4bcf" d="M 0 0 
L -3.5 0 
" style="stroke: #000000; stroke-width: 0.8"/>
      </defs>
      <g>
       <use xlink:href="#m93d55f4bcf" x="57.6" y="281.003807" style="stroke: #000000; stroke-width: 0.8"/>
      </g>
     </g>
     <g id="text_8">
      <!-- −1.0 -->
      <g transform="translate(26.317187 284.803026) scale(0.1 -0.1)">
       <use xlink:href="#DejaVuSans-2212"/>
       <use xlink:href="#DejaVuSans-31" x="83.789062"/>
       <use xlink:href="#DejaVuSans-2e" x="147.412109"/>
       <use xlink:href="#DejaVuSans-30" x="179.199219"/>
      </g>
     </g>
    </g>
    <g id="ytick_2">
     <g id="line2d_15">
      <path d="M 57.6 230.033863 
L 414.72 230.033863 
" clip-path="url(#p70de209403)" style="fill: none; stroke: #b0b0b0; stroke-opacity: 0.4; stroke-width: 0.8; stroke-linecap: square"/>
     </g>
     <g id="line2d_16">
      <g>
       <use xlink:href="#m93d55f4bcf" x="57.6" y="230.033863" style="stroke: #000000; stroke-width: 0.8"/>
      </g>
     </g>
     <g id="text_9">
      <!-- −0.5 -->
      <g transform="translate(26.317187 233.833082) scale(0.1 -0.1)">
       <use xlink:href="#DejaVuSans-2212"/>
       <use xlink:href="#DejaVuSans-30" x="83.789062"/>
       <use xlink:href="#DejaVuSans-2e" x="147.412109"/>
       <use xlink:href="#DejaVuSans-35" x="179.199219"/>
      </g>
     </g>
    </g>
    <g id="ytick_3">
     <g id="line2d_17">
      <path d="M 57.6 179.063919 
L 414.72 179.063919 
" clip-path="url(#p70de209403)" style="fill: none; stroke: #b0b0b0; stroke-opacity: 0.4; stroke-width: 0.8; stroke-linecap: square"/>
     </g>
     <g id="line2d_18">
      <g>
       <use xlink:href="#m93d55f4bcf" x="57.6" y="179.063919" style="stroke: #000000; stroke-width: 0.8"/>
      </g>
     </g>
     <g id="text_10">
      <!-- 0.0 -->
      <g transform="translate(34.696875 182.863138) scale(0.1 -0.1)">
       <use xlink:href="#DejaVuSans-30"/>
       <use xlink:href="#DejaVuSans-2e" x="63.623047"/>
       <use xlink:href="#DejaVuSans-30" x="95.410156"/>
      </g>
     </g>
    </g>
    <g id="ytick_4">
     <g id="line2d_19">
      <path d="M 57.6 128.093975 
L 414.72 128.093975 
" clip-path="url(#p70de209403)" style="fill: none; stroke: #b0b0b0; stroke-opacity: 0.4; stroke-width: 0.8; stroke-linecap: square"/>
     </g>
     <g id="line2d_20">
      <g>
       <use xlink:href="#m93d55f4bcf" x="57.6" y="128.093975" style="stroke: #000000; stroke-width: 0.8"/>
      </g>
     </g>
     <g id="text_11">
      <!-- 0.5 -->
      <g transform="translate(34.696875 131.893193) scale(0.1 -0.1)">
       <use xlink:href="#DejaVuSans-30"/>
       <use xlink:href="#DejaVuSans-2e" x="63.623047"/>
       <use xlink:href="#DejaVuSans-35" x="95.410156"/>
      </g>
     </g>
    </g>
    <g id="ytick_5">
     <g id="line2d_21">
      <path d="M 57.6 77.124031 
L 414.72 77.124031 
" clip-path="url(#p70de209403)" style="fill: none; stroke: #b0b0b0; stroke-opacity: 0.4; stroke-width: 0.8; stroke-linecap: square"/>
     </g>
     <g id="line2d_22">
      <g>
       <use xlink:href="#m93d55f4bcf" x="57.6" y="77.124031" style="stroke: #000000; stroke-width: 0.8"/>
      </g>
     </g>
     <g id="text_12">
      <!-- 1.0 -->
      <g transform="translate(34.696875 80.923249) scale(0.1 -0.1)">
       <use xlink:href="#DejaVuSans-31"/>
       <use xlink:href="#DejaVuSans-2e" x="63.623047"/>
       <use xlink:href="#DejaVuSans-30" x="95.410156"/>
      </g>
     </g>
    </g>
    <g id="text_13">
     <!-- y -->
     <g transform="translate(20.2375 177.487375) rotate(-90) scale(0.1 -0.1)">
      <defs>
       <path id="DejaVuSans-79" d="M 2059 -325 
Q 1816 -950 1584 -1140 
Q 1353 -1331 966 -1331 
L 506 -1331 
L 506 -850 
L 844 -850 
Q 1081 -850 1212 -737 
Q 1344 -625 1503 -206 
L 1606 56 
L 191 3500 
L 800 3500 
L 1894 763 
L 2988 3500 
L 3597 3500 
L 2059 -325 
z
" transform="scale(0.015625)"/>
      </defs>
      <use xlink:href="#DejaVuSans-79"/>
     </g>
    </g>
   </g>
   <g id="line2d_23">
    <path d="M 398.487273 179.063919 
L 398.375608 179.528533 
L 398.020815 180.014995 
L 397.333927 180.562305 
L 396.184512 181.181434 
L 394.50743 181.829953 
L 392.291942 182.447092 
L 389.63191 182.947484 
L 386.834176 183.246235 
L 383.88104 183.335882 
L 380.75794 183.194129 
L 377.70688 182.83054 
L 374.552353 182.228824 
L 371.436067 181.417079 
L 367.920062 180.253573 
L 364.723232 178.981035 
L 360.689721 177.10824 
L 356.570072 174.924273 
L 351.732447 172.073734 
L 346.162978 168.51667 
L 336.156634 161.796694 
L 327.114543 155.826653 
L 320.794748 151.901166 
L 315.096211 148.598756 
L 309.281548 145.486226 
L 303.386396 142.604997 
L 297.429054 139.972585 
L 291.411383 137.589711 
L 285.323991 135.44801 
L 279.150559 133.535093 
L 272.871453 131.83737 
L 266.468034 130.341461 
L 259.927478 129.034229 
L 252.255503 127.748961 
L 244.417993 126.665998 
L 234.559965 125.548015 
L 205.461125 122.454797 
L 199.421271 121.485709 
L 194.467019 120.470793 
L 190.526701 119.464315 
L 186.788432 118.288278 
L 183.285798 116.923076 
L 180.678238 115.683706 
L 178.265488 114.306603 
L 176.068422 112.787737 
L 174.108071 111.125555 
L 172.405146 109.321196 
L 171.308914 107.876884 
L 170.376675 106.357458 
L 169.615899 104.766494 
L 169.033476 103.108406 
L 168.635652 101.388386 
L 168.427977 99.612335 
L 168.415278 97.786786 
L 168.603288 95.908122 
L 169.000546 93.976928 
L 169.615035 92.001861 
L 170.45361 89.992606 
L 171.521851 87.959849 
L 172.823912 85.91521 
L 174.362364 83.871177 
L 176.137996 81.841056 
L 178.149561 79.838931 
L 180.393444 77.879615 
L 182.863255 75.978564 
L 185.549379 74.151728 
L 188.438547 72.415274 
L 191.513581 70.785166 
L 194.753448 69.276581 
L 198.133757 67.903239 
L 201.627698 66.676755 
L 205.207255 65.606171 
L 208.84444 64.697755 
L 213.737283 63.744643 
L 218.625622 63.087993 
L 223.456455 62.723967 
L 228.182836 62.64441 
L 232.764433 62.838206 
L 237.163323 63.292098 
L 241.343542 63.990671 
L 245.273586 64.916843 
L 248.925814 66.052239 
L 252.276182 67.377429 
L 255.304258 68.872113 
L 257.993425 70.515321 
L 259.780218 71.832343 
L 261.365634 73.211826 
L 262.74753 74.644785 
L 263.925409 76.122583 
L 264.900272 77.636987 
L 265.674268 79.179667 
L 266.25113 80.742849 
L 266.636022 82.319414 
L 266.835347 83.902946 
L 266.856566 85.487765 
L 266.706606 87.078474 
L 266.24757 89.213824 
L 265.502765 91.358118 
L 264.485799 93.504827 
L 263.212242 95.649288 
L 261.699076 97.788712 
L 259.497921 100.454566 
L 256.986042 103.112792 
L 253.611745 106.300177 
L 249.901112 109.498817 
L 244.529659 113.813979 
L 232.857573 122.780077 
L 225.421158 128.648134 
L 219.692565 133.440473 
L 214.948194 137.678734 
L 210.488551 141.955976 
L 206.31772 146.279844 
L 202.425855 150.662424 
L 198.796099 155.117749 
L 195.407534 159.661062 
L 192.236521 164.308045 
L 189.25743 169.072722 
L 186.443228 173.962618 
L 183.393084 179.693398 
L 179.392859 187.749585 
L 173.693267 199.237797 
L 171.094331 203.944771 
L 168.733266 207.755079 
L 166.634506 210.744869 
L 164.388728 213.542484 
L 162.470934 215.626194 
L 160.434972 217.558644 
L 158.273539 219.326363 
L 155.981929 220.915644 
L 153.558345 222.312843 
L 151.004161 223.504707 
L 148.324079 224.47874 
L 145.526177 225.223563 
L 142.621813 225.729258 
L 139.625386 225.987669 
L 136.552626 225.99256 
L 133.387591 225.735219 
L 130.135237 225.201389 
L 126.819315 224.378304 
L 123.467328 223.255772 
L 120.110145 221.826556 
L 117.609072 220.550876 
L 115.139194 219.10004 
L 112.716326 217.474916 
L 110.356805 215.67768 
L 108.077363 213.71193 
L 105.894966 211.582807 
L 103.826629 209.297135 
L 101.889169 206.863551 
L 100.098899 204.292594 
L 98.471255 201.596738 
L 97.020372 198.790293 
L 95.758652 195.889188 
L 94.696365 192.910601 
L 93.84136 189.872492 
L 93.198917 186.793084 
L 92.771753 183.690378 
L 92.560173 180.581743 
L 92.562317 177.483505 
L 92.777001 174.386636 
L 93.205809 171.295 
L 93.848726 168.225295 
L 94.703492 165.194893 
L 95.76543 162.221517 
L 97.027371 159.322832 
L 98.479725 156.515975 
L 100.110693 153.817089 
L 101.906597 151.24092 
L 103.852287 148.800521 
L 105.931561 146.507093 
L 108.127568 144.369932 
L 110.423143 142.396487 
L 112.801086 140.592455 
L 115.244388 138.961914 
L 117.736393 137.507449 
L 120.260957 136.230267 
L 123.65098 134.802835 
L 127.036773 133.686883 
L 130.386619 132.875539 
L 133.67219 132.358821 
L 136.868967 132.124022 
L 139.959775 132.156322 
L 142.965513 132.444948 
L 145.878896 132.983771 
L 148.685461 133.764986 
L 151.373764 134.778997 
L 153.935652 136.01469 
L 156.366387 137.459765 
L 158.664626 139.101081 
L 160.832267 140.925004 
L 162.874201 142.917719 
L 164.797998 145.065507 
L 167.051862 147.94795 
L 169.160172 151.026752 
L 171.536131 154.947353 
L 174.159877 159.784216 
L 177.423161 166.320682 
L 184.082353 179.76668 
L 187.234899 185.580054 
L 190.145594 190.518679 
L 193.224146 195.311648 
L 196.494406 199.968463 
L 199.978607 204.504807 
L 203.696497 208.937531 
L 207.664594 213.282827 
L 211.89503 217.555846 
L 216.392985 221.770344 
L 221.150322 225.936501 
L 226.859139 230.639508 
L 234.216601 236.393919 
L 248.303548 247.316219 
L 252.679566 251.000075 
L 256.094373 254.138073 
L 258.661613 256.752284 
L 260.940621 259.373289 
L 262.897519 262.004764 
L 264.208311 264.11756 
L 265.274377 266.235124 
L 266.079832 268.353682 
L 266.610305 270.467602 
L 266.853492 272.569429 
L 266.841375 274.132824 
L 266.656944 275.691975 
L 266.292701 277.246413 
L 265.741845 278.790051 
L 264.998689 280.316094 
L 264.058835 281.817075 
L 262.91936 283.284917 
L 261.578921 284.711079 
L 260.037271 286.087135 
L 258.295818 287.404197 
L 256.357559 288.653175 
L 253.475018 290.196837 
L 250.265194 291.581938 
L 246.746665 292.787715 
L 242.941806 293.794243 
L 238.876599 294.582644 
L 234.580646 295.135294 
L 230.08744 295.436089 
L 225.434974 295.470875 
L 220.6626 295.227844 
L 215.812809 294.697585 
L 210.93427 293.874088 
L 207.28899 293.063035 
L 203.683021 292.087875 
L 200.142868 290.952644 
L 196.695941 289.663999 
L 193.369638 288.231307 
L 190.190198 286.66647 
L 187.181534 284.983481 
L 184.364299 283.197801 
L 181.755355 281.325675 
L 179.367671 279.383546 
L 177.210545 277.387611 
L 175.290017 275.353534 
L 173.609314 273.296284 
L 172.169261 271.230051 
L 170.968625 269.168201 
L 170.004371 267.123234 
L 169.271867 265.10674 
L 168.765046 263.129336 
L 168.476552 261.200584 
L 168.397901 259.328975 
L 168.520283 257.516517 
L 168.838048 255.757633 
L 169.346149 254.05825 
L 170.038859 252.423963 
L 170.909794 250.859639 
L 171.951969 249.369357 
L 173.15786 247.956347 
L 175.006528 246.196476 
L 177.112116 244.581166 
L 179.453987 243.110728 
L 182.011183 241.782804 
L 184.762849 240.59258 
L 188.444997 239.287595 
L 192.361653 238.169045 
L 196.478472 237.215851 
L 201.640668 236.257267 
L 207.915571 235.34031 
L 216.304298 234.375008 
L 246.926233 231.137345 
L 254.87147 229.968145 
L 261.659527 228.767676 
L 268.261619 227.39 
L 274.703246 225.819799 
L 280.998526 224.046383 
L 287.16711 222.058957 
L 293.22937 219.846775 
L 299.202401 217.400587 
L 305.097167 214.715241 
L 310.915041 211.794205 
L 316.642884 208.656754 
L 322.250702 205.345298 
L 328.46657 201.43045 
L 336.634573 196.008757 
L 349.264131 187.601572 
L 354.735692 184.252131 
L 358.824661 181.977023 
L 362.887244 179.964097 
L 366.842602 178.281065 
L 370.54232 176.982161 
L 373.868609 176.058921 
L 377.246598 175.370978 
L 380.503303 174.955657 
L 383.514812 174.796218 
L 386.443253 174.856814 
L 389.283373 175.131113 
L 392.033664 175.62179 
L 394.415277 176.267641 
L 396.309209 177.004191 
L 397.530684 177.69987 
L 398.198131 178.315667 
L 398.459963 178.834246 
L 398.457746 179.302733 
L 398.228376 179.771861 
L 397.717596 180.286865 
L 396.801405 180.876456 
L 395.336704 181.535113 
L 393.298383 182.193156 
L 390.821248 182.751979 
L 388.060385 183.141992 
L 385.209533 183.323151 
L 382.09898 183.284066 
L 378.925017 183.001874 
L 375.975856 182.528269 
L 373.057081 181.86575 
L 369.741456 180.888225 
L 366.042055 179.529823 
L 362.741121 178.096112 
L 358.652143 176.059553 
L 354.516801 173.747787 
L 349.668214 170.783144 
L 343.365227 166.659365 
L 325.575674 154.847889 
L 319.201075 150.953492 
L 313.46552 147.699033 
L 307.625195 144.648681 
L 301.711443 141.836775 
L 295.737472 139.275214 
L 289.70145 136.961482 
L 283.591645 134.885679 
L 277.390433 133.034864 
L 271.077961 131.395414 
L 264.636913 129.954111 
L 258.05303 128.697005 
L 250.332275 127.463682 
L 241.482737 126.30925 
L 230.670355 125.15629 
L 209.041963 122.931002 
L 201.999863 121.92946 
L 196.936406 121.006547 
L 192.09986 119.891151 
L 188.275951 118.786299 
L 184.673592 117.499873 
L 181.975193 116.327976 
L 179.461245 115.021246 
L 177.152365 113.574499 
L 175.069563 111.984898 
L 173.233773 110.252198 
L 172.031324 108.860169 
L 170.987544 107.391103 
L 170.110243 105.847991 
L 169.406712 104.234686 
L 168.883638 102.555863 
L 168.547045 100.816951 
L 168.402249 99.024067 
L 168.453967 97.18239 
L 168.709052 95.285769 
L 169.176096 93.339313 
L 169.862728 91.352022 
L 170.775408 89.333908 
L 171.919268 87.295972 
L 173.297966 85.25012 
L 174.913517 83.209111 
L 176.766081 81.186508 
L 178.853681 79.196639 
L 181.171848 77.254538 
L 183.713194 75.375844 
L 186.466957 73.576612 
L 189.418616 71.872998 
L 192.549712 70.280782 
L 195.838044 68.814741 
L 199.258313 67.487978 
L 202.783178 66.311309 
L 206.384504 65.292883 
L 210.034542 64.438074 
L 214.931515 63.557298 
L 219.810477 62.972528 
L 224.619965 62.678736 
L 229.314451 62.666925 
L 233.855096 62.925437 
L 238.20381 63.440471 
L 242.32579 64.196157 
L 246.190517 65.175071 
L 249.771237 66.358562 
L 253.044779 67.726973 
L 255.991614 69.259817 
L 258.596104 70.936 
L 260.317768 72.274317 
L 261.837194 73.672161 
L 263.15273 75.120594 
L 264.26448 76.611224 
L 265.173738 78.135709 
L 265.883175 79.685875 
L 266.397008 81.254155 
L 266.720826 82.833653 
L 266.861395 84.418191 
L 266.826388 86.003516 
L 266.516419 88.131275 
L 265.91472 90.271973 
L 265.033691 92.418161 
L 263.887977 94.564225 
L 262.493916 96.706433 
L 260.868984 98.842899 
L 258.540799 101.505332 
L 255.916029 104.161806 
L 252.424524 107.351038 
L 247.954258 111.094755 
L 241.717897 115.992967 
L 225.439376 128.633346 
L 219.7099 133.425485 
L 214.964552 137.663612 
L 210.503879 141.940706 
L 206.332034 146.264389 
L 202.439204 150.646736 
L 198.808552 155.101776 
L 195.419171 159.644749 
L 192.24743 164.291336 
L 189.267704 169.055576 
L 186.452965 173.945028 
L 183.40233 179.675391 
L 179.401739 187.731301 
L 173.702288 199.220635 
L 171.10382 203.928518 
L 168.743378 207.739765 
L 166.645287 210.730454 
L 164.4003 213.529082 
L 162.483213 215.613692 
L 160.44801 217.547123 
L 158.287375 219.315909 
L 155.996582 220.906342 
L 153.573818 222.304776 
L 151.020435 223.497956 
L 148.341114 224.47338 
L 145.543913 225.21966 
L 142.640169 225.726869 
L 139.644265 225.986839 
L 136.571993 225.993324 
L 133.407567 225.737658 
L 130.155687 225.205589 
L 126.840079 224.384337 
L 123.488224 223.263693 
L 120.130972 221.836401 
L 117.629705 220.562174 
L 115.159504 219.112788 
L 112.736179 217.489102 
L 110.376065 215.693281 
L 108.095889 213.728909 
L 105.912618 211.601115 
L 103.843265 209.316709 
L 101.904652 206.88431 
L 100.113096 204.314444 
L 98.484043 201.619567 
L 97.031641 198.813976 
L 95.768307 195.913586 
L 94.70433 192.935569 
L 93.847581 189.897878 
L 93.203361 186.818739 
L 92.774407 183.716153 
L 92.561044 180.607499 
L 92.561425 177.50921 
L 92.774337 174.412365 
L 93.201363 171.320617 
L 93.842506 168.250659 
L 94.695528 165.219858 
L 95.755771 162.245935 
L 97.016087 159.346558 
L 98.466905 156.53887 
L 100.096443 153.839024 
L 101.891037 151.261778 
L 103.835548 148.820203 
L 105.913782 146.525512 
L 108.108889 144.387021 
L 110.403707 142.412189 
L 112.781038 140.606731 
L 115.223865 138.974736 
L 117.715533 137.518801 
L 120.239891 136.240144 
L 123.629835 134.810758 
L 127.015756 133.692883 
L 130.365918 132.879668 
L 133.651969 132.361151 
L 136.849367 132.124639 
L 139.940814 132.15532 
L 142.947076 132.442369 
L 145.861082 132.979656 
L 148.66835 133.75939 
L 151.357418 134.771985 
L 153.920111 136.006336 
L 156.35167 137.450148 
L 158.650731 139.090284 
L 160.819172 140.913113 
L 162.861868 142.904821 
L 164.786371 145.051685 
L 167.041022 147.933089 
L 169.149993 151.010973 
L 171.526557 154.930623 
L 174.150738 159.766577 
L 177.414175 166.302233 
L 184.072795 179.748346 
L 187.224817 185.562227 
L 190.134958 190.501372 
L 193.212869 195.294848 
L 196.482407 199.952122 
L 199.96581 204.488865 
L 203.682837 208.921927 
L 207.650019 213.267508 
L 211.879508 217.540759 
L 216.376515 221.755443 
L 221.132969 225.921762 
L 226.841019 230.624984 
L 234.19824 236.37982 
L 248.287319 247.303038 
L 252.664703 250.987031 
L 256.08092 254.125062 
L 258.649512 256.739254 
L 260.930038 259.360214 
L 262.888624 261.991633 
L 264.200887 264.104392 
L 265.268526 266.221936 
L 266.07565 268.340503 
L 266.607875 270.454473 
L 266.852883 272.556403 
L 266.84217 274.119867 
L 266.659201 275.679034 
L 266.296481 277.233534 
L 265.747201 278.777289 
L 265.005662 280.303508 
L 264.067456 281.80473 
L 262.929647 283.272882 
L 261.59088 284.699426 
L 260.050898 286.075934 
L 258.311094 287.393523 
L 256.374454 288.643104 
L 253.494002 290.187688 
L 250.286163 291.573842 
L 246.769492 292.780799 
L 242.96634 293.788627 
L 238.902668 294.578443 
L 234.608053 295.132613 
L 230.115963 295.435024 
L 225.464361 295.471506 
L 220.692612 295.230238 
L 215.843158 294.701791 
L 210.964636 293.88013 
L 207.319137 293.07045 
L 203.712734 292.09664 
L 200.171922 290.962715 
L 196.724106 289.67531 
L 193.396691 288.243768 
L 190.215928 286.679973 
L 187.205755 284.997904 
L 184.386856 283.21301 
L 181.776123 281.341534 
L 179.386558 279.39992 
L 177.227488 277.404366 
L 175.304978 275.370543 
L 173.622276 273.313425 
L 172.180227 271.247211 
L 170.977612 269.185272 
L 170.011411 267.140116 
L 169.277006 265.12334 
L 168.768339 263.14557 
L 168.478065 261.216378 
L 168.397708 259.344262 
L 168.51845 257.531339 
L 168.834614 255.771987 
L 169.341159 254.072086 
L 170.032362 252.437238 
L 170.901847 250.872316 
L 171.942632 249.381405 
L 173.147196 247.967743 
L 174.994202 246.20698 
L 177.098254 244.590766 
L 179.43872 243.119431 
L 181.994641 241.790633 
L 184.74516 240.599571 
L 188.426049 239.293611 
L 192.341626 238.174182 
L 196.457527 237.220222 
L 201.618803 236.260877 
L 207.892831 235.343259 
L 216.280661 234.37746 
L 246.901298 231.140665 
L 254.84701 229.972111 
L 261.63572 228.772251 
L 268.238426 227.395234 
L 274.680602 225.825738 
L 280.976369 224.053065 
L 287.145367 222.066419 
L 293.207972 219.855054 
L 299.181298 217.409712 
L 305.076333 214.725217 
L 310.894493 211.804998 
L 316.622701 208.668256 
L 322.231013 205.357316 
L 328.447583 201.442746 
L 336.616556 196.020919 
L 349.247038 187.612471 
L 354.718706 184.262042 
L 358.807722 181.985969 
L 362.870522 179.971823 
L 366.826607 178.287281 
L 370.527691 176.98675 
L 373.855638 176.06206 
L 377.2355 175.37282 
L 380.494069 174.956488 
L 383.507316 174.796346 
L 386.437399 174.856479 
L 389.279028 175.130527 
L 392.030689 175.62113 
L 394.4134 176.267034 
L 396.308134 177.003689 
L 397.5301 177.699456 
L 398.197852 178.31531 
L 398.459887 178.833943 
L 398.457817 179.302432 
L 398.22863 179.771507 
L 397.718088 180.286467 
L 396.802262 180.875989 
L 395.338151 181.534552 
L 393.300712 182.192513 
L 390.824734 182.751331 
L 388.06525 183.141485 
L 385.215905 183.322969 
L 382.107085 183.284463 
L 378.934926 183.00311 
L 375.98744 182.530501 
L 373.070294 181.869154 
L 369.756382 180.893125 
L 366.058457 179.536418 
L 362.758271 178.104046 
L 358.669647 176.068808 
L 354.534404 173.758069 
L 349.685922 170.794343 
L 343.383249 166.671394 
L 325.595612 154.860447 
L 319.221702 150.965605 
L 313.486601 147.710495 
L 307.64659 144.659322 
L 301.73307 141.846514 
L 295.759314 139.284039 
L 289.723533 136.969418 
L 283.614024 134.89277 
L 277.41318 133.041158 
L 271.101145 131.400961 
L 264.660584 129.958957 
L 258.077277 128.701211 
L 250.35712 127.46722 
L 241.507861 126.312139 
L 230.695158 125.158654 
L 209.064833 122.933752 
L 202.021773 121.932901 
L 196.957444 121.010707 
L 192.119852 119.8962 
L 188.294909 118.79221 
L 184.691344 117.506745 
L 181.991846 116.335677 
L 179.47667 115.029814 
L 177.166431 113.58396 
L 175.082138 111.995263 
L 173.244726 110.26346 
L 172.040978 108.872088 
L 170.995831 107.403659 
L 170.117099 105.861155 
L 169.412079 104.248423 
L 168.887462 102.570129 
L 168.549278 100.831699 
L 168.402849 99.039242 
L 168.452894 97.197984 
L 168.706235 95.301818 
L 169.171465 93.355745 
L 169.856223 91.368759 
L 170.766981 89.350861 
L 171.908882 87.313044 
L 173.285596 85.267208 
L 174.899154 83.226104 
L 176.749732 81.203289 
L 178.835372 79.213084 
L 181.151628 77.270519 
L 183.691139 75.391226 
L 186.443173 73.591259 
L 189.393241 71.886776 
L 192.522918 70.293561 
L 195.810032 68.826403 
L 199.229306 67.498421 
L 202.753411 66.320453 
L 206.354214 65.30067 
L 210.003959 64.444471 
L 214.900873 63.561823 
L 219.780122 62.975198 
L 224.590202 62.679596 
L 229.285546 62.666041 
L 233.827288 62.922889 
L 238.177333 63.436353 
L 242.30085 64.190575 
L 246.167295 65.168139 
L 249.749891 66.350401 
L 253.025443 67.717708 
L 255.974401 69.249582 
L 258.581098 70.924928 
L 260.304458 72.262706 
L 261.825599 73.660088 
L 263.142858 75.108133 
L 264.256323 76.598442 
L 265.167281 78.122678 
L 265.878388 79.672661 
L 266.393849 81.240818 
L 266.719242 82.820248 
L 266.861325 84.404767 
L 266.827767 85.990067 
L 266.519675 88.117717 
L 265.919783 90.258357 
L 265.040473 92.404528 
L 263.89638 94.550604 
L 262.503831 96.692841 
L 260.880298 98.829344 
L 258.553697 101.491812 
L 255.93033 104.148298 
L 252.440275 107.337488 
L 247.97139 111.081058 
L 241.736324 115.978906 
L 225.458135 128.618163 
L 219.727736 133.410084 
L 214.981371 137.648062 
L 210.519626 141.924995 
L 206.346725 146.248478 
L 202.452889 150.63058 
L 198.821299 155.085322 
L 195.431059 159.627941 
L 192.258548 164.27412 
L 189.278147 169.03791 
L 186.462831 173.926905 
L 183.411659 179.656837 
L 179.410643 187.712453 
L 173.711253 199.202906 
L 171.113226 203.911703 
L 168.753389 207.723894 
L 166.655954 210.715485 
L 164.411747 213.515132 
L 162.495361 215.600644 
L 160.460914 217.535062 
L 158.301074 219.304918 
L 156.011098 220.896508 
L 153.589154 222.296183 
L 151.036574 223.490686 
L 148.358017 224.467507 
L 145.561521 225.215252 
L 142.658402 225.723982 
L 139.663025 225.985518 
L 136.591249 225.993607 
L 133.42744 225.739624 
L 130.176041 225.209326 
L 126.860756 224.389917 
L 123.509041 223.271171 
L 120.151727 221.845813 
L 117.650271 220.573046 
L 115.179752 219.12512 
L 112.755975 217.50288 
L 110.395271 215.708482 
L 108.114364 213.745497 
L 105.93022 211.61904 
L 103.859854 209.335908 
L 101.920088 206.904702 
L 100.127246 204.335934 
L 98.496783 201.642043 
L 97.04286 198.837311 
L 95.777908 195.937642 
L 94.712237 192.960198 
L 93.853739 189.922928 
L 93.207736 186.844057 
L 92.776988 183.741592 
L 92.561835 180.632916 
L 92.56045 177.534502 
L 92.771587 174.437674 
L 93.196831 171.345807 
L 93.836202 168.275587 
L 94.68748 165.244376 
L 95.746029 162.269895 
L 97.004722 159.369813 
L 98.454006 156.561282 
L 100.082118 153.860462 
L 101.875407 151.282128 
L 103.818744 148.839361 
L 105.895943 146.543394 
L 108.090158 144.403556 
L 110.384227 142.427324 
L 112.760951 140.620425 
L 115.203314 138.986961 
L 117.694654 137.529541 
L 120.218815 136.249395 
L 123.608693 134.818034 
L 126.994756 133.698217 
L 130.345246 132.883114 
L 133.631792 132.362781 
L 136.829825 132.12454 
L 139.92194 132.153587 
L 142.928734 132.439045 
L 145.84337 132.974785 
L 148.651349 133.753026 
L 151.341186 134.764194 
L 153.904687 135.997193 
L 156.337071 137.439732 
L 158.636953 139.07868 
L 160.806191 140.900409 
L 162.849642 142.891103 
L 164.774843 145.03704 
L 167.030264 147.917401 
L 169.139874 150.994366 
L 171.517013 154.913064 
L 174.141586 159.748113 
L 177.405106 166.282971 
L 184.062986 179.729239 
L 187.2144 185.54365 
L 190.123915 190.483338 
L 193.201111 195.277345 
L 196.469852 199.935103 
L 199.952381 204.472273 
L 203.66847 208.905706 
L 207.634662 213.251602 
L 211.863126 217.525121 
L 216.359108 221.74003 
L 221.114604 225.906553 
L 226.821803 230.61004 
L 234.178689 236.36537 
L 248.269747 247.289647 
L 252.648451 250.973821 
L 256.06604 254.111917 
L 258.635952 256.726115 
L 260.917967 259.347049 
L 262.878212 261.978431 
L 264.191924 264.091164 
L 265.261115 266.208699 
L 266.069886 268.327283 
L 266.603842 270.441308 
L 266.850651 272.543343 
L 266.841328 274.106877 
L 266.659808 275.666061 
L 266.298596 277.220624 
L 265.750878 278.764493 
L 265.010943 280.290885 
L 264.074372 281.792342 
L 262.938217 283.260798 
L 261.60111 284.687715 
L 260.062784 286.064667 
L 258.324619 287.382773 
L 256.389586 288.632947 
L 253.511209 290.178435 
L 250.305344 291.565624 
L 246.790518 292.77374 
L 242.989062 293.782848 
L 238.926913 294.574056 
L 234.633626 295.129722 
L 230.142642 295.433721 
L 225.491894 295.471871 
L 220.720757 295.232336 
L 215.87163 294.70567 
L 210.993115 293.885813 
L 207.347389 293.07748 
L 203.740545 292.104994 
L 200.199068 290.972348 
L 196.75036 289.686154 
L 193.421828 288.255735 
L 190.23974 286.692954 
L 187.228056 285.011777 
L 184.407491 283.227642 
L 181.79497 281.356789 
L 179.403525 279.415663 
L 177.242515 277.420467 
L 175.318026 275.386874 
L 173.63333 273.329866 
L 172.189289 271.263649 
L 170.984702 269.201601 
L 170.016561 267.156237 
L 169.280259 265.139162 
L 168.769753 263.16101 
L 168.477705 261.231363 
L 168.39565 259.358728 
L 168.514759 257.545329 
L 168.829329 255.785498 
L 169.334325 254.085072 
L 170.024029 252.449656 
L 170.89207 250.884131 
L 171.931471 249.392589 
L 173.134716 247.978275 
L 174.980069 246.216622 
L 177.082594 244.599512 
L 179.421661 243.12729 
L 181.976313 241.797632 
L 184.725692 240.605751 
L 188.405327 239.298843 
L 192.319829 238.178569 
L 196.434815 237.22388 
L 201.595172 236.263827 
L 207.868323 235.345618 
L 216.255248 234.379422 
L 246.874567 231.143928 
L 254.820772 229.976143 
L 261.610163 228.777002 
L 268.213514 227.400755 
L 274.656273 225.832074 
L 280.952569 224.060253 
L 287.122028 222.074499 
L 293.185031 219.864064 
L 299.158711 217.419678 
L 305.054085 214.736146 
L 310.872611 211.816852 
L 316.601273 208.680925 
L 322.210177 205.370599 
L 328.42757 201.456409 
L 336.59768 196.034568 
L 349.22931 187.625026 
L 354.701135 184.273684 
L 358.790201 181.996704 
L 362.853183 179.981394 
L 366.809926 178.295386 
L 370.51231 176.99324 
L 373.841871 176.067088 
L 377.223571 175.376514 
L 380.483976 174.959115 
L 383.498938 174.798198 
L 386.430636 174.857777 
L 389.27372 175.131449 
L 392.026658 175.621795 
L 394.410336 176.267495 
L 396.305719 177.003893 
L 397.528069 177.699297 
L 398.19618 178.314711 
L 398.45868 178.832969 
L 398.457181 179.300897 
L 398.229002 179.769182 
L 397.720062 180.283297 
L 396.806932 180.871728 
L 395.347328 181.528958 
L 393.316661 182.185651 
L 390.84957 182.743815 
L 388.100694 183.134451 
L 385.262935 183.31787 
L 382.167448 183.283236 
L 379.009233 183.007779 
L 376.074789 182.542354 
L 373.170409 181.889598 
L 369.870048 180.924666 
L 366.184038 179.580684 
L 362.890107 178.158401 
L 358.80462 176.133075 
L 354.670326 173.829916 
L 349.822641 170.872779 
L 343.522099 166.7555 
L 324.9636 154.452377 
L 318.567567 150.57147 
L 312.818053 147.336871 
L 306.968182 144.311541 
L 301.047289 141.526955 
L 295.066565 138.992927 
L 289.022779 136.705791 
L 282.903333 134.655125 
L 276.690151 132.827816 
L 270.363392 131.21025 
L 263.906442 129.789267 
L 257.303822 128.550427 
L 249.56391 127.335826 
L 240.70545 126.198912 
L 229.90287 125.05835 
L 210.134416 123.034784 
L 203.048235 122.061934 
L 197.945148 121.169844 
L 193.061371 120.09317 
L 189.190943 119.026302 
L 185.534473 117.782514 
L 182.786747 116.647565 
L 180.21775 115.37975 
L 177.847896 113.973269 
L 175.698124 112.424583 
L 173.789431 110.732684 
L 172.142394 108.899279 
L 171.090719 107.433976 
L 170.205158 105.894507 
L 169.493025 104.284684 
L 168.961036 102.609138 
L 168.615242 100.873264 
L 168.460992 99.083143 
L 168.503002 97.244213 
L 168.747948 95.350573 
L 169.204433 93.406702 
L 169.880142 91.421544 
L 170.781594 89.405057 
L 171.913993 87.368188 
L 173.281072 85.322795 
L 174.884936 83.281588 
L 176.725846 81.258087 
L 178.801943 79.266573 
L 181.108899 77.322039 
L 183.639494 75.440087 
L 186.383158 73.636751 
L 189.325583 71.928182 
L 192.448526 70.330184 
L 195.729983 68.857599 
L 199.144807 67.523627 
L 202.665744 66.339217 
L 206.264677 65.31266 
L 209.913812 64.44948 
L 214.811754 63.557391 
L 219.69394 62.96137 
L 224.508652 62.65658 
L 229.210103 62.63416 
L 233.759301 62.88254 
L 238.11813 63.388015 
L 242.251589 64.13479 
L 246.128986 65.105496 
L 249.723413 66.281529 
L 253.011539 67.643265 
L 255.973671 69.170248 
L 258.59399 70.841401 
L 260.327756 72.176493 
L 261.859383 73.571576 
L 263.187127 75.017701 
L 264.311014 76.506479 
L 265.232232 78.029529 
L 265.953354 79.578643 
L 266.478514 81.146213 
L 266.813226 82.725304 
L 266.964194 84.309695 
L 266.939066 85.894756 
L 266.641763 88.021538 
L 266.052094 90.161493 
L 265.182333 92.307092 
L 264.047031 94.452637 
L 262.662453 96.594313 
L 261.046031 98.730157 
L 258.727076 101.391576 
L 256.109968 104.04667 
L 252.625621 107.233627 
L 248.160984 110.97371 
L 241.927615 115.865668 
L 225.633323 128.4879 
L 219.890207 133.274581 
L 215.131289 137.508327 
L 210.656455 141.781146 
L 206.470321 146.100549 
L 202.563301 150.478565 
L 198.918681 154.929183 
L 195.515629 159.467598 
L 192.330552 164.109472 
L 189.337837 168.868901 
L 186.510448 173.753665 
L 183.445762 179.479441 
L 179.427594 187.530383 
L 173.706372 199.022239 
L 171.101285 203.733367 
L 168.736877 207.547987 
L 166.636694 210.541883 
L 164.390681 213.34411 
L 162.4735 215.431905 
L 160.4388 217.368814 
L 158.279206 219.141384 
L 155.989925 220.735916 
L 153.569062 222.138763 
L 151.017883 223.33666 
L 148.340978 224.317087 
L 145.546308 225.068629 
L 142.645122 225.581325 
L 139.651716 225.846967 
L 136.582099 225.859282 
L 133.421021 225.609767 
L 130.17222 225.084196 
L 126.859313 224.269735 
L 123.509675 223.156112 
L 120.154058 221.735998 
L 117.653584 220.467209 
L 115.183768 219.023271 
L 112.760389 217.404999 
L 110.399755 215.614519 
L 108.118569 213.655366 
L 105.933778 211.532616 
L 103.862382 209.253018 
L 101.921192 206.825125 
L 100.126532 204.259389 
L 98.493863 201.568191 
L 97.037366 198.765753 
L 95.769506 195.867924 
L 94.700639 192.891819 
L 93.838714 189.855357 
L 93.189116 186.776745 
L 92.754671 183.673987 
L 92.535784 180.564478 
L 92.530688 177.464558 
L 92.738211 174.365387 
L 93.159991 171.270629 
L 93.796109 168.196964 
L 94.64441 165.161761 
L 95.700318 162.18276 
L 96.956758 159.277664 
L 98.404225 156.463669 
L 100.030985 153.756995 
L 101.823408 151.172474 
L 103.76637 148.723252 
L 105.84368 146.42062 
L 108.03848 144.273963 
L 110.333592 142.290805 
L 112.711795 140.476918 
L 115.156046 138.836445 
L 117.64966 137.37203 
L 120.176451 136.084938 
L 123.570331 134.644452 
L 126.960882 133.515741 
L 130.316246 132.692054 
L 133.607933 132.163524 
L 136.811247 131.917545 
L 139.908295 131.939346 
L 142.918896 132.217827 
L 145.837219 132.746856 
L 148.648656 133.518711 
L 151.341606 134.523874 
L 153.907752 135.751295 
L 156.342194 137.188726 
L 158.643435 138.823064 
L 160.813233 140.640701 
L 162.856356 142.627834 
L 164.780273 144.770742 
L 167.032661 147.648058 
L 169.137591 150.722783 
L 171.506908 154.639811 
L 174.119368 159.47428 
L 177.362998 166.010697 
L 183.971547 179.470073 
L 187.098129 185.291905 
L 189.985345 190.238984 
L 193.039838 195.04092 
L 196.285523 199.707043 
L 199.744688 204.253031 
L 203.437159 208.695813 
L 207.379553 213.051668 
L 211.584134 217.335809 
L 216.056307 221.562044 
L 220.788405 225.740677 
L 226.470309 230.459194 
L 233.800031 236.235352 
L 248.499667 247.732355 
L 252.812703 251.4235 
L 256.165359 254.569617 
L 258.674703 257.191343 
L 260.890033 259.819932 
L 262.777395 262.458381 
L 264.028413 264.575807 
L 265.03121 266.696711 
L 265.770201 268.816888 
L 266.231439 270.930285 
L 266.403171 273.029046 
L 266.336175 274.590437 
L 266.094682 276.148995 
L 265.671269 277.700676 
L 265.059479 279.239171 
L 264.254024 280.757475 
L 263.250965 282.247931 
L 262.047893 283.7023 
L 260.643653 285.112253 
L 259.038526 286.469149 
L 257.23445 287.763988 
L 255.234874 288.98768 
L 252.273338 290.492913 
L 248.988534 291.834324 
L 245.399892 292.991348 
L 241.530578 293.944298 
L 237.407343 294.674575 
L 233.060584 295.164877 
L 228.524697 295.399492 
L 223.838453 295.364768 
L 219.041156 295.049376 
L 214.176968 294.444554 
L 209.295818 293.545226 
L 205.657135 292.677224 
L 202.065689 291.645799 
L 198.548392 290.455781 
L 195.132828 289.11469 
L 191.846247 287.632748 
L 188.714369 286.022625 
L 185.760256 284.298908 
L 183.003476 282.477446 
L 180.459708 280.574675 
L 178.140752 278.607061 
L 176.054838 276.590712 
L 174.207063 274.541128 
L 172.599842 272.473074 
L 171.233304 270.400515 
L 170.10561 268.336574 
L 169.213195 266.293494 
L 168.550953 264.282592 
L 168.112394 262.314185 
L 167.889794 260.397534 
L 167.874345 258.540802 
L 168.057965 256.740525 
L 168.435591 254.996001 
L 169.001932 253.313297 
L 169.751032 251.69781 
L 170.676296 250.154187 
L 171.770547 248.686267 
L 173.026095 247.297029 
L 174.936977 245.570595 
L 177.100003 243.990137 
L 179.494395 242.555354 
L 182.099159 241.263308 
L 184.893496 240.108649 
L 188.622334 238.846968 
L 192.57875 237.769729 
L 196.729061 236.855273 
L 201.924293 235.939231 
L 208.22974 235.066048 
L 216.64841 234.147662 
L 245.306265 231.260168 
L 253.276045 230.155203 
L 261.060141 228.835894 
L 267.673409 227.492571 
L 274.126852 225.957129 
L 280.435513 224.218673 
L 286.618993 222.266454 
L 292.697833 220.089719 
L 298.689424 217.679103 
L 304.60509 215.029168 
L 310.446622 212.142836 
L 316.201336 209.03846 
L 321.839377 205.757289 
L 328.092791 201.872616 
L 336.312738 196.484968 
L 349.010248 188.121025 
L 354.497671 184.788326 
L 359.268194 182.171872 
L 363.311201 180.219234 
L 367.220194 178.602373 
L 370.852634 177.364963 
L 374.10763 176.488936 
L 377.409437 175.836561 
L 380.591958 175.441522 
L 383.827065 175.283138 
L 386.849599 175.365068 
L 389.826693 175.675507 
L 392.61215 176.196303 
L 395.007299 176.87135 
L 396.722763 177.573139 
L 397.710848 178.194913 
L 398.140859 178.699925 
L 398.22547 179.118548 
L 398.076599 179.497812 
L 397.65331 179.91654 
L 396.822213 180.395985 
L 395.401565 180.935982 
L 393.324978 181.47208 
L 390.743932 181.901024 
L 387.978869 182.141936 
L 385.027625 182.180078 
L 382.020077 181.999591 
L 378.980472 181.59915 
L 375.745758 180.937934 
L 372.434289 180.016607 
L 369.204427 178.888375 
L 365.625335 177.387318 
L 361.774274 175.500836 
L 357.76019 173.270145 
L 352.965628 170.315208 
L 347.37262 166.580558 
L 337.201261 159.442397 
L 327.978629 153.089064 
L 321.59155 148.950183 
L 315.889797 145.494243 
L 310.106352 142.238906 
L 304.247589 139.202199 
L 298.307961 136.385804 
L 292.274907 133.782402 
L 286.13169 131.379886 
L 279.859515 129.163613 
L 273.440682 127.117633 
L 265.912209 124.966579 
L 258.184132 122.988913 
L 248.282704 120.703351 
L 222.340052 114.909926 
L 216.232577 113.246036 
L 211.298831 111.676137 
L 207.435127 110.238751 
L 203.829199 108.663838 
L 200.514656 106.935568 
L 198.09681 105.434332 
L 195.907195 103.823189 
L 193.964722 102.100329 
L 192.287892 100.266324 
L 190.894328 98.324264 
L 190.044908 96.800111 
L 189.370257 95.221616 
L 188.875958 93.592852 
L 188.566866 91.9186 
L 188.447055 90.204281 
L 188.520056 88.453047 
L 188.792454 86.65563 
L 189.272582 84.81672 
L 189.967885 82.943926 
L 190.884759 81.045797 
L 192.02841 79.131761 
L 193.402742 77.212057 
L 195.010234 75.297652 
L 196.851823 73.400172 
L 198.926757 71.53182 
L 201.232429 69.705298 
L 203.764167 67.933721 
L 206.514985 66.230502 
L 209.475323 64.6092 
L 212.63279 63.083302 
L 215.972004 61.665942 
L 219.474581 60.369529 
L 223.11936 59.205337 
L 226.882904 58.183087 
L 230.740231 57.3106 
L 235.984867 56.38979 
L 241.29057 55.752645 
L 246.600543 55.400362 
L 251.862868 55.328797 
L 257.039197 55.530169 
L 262.093123 55.994941 
L 266.991918 56.712292 
L 271.725455 57.675217 
L 276.24901 58.870352 
L 280.518559 60.279839 
L 284.495116 61.882405 
L 288.145693 63.654253 
L 291.443718 65.569971 
L 294.369054 67.603362 
L 296.309868 69.189809 
L 298.029384 70.816741 
L 299.525667 72.473538 
L 300.798465 74.149985 
L 301.849106 75.83639 
L 302.680406 77.52367 
L 303.296547 79.203452 
L 303.702957 80.868138 
L 303.906162 82.510966 
L 303.913638 84.126047 
L 303.731538 85.72055 
L 303.362499 87.2968 
L 302.809604 88.850302 
L 302.076789 90.377174 
L 300.828039 92.366156 
L 299.280731 94.296634 
L 297.449266 96.165424 
L 295.349035 97.971695 
L 292.99593 99.71685 
L 289.723305 101.817785 
L 286.111407 103.839401 
L 282.190583 105.795873 
L 277.1214 108.08104 
L 270.78349 110.697804 
L 260.238552 114.779885 
L 245.775019 120.399052 
L 237.45278 123.861419 
L 230.331362 127.043759 
L 223.447609 130.359218 
L 216.769313 133.835187 
L 210.262579 137.492566 
L 203.892278 141.345794 
L 197.62021 145.401972 
L 190.630174 150.20116 
L 181.344307 156.894919 
L 169.850911 165.166479 
L 164.58095 168.694205 
L 160.099313 171.443009 
L 156.3737 173.501618 
L 152.644078 175.320523 
L 148.902428 176.873364 
L 145.898181 177.906683 
L 142.885262 178.740437 
L 139.867415 179.36268 
L 136.851067 179.762646 
L 133.845357 179.931157 
L 130.855764 179.860636 
L 127.864417 179.539914 
L 124.883961 178.955672 
L 121.93423 178.096734 
L 119.037456 176.954398 
L 116.914377 175.908022 
L 114.846023 174.697488 
L 112.844 173.322386 
L 110.920289 171.783276 
L 109.087131 170.081669 
L 107.356917 168.219997 
L 105.742086 166.201557 
L 104.255042 164.030463 
L 102.908077 161.711581 
L 101.713316 159.250475 
L 100.682681 156.653351 
L 99.827853 153.927013 
L 99.16026 151.078835 
L 98.691056 148.116744 
L 98.431112 145.049229 
L 98.390993 141.88538 
L 98.58091 138.63497 
L 99.010655 135.308478 
L 99.689523 131.917126 
L 100.626186 128.473009 
L 101.828511 124.989247 
L 103.303222 121.480295 
L 105.055304 117.962449 
L 107.087249 114.454126 
L 109.39801 110.976218 
L 111.98177 107.552231 
L 114.826803 104.20793 
L 117.914885 100.970258 
L 121.221752 97.865535 
L 124.718718 94.91736 
L 128.374981 92.144924 
L 132.159844 89.562265 
L 136.044236 87.178476 
L 140.001431 84.998503 
L 144.007149 83.024126 
L 148.039331 81.254836 
L 152.077808 79.688519 
L 156.103964 78.321938 
L 160.100463 77.151047 
L 164.051044 76.171193 
L 169.220854 75.152922 
L 174.247807 74.451825 
L 179.099853 74.053496 
L 183.747205 73.942376 
L 188.170762 74.102311 
L 192.360373 74.518991 
L 196.293188 75.178186 
L 199.948383 76.064984 
L 203.307629 77.163885 
L 206.355406 78.458948 
L 208.429241 79.549239 
L 210.316802 80.733918 
L 212.015171 82.006197 
L 213.522555 83.359421 
L 214.838285 84.78713 
L 215.962801 86.283129 
L 216.897612 87.841547 
L 217.64525 89.456879 
L 218.209203 91.124024 
L 218.593849 92.838295 
L 218.804395 94.595415 
L 218.824735 96.998448 
L 218.560565 99.474076 
L 218.024791 102.023008 
L 217.231837 104.642317 
L 216.19784 107.330288 
L 214.594215 110.784542 
L 212.684572 114.337377 
L 210.066594 118.705513 
L 206.228386 124.604626 
L 192.543935 145.189786 
L 188.830839 151.339709 
L 185.39633 157.460239 
L 182.212027 163.597827 
L 179.233447 169.797174 
L 175.78045 177.519452 
L 168.014679 195.241988 
L 165.762504 199.728996 
L 163.739049 203.320084 
L 161.571532 206.692438 
L 159.723509 209.200369 
L 157.763503 211.524219 
L 155.681776 213.654443 
L 153.470098 215.582691 
L 151.122619 217.300575 
L 148.636425 218.799353 
L 146.0119 220.070053 
L 143.25293 221.103828 
L 140.366957 221.892389 
L 137.364861 222.428452 
L 134.260673 222.706138 
L 131.070239 222.721236 
L 127.775613 222.466908 
L 124.376946 221.929733 
L 120.895123 221.097064 
L 117.354427 219.958152 
L 113.782193 218.504414 
L 111.100278 217.20367 
L 108.43095 215.720578 
L 105.788322 214.054249 
L 103.187029 212.204644 
L 100.642145 210.172605 
L 98.169105 207.959906 
L 95.783633 205.569318 
L 93.501649 203.004696 
L 91.339176 200.271086 
L 89.312212 197.374852 
L 87.436562 194.323808 
L 85.727627 191.12735 
L 84.200136 187.79655 
L 82.867821 184.344198 
L 81.743057 180.78474 
L 80.836453 177.133904 
L 80.153958 173.390878 
L 79.704196 169.560119 
L 79.496858 165.654399 
L 79.540468 161.687329 
L 79.843294 157.663517 
L 80.413639 153.594505 
L 81.258258 149.496604 
L 82.381728 145.388183 
L 83.785776 141.289783 
L 85.468553 137.224024 
L 87.424007 133.21518 
L 89.641537 129.288331 
L 92.106123 125.468172 
L 94.79897 121.77767 
L 97.69856 118.236938 
L 100.781836 114.862539 
L 104.025261 111.667316 
L 107.4056 108.660641 
L 110.900392 105.848897 
L 114.488181 103.236033 
L 118.148568 100.824078 
L 121.86218 98.613569 
L 125.610589 96.603883 
L 129.376229 94.793482 
L 133.142307 93.180084 
L 136.892744 91.760786 
L 141.84244 90.164289 
L 146.702338 88.897119 
L 151.439643 87.948332 
L 156.023566 87.30561 
L 160.425633 86.955254 
L 164.620012 86.882233 
L 168.603643 87.07188 
L 172.375327 87.513884 
L 175.913156 88.197969 
L 179.19764 89.112935 
L 182.212031 90.246848 
L 184.287201 91.233498 
L 186.198068 92.330978 
L 187.941111 93.533957 
L 189.513895 94.837199 
L 190.915068 96.235647 
L 192.144331 97.724512 
L 193.202386 99.299353 
L 194.090867 100.956152 
L 194.812261 102.69136 
L 195.369817 104.501925 
L 195.767472 106.385252 
L 196.056946 109.005674 
L 196.083058 111.746178 
L 195.860443 114.606112 
L 195.40569 117.581964 
L 194.544621 121.442389 
L 193.416642 125.404 
L 191.825148 130.176973 
L 189.22256 137.172996 
L 182.033838 156.101767 
L 179.433619 163.77765 
L 177.309835 170.708447 
L 175.189592 178.36435 
L 172.29323 189.790557 
L 169.943186 198.78562 
L 168.303779 204.215942 
L 166.928648 208.106307 
L 165.350697 211.880573 
L 163.935854 214.733624 
L 162.380278 217.398657 
L 160.675962 219.861179 
L 158.813813 222.115537 
L 156.785743 224.157857 
L 154.585927 225.983459 
L 152.211517 227.586337 
L 149.66305 228.959417 
L 146.944675 230.095083 
L 144.064195 230.985748 
L 141.032939 231.624407 
L 137.86547 232.005088 
L 134.579162 232.123204 
L 131.175329 231.974256 
L 127.63538 231.546483 
L 123.978327 230.826469 
L 120.227592 229.8024 
L 116.409693 228.464303 
L 112.553826 226.804209 
L 109.655879 225.344225 
L 106.768259 223.698113 
L 103.905507 221.864916 
L 101.082621 219.844404 
L 98.315014 217.637111 
L 95.618452 215.244386 
L 93.009015 212.668459 
L 90.50304 209.912539 
L 88.117059 206.980933 
L 85.867698 203.879194 
L 83.771558 200.614286 
L 81.845027 197.194764 
L 80.104036 193.630934 
L 78.56375 189.934979 
L 77.238184 186.120993 
L 76.139784 182.204901 
L 75.279007 178.204219 
L 74.66256 174.126077 
L 74.296803 169.967086 
L 74.190921 165.741405 
L 74.352988 161.459198 
L 74.791928 157.122259 
L 75.515987 152.746055 
L 76.531446 148.348504 
L 77.841963 143.949783 
L 79.447841 139.572328 
L 81.345308 135.240577 
L 83.525998 130.980292 
L 85.976837 126.817459 
L 88.680462 122.776928 
L 91.616133 118.881091 
L 94.760926 115.148931 
L 98.09091 111.59559 
L 101.582097 108.232445 
L 105.211087 105.067519 
L 108.955415 102.106036 
L 112.793688 99.350992 
L 116.705591 96.803641 
L 120.671827 94.463896 
L 124.674024 92.330622 
L 128.694647 90.401862 
L 132.716914 88.674984 
L 136.724726 87.146794 
L 140.702618 85.813604 
L 145.934442 84.332115 
L 151.053302 83.178922 
L 156.027335 82.341874 
L 160.826637 81.807567 
L 165.423485 81.561364 
L 169.794948 81.587507 
L 173.947256 81.872369 
L 177.865027 82.405127 
L 181.526484 83.174184 
L 184.912314 84.167144 
L 188.005939 85.37103 
L 190.126101 86.404367 
L 192.069613 87.543235 
L 193.832934 88.782078 
L 195.41357 90.115508 
L 196.810047 91.538402 
L 198.021883 93.046 
L 199.049514 94.634008 
L 199.894211 96.298698 
L 200.557966 98.036994 
L 201.043376 99.846548 
L 201.353516 101.725774 
L 201.491831 103.673813 
L 201.462085 105.690573 
L 201.167336 108.49213 
L 200.589314 111.425926 
L 199.741401 114.487608 
L 198.650237 117.650323 
L 197.022019 121.652466 
L 194.843353 126.366857 
L 191.798311 132.395165 
L 177.800963 159.408274 
L 173.329941 168.860721 
L 165.165375 186.276985 
L 162.457976 191.417666 
L 160.267769 195.150955 
L 157.834776 198.815658 
L 155.745814 201.563966 
L 153.557372 204.074716 
L 151.271241 206.331714 
L 148.878932 208.336646 
L 146.37155 210.092304 
L 143.743277 211.598689 
L 140.992335 212.853154 
L 138.121187 213.851402 
L 135.136453 214.588531 
L 132.048634 215.059941 
L 128.871672 215.262043 
L 125.615248 215.192313 
L 122.254702 214.842437 
L 118.800403 214.199467 
L 115.272818 213.251703 
L 111.695684 211.98916 
L 108.996257 210.830783 
L 106.296104 209.488206 
L 103.608126 207.959552 
L 100.945824 206.243671 
L 98.323211 204.340161 
L 95.754729 202.249378 
L 93.255174 199.97246 
L 90.839627 197.511362 
L 88.523388 194.868907 
L 86.321904 192.048848 
L 84.250692 189.055962 
L 82.325232 185.896157 
L 80.560838 182.576593 
L 78.972493 179.105819 
L 77.573907 175.491859 
L 76.376457 171.737144 
L 75.393449 167.848817 
L 74.638099 163.835084 
L 74.123307 159.704781 
L 73.86161 155.467468 
L 73.865106 151.133534 
L 74.145799 146.709349 
L 74.716032 142.203594 
L 75.587788 137.627947 
L 76.772494 132.995109 
L 78.280841 128.318907 
L 80.122362 123.614868 
L 82.304864 118.900566 
L 84.833589 114.19606 
L 87.710059 109.524378 
L 90.930656 104.911813 
L 94.485182 100.387723 
L 98.355902 95.983539 
L 102.517653 91.730837 
L 106.939319 87.658843 
L 111.586351 83.792159 
L 116.423484 80.149436 
L 121.416838 76.743243 
L 126.535084 73.58083 
L 131.749794 70.665261 
L 137.035298 67.996541 
L 142.368324 65.572535 
L 147.7276 63.389644 
L 153.093491 61.443267 
L 158.447709 59.72811 
L 163.773082 58.238374 
L 169.053395 56.967876 
L 174.273474 55.910084 
L 179.418702 55.058263 
L 184.475018 54.405451 
L 189.428966 53.944456 
L 194.267657 53.667855 
L 198.978746 53.568 
L 205.043187 53.696227 
L 210.840622 54.106185 
L 216.346526 54.778976 
L 221.538007 55.695067 
L 226.39428 56.834389 
L 230.896776 58.176446 
L 235.029285 59.700446 
L 238.778108 61.385467 
L 241.331203 62.742349 
L 243.658618 64.169371 
L 245.757681 65.658002 
L 247.626672 67.199947 
L 249.264825 68.787233 
L 250.672309 70.412291 
L 251.850186 72.068047 
L 252.800342 73.748003 
L 253.525378 75.446324 
L 254.028488 77.157909 
L 254.313296 78.878466 
L 254.383675 80.604566 
L 254.242939 82.337917 
L 253.891281 84.084752 
L 253.328084 85.843719 
L 252.552219 87.615083 
L 251.561204 89.401123 
L 250.350048 91.206669 
L 248.909676 93.03978 
L 246.606049 95.547525 
L 243.827915 98.149979 
L 240.659506 100.771657 
L 236.580908 103.804751 
L 231.768956 107.072378 
L 225.468131 111.047571 
L 216.937838 116.138128 
L 202.385121 124.525705 
L 187.698606 132.788519 
L 179.654166 137.101171 
L 172.85567 140.492664 
L 167.383028 142.966646 
L 162.433747 144.941689 
L 159.79523 145.872176 
L 159.79523 145.872176 
" clip-path="url(#p70de209403)" style="fill: none; stroke: #000000; stroke-width: 1.5; stroke-linecap: square"/>
   </g>
   <g id="patch_3">
    <path d="M 57.6 307.584 
L 57.6 41.472 
" style="fill: none; stroke: #000000; stroke-width: 0.8; stroke-linejoin: miter; stroke-linecap: square"/>
   </g>
   <g id="patch_4">
    <path d="M 414.72 307.584 
L 414.72 41.472 
" style="fill: none; stroke: #000000; stroke-width: 0.8; stroke-linejoin: miter; stroke-linecap: square"/>
   </g>
   <g id="patch_5">
    <path d="M 57.6 307.584 
L 414.72 307.584 
" style="fill: none; stroke: #000000; stroke-width: 0.8; stroke-linejoin: miter; stroke-linecap: square"/>
   </g>
   <g id="patch_6">
    <path d="M 57.6 41.472 
L 414.72 41.472 
" style="fill: none; stroke: #000000; stroke-width: 0.8; stroke-linejoin: miter; stroke-linecap: square"/>
   </g>
   <g id="legend_1">
    <g id="patch_7">
     <path d="M 326.349688 78.82825 
L 407.72 78.82825 
Q 409.72 78.82825 409.72 76.82825 
L 409.72 48.472 
Q 409.72 46.472 407.72 46.472 
L 326.349688 46.472 
Q 324.349688 46.472 324.349688 48.472 
L 324.349688 76.82825 
Q 324.349688 78.82825 326.349688 78.82825 
z
" style="fill: #ffffff; opacity: 0.8; stroke: #cccccc; stroke-linejoin: miter"/>
    </g>
    <g id="PathCollection_2">
     <g>
      <use xlink:href="#mb7e11f1591" x="338.349688" y="55.445437" style="fill: #0000ff; stroke: #0000ff"/>
     </g>
    </g>
    <g id="text_14">
     <!-- Earth -->
     <g transform="translate(356.349688 58.070437) scale(0.1 -0.1)">
      <defs>
       <path id="DejaVuSans-45" d="M 628 4666 
L 3578 4666 
L 3578 4134 
L 1259 4134 
L 1259 2753 
L 3481 2753 
L 3481 2222 
L 1259 2222 
L 1259 531 
L 3634 531 
L 3634 0 
L 628 0 
L 628 4666 
z
" transform="scale(0.015625)"/>
       <path id="DejaVuSans-61" d="M 2194 1759 
Q 1497 1759 1228 1600 
Q 959 1441 959 1056 
Q 959 750 1161 570 
Q 1363 391 1709 391 
Q 2188 391 2477 730 
Q 2766 1069 2766 1631 
L 2766 1759 
L 2194 1759 
z
M 3341 1997 
L 3341 0 
L 2766 0 
L 2766 531 
Q 2569 213 2275 61 
Q 1981 -91 1556 -91 
Q 1019 -91 701 211 
Q 384 513 384 1019 
Q 384 1609 779 1909 
Q 1175 2209 1959 2209 
L 2766 2209 
L 2766 2266 
Q 2766 2663 2505 2880 
Q 2244 3097 1772 3097 
Q 1472 3097 1187 3025 
Q 903 2953 641 2809 
L 641 3341 
Q 956 3463 1253 3523 
Q 1550 3584 1831 3584 
Q 2591 3584 2966 3190 
Q 3341 2797 3341 1997 
z
" transform="scale(0.015625)"/>
       <path id="DejaVuSans-72" d="M 2631 2963 
Q 2534 3019 2420 3045 
Q 2306 3072 2169 3072 
Q 1681 3072 1420 2755 
Q 1159 2438 1159 1844 
L 1159 0 
L 581 0 
L 581 3500 
L 1159 3500 
L 1159 2956 
Q 1341 3275 1631 3429 
Q 1922 3584 2338 3584 
Q 2397 3584 2469 3576 
Q 2541 3569 2628 3553 
L 2631 2963 
z
" transform="scale(0.015625)"/>
       <path id="DejaVuSans-74" d="M 1172 4494 
L 1172 3500 
L 2356 3500 
L 2356 3053 
L 1172 3053 
L 1172 1153 
Q 1172 725 1289 603 
Q 1406 481 1766 481 
L 2356 481 
L 2356 0 
L 1766 0 
Q 1100 0 847 248 
Q 594 497 594 1153 
L 594 3053 
L 172 3053 
L 172 3500 
L 594 3500 
L 594 4494 
L 1172 4494 
z
" transform="scale(0.015625)"/>
       <path id="DejaVuSans-68" d="M 3513 2113 
L 3513 0 
L 2938 0 
L 2938 2094 
Q 2938 2591 2744 2837 
Q 2550 3084 2163 3084 
Q 1697 3084 1428 2787 
Q 1159 2491 1159 1978 
L 1159 0 
L 581 0 
L 581 4863 
L 1159 4863 
L 1159 2956 
Q 1366 3272 1645 3428 
Q 1925 3584 2291 3584 
Q 2894 3584 3203 3211 
Q 3513 2838 3513 2113 
z
" transform="scale(0.015625)"/>
      </defs>
      <use xlink:href="#DejaVuSans-45"/>
      <use xlink:href="#DejaVuSans-61" x="63.183594"/>
      <use xlink:href="#DejaVuSans-72" x="124.462891"/>
      <use xlink:href="#DejaVuSans-74" x="165.576172"/>
      <use xlink:href="#DejaVuSans-68" x="204.785156"/>
     </g>
    </g>
    <g id="line2d_24">
     <path d="M 328.349688 69.248562 
L 338.349688 69.248562 
L 348.349688 69.248562 
" style="fill: none; stroke: #000000; stroke-width: 1.5; stroke-linecap: square"/>
    </g>
    <g id="text_15">
     <!-- Trajectory -->
     <g transform="translate(356.349688 72.748562) scale(0.1 -0.1)">
      <defs>
       <path id="DejaVuSans-54" d="M -19 4666 
L 3928 4666 
L 3928 4134 
L 2272 4134 
L 2272 0 
L 1638 0 
L 1638 4134 
L -19 4134 
L -19 4666 
z
" transform="scale(0.015625)"/>
       <path id="DejaVuSans-6a" d="M 603 3500 
L 1178 3500 
L 1178 -63 
Q 1178 -731 923 -1031 
Q 669 -1331 103 -1331 
L -116 -1331 
L -116 -844 
L 38 -844 
Q 366 -844 484 -692 
Q 603 -541 603 -63 
L 603 3500 
z
M 603 4863 
L 1178 4863 
L 1178 4134 
L 603 4134 
L 603 4863 
z
" transform="scale(0.015625)"/>
       <path id="DejaVuSans-65" d="M 3597 1894 
L 3597 1613 
L 953 1613 
Q 991 1019 1311 708 
Q 1631 397 2203 397 
Q 2534 397 2845 478 
Q 3156 559 3463 722 
L 3463 178 
Q 3153 47 2828 -22 
Q 2503 -91 2169 -91 
Q 1331 -91 842 396 
Q 353 884 353 1716 
Q 353 2575 817 3079 
Q 1281 3584 2069 3584 
Q 2775 3584 3186 3129 
Q 3597 2675 3597 1894 
z
M 3022 2063 
Q 3016 2534 2758 2815 
Q 2500 3097 2075 3097 
Q 1594 3097 1305 2825 
Q 1016 2553 972 2059 
L 3022 2063 
z
" transform="scale(0.015625)"/>
       <path id="DejaVuSans-63" d="M 3122 3366 
L 3122 2828 
Q 2878 2963 2633 3030 
Q 2388 3097 2138 3097 
Q 1578 3097 1268 2742 
Q 959 2388 959 1747 
Q 959 1106 1268 751 
Q 1578 397 2138 397 
Q 2388 397 2633 464 
Q 2878 531 3122 666 
L 3122 134 
Q 2881 22 2623 -34 
Q 2366 -91 2075 -91 
Q 1284 -91 818 406 
Q 353 903 353 1747 
Q 353 2603 823 3093 
Q 1294 3584 2113 3584 
Q 2378 3584 2631 3529 
Q 2884 3475 3122 3366 
z
" transform="scale(0.015625)"/>
       <path id="DejaVuSans-6f" d="M 1959 3097 
Q 1497 3097 1228 2736 
Q 959 2375 959 1747 
Q 959 1119 1226 758 
Q 1494 397 1959 397 
Q 2419 397 2687 759 
Q 2956 1122 2956 1747 
Q 2956 2369 2687 2733 
Q 2419 3097 1959 3097 
z
M 1959 3584 
Q 2709 3584 3137 3096 
Q 3566 2609 3566 1747 
Q 3566 888 3137 398 
Q 2709 -91 1959 -91 
Q 1206 -91 779 398 
Q 353 888 353 1747 
Q 353 2609 779 3096 
Q 1206 3584 1959 3584 
z
" transform="scale(0.015625)"/>
      </defs>
      <use xlink:href="#DejaVuSans-54"/>
      <use xlink:href="#DejaVuSans-72" x="46.333984"/>
      <use xlink:href="#DejaVuSans-61" x="87.447266"/>
      <use xlink:href="#DejaVuSans-6a" x="148.726562"/>
      <use xlink:href="#DejaVuSans-65" x="176.509766"/>
      <use xlink:href="#DejaVuSans-63" x="238.033203"/>
      <use xlink:href="#DejaVuSans-74" x="293.013672"/>
      <use xlink:href="#DejaVuSans-6f" x="332.222656"/>
      <use xlink:href="#DejaVuSans-72" x="393.404297"/>
      <use xlink:href="#DejaVuSans-79" x="434.517578"/>
     </g>
    </g>
   </g>
  </g>
 </g>
 <defs>
  <clipPath id="p70de209403">
   <rect x="57.6" y="41.472" width="357.12" height="266.112"/>
  </clipPath>
 </defs>
</svg>
