<?xml version="1.0" encoding="utf-8" standalone="no"?>
<!DOCTYPE svg PUBLIC "-//W3C//DTD SVG 1.1//EN"
  "http://www.w3.org/Graphics/SVG/1.1/DTD/svg11.dtd">
<svg xmlns:xlink="http://www.w3.org/1999/xlink" width="460.8pt" height="345.6pt" viewBox="0 0 460.8 345.6" xmlns="http://www.w3.org/2000/svg" version="1.1">
 <metadata>
  <rdf:RDF xmlns:dc="http://purl.org/dc/elements/1.1/" xmlns:cc="http://creativecommons.org/ns#" xmlns:rdf="http://www.w3.org/1999/02/22-rdf-syntax-ns#">
   <cc:Work>
    <dc:type rdf:resource="http://purl.org/dc/dcmitype/StillImage"/>
    <dc:date>2026-02-18T14:46:02.840712</dc:date>
    <dc:format>image/svg+xml</dc:format>
    <dc:creator>
     <cc:Agent>
      <dc:title>Matplotlib v3.6.3, https://matplotlib.org/</dc:title>
     </cc:Agent>
    </dc:creator>
   </cc:Work>
  </rdf:RDF>
 </metadata>
 <defs>
  <style type="text/css">*{stroke-linejoin: round; stroke-linecap: butt}</style>
 </defs>
 <g id="figure_1">
  <g id="patch_1">
   <path d="M 0 345.6 
L 460.8 345.6 
L 460.8 0 
L 0 0 
z
" style="fill: #ffffff"/>
  </g>
  <g id="axes_1">
   <g id="patch_2">
    <path d="M 57.6 307.584 
L 414.72 307.584 
L 414.72 41.472 
L 57.6 41.472 
z
" style="fill: #ffffff"/>
   </g>
   <g id="PathCollection_1">
    <path d="M 58.794381 307.584 
L 59.988763 307.584 
L 61.183144 307.584 
L 62.377525 307.584 
L 63.571906 307.584 
L 64.766288 307.584 
L 65.960669 307.584 
L 67.15505 307.584 
L 68.349431 307.584 
L 69.543813 307.584 
L 70.738194 307.584 
L 71.932575 307.584 
L 73.126957 307.584 
L 74.321338 307.584 
L 75.515719 307.584 
L 76.7101 307.584 
L 77.904482 307.584 
L 79.098863 307.584 
L 80.293244 307.584 
L 81.487625 307.584 
L 82.682007 307.584 
L 83.876388 307.584 
L 85.070769 307.584 
L 86.265151 307.584 
L 87.459532 307.584 
L 88.653913 307.584 
L 89.848294 307.584 
L 91.042676 307.584 
L 92.237057 307.584 
L 93.431438 307.584 
L 94.625819 307.584 
L 95.820201 307.584 
L 97.014582 307.584 
L 98.208963 307.584 
L 99.403344 307.584 
L 100.597726 307.584 
L 101.792107 307.584 
L 102.986488 307.584 
L 104.18087 307.584 
L 105.375251 307.584 
L 106.569632 307.584 
L 107.764013 307.584 
L 108.958395 307.584 
L 110.152776 307.584 
L 111.347157 307.584 
L 112.541538 307.584 
L 113.73592 307.584 
L 114.930301 307.584 
L 116.124682 307.584 
L 117.319064 307.584 
L 118.513445 307.584 
L 119.707826 307.584 
L 120.902207 307.584 
L 122.096589 307.584 
L 123.29097 307.584 
L 124.485351 307.584 
L 125.679732 307.584 
L 126.874114 307.584 
L 128.068495 307.584 
L 129.262876 307.584 
L 130.457258 307.584 
L 131.651639 307.584 
L 132.84602 307.584 
L 134.040401 307.584 
L 135.234783 307.584 
L 136.429164 307.584 
L 137.623545 307.584 
L 138.817926 307.584 
L 140.012308 307.584 
L 141.206689 307.584 
L 142.40107 307.584 
L 143.595452 307.584 
L 144.789833 307.584 
L 145.984214 307.584 
L 147.178595 307.584 
L 148.372977 307.584 
L 149.567358 307.584 
L 150.761739 307.584 
L 151.95612 307.584 
L 153.150502 307.584 
L 154.344883 307.584 
L 155.539264 307.584 
L 156.733645 307.584 
L 157.928027 307.584 
L 159.122408 307.584 
L 160.316789 307.584 
L 161.511171 307.584 
L 162.705552 307.584 
L 163.899933 307.584 
L 165.094314 307.584 
L 166.288696 307.584 
L 167.483077 307.584 
L 168.677458 307.584 
L 169.871839 307.584 
L 171.066221 307.584 
L 172.260602 307.584 
L 173.454983 307.584 
L 174.649365 307.584 
L 175.843746 307.584 
L 177.038127 307.584 
L 178.232508 307.584 
L 179.42689 307.584 
L 180.621271 307.584 
L 181.815652 307.584 
L 183.010033 307.584 
L 184.204415 307.584 
L 185.398796 307.584 
L 186.593177 307.584 
L 187.787559 307.584 
L 188.98194 307.584 
L 190.176321 307.584 
L 191.370702 307.584 
L 192.565084 307.584 
L 193.759465 307.584 
L 194.953846 307.584 
L 196.148227 307.584 
L 197.342609 307.584 
L 198.53699 307.584 
L 199.731371 307.584 
L 200.925753 307.584 
L 202.120134 307.584 
L 203.314515 307.584 
L 204.508896 307.584 
L 205.703278 307.584 
L 206.897659 307.584 
L 208.09204 307.584 
L 209.286421 307.584 
L 210.480803 307.584 
L 211.675184 307.584 
L 212.869565 307.584 
L 214.063946 307.584 
L 215.258328 307.584 
L 216.452709 307.584 
L 217.64709 307.584 
L 218.841472 307.584 
L 220.035853 307.584 
L 221.230234 307.584 
L 222.424615 307.584 
L 223.618997 307.584 
L 224.813378 307.584 
L 226.007759 307.584 
L 227.20214 307.584 
L 228.396522 307.584 
L 229.590903 307.584 
L 230.785284 307.584 
L 231.979666 307.584 
L 233.174047 307.584 
L 234.368428 307.584 
L 235.562809 307.584 
L 236.757191 307.584 
L 237.951572 307.584 
L 239.145953 307.584 
L 240.340334 307.584 
L 241.534716 307.584 
L 242.729097 307.584 
L 243.923478 307.584 
L 245.11786 307.584 
L 246.312241 307.584 
L 247.506622 307.584 
L 248.701003 307.584 
L 249.895385 307.584 
L 251.089766 307.584 
L 252.284147 307.584 
L 253.478528 307.584 
L 254.67291 307.584 
L 255.867291 307.584 
L 257.061672 307.584 
L 258.256054 307.584 
L 259.450435 307.584 
L 260.644816 307.584 
L 261.839197 307.584 
L 263.033579 307.584 
L 264.22796 307.584 
L 265.422341 307.584 
L 266.616722 307.584 
L 267.811104 307.584 
L 269.005485 307.584 
L 270.199866 307.584 
L 271.394247 307.584 
L 272.588629 307.584 
L 273.78301 307.584 
L 274.977391 307.584 
L 276.171773 307.584 
L 277.366154 307.584 
L 278.560535 307.584 
L 279.754916 307.584 
L 280.949298 307.584 
L 282.143679 307.584 
L 283.33806 307.584 
L 284.532441 307.584 
L 285.726823 307.584 
L 286.921204 307.584 
L 288.115585 307.584 
L 289.309967 307.584 
L 290.504348 307.584 
L 291.698729 307.584 
L 292.89311 307.584 
L 294.087492 307.584 
L 295.281873 307.584 
L 296.476254 307.584 
L 297.670635 307.584 
L 298.865017 307.584 
L 300.059398 307.584 
L 301.253779 307.584 
L 302.448161 307.584 
L 303.642542 307.584 
L 304.836923 307.584 
L 306.031304 307.584 
L 307.225686 307.584 
L 308.420067 307.584 
L 309.614448 307.584 
L 310.808829 307.584 
L 312.003211 307.584 
L 313.197592 307.584 
L 314.391973 307.584 
L 315.586355 307.584 
L 316.780736 307.584 
L 317.975117 307.584 
L 319.169498 307.584 
L 320.36388 307.584 
L 321.558261 307.584 
L 322.752642 307.584 
L 323.947023 307.584 
L 325.141405 307.584 
L 326.335786 307.584 
L 327.530167 307.584 
L 328.724548 307.584 
L 329.91893 307.584 
L 331.113311 307.584 
L 332.307692 307.584 
L 333.502074 307.584 
L 334.696455 307.584 
L 335.890836 307.584 
L 337.085217 307.584 
L 338.279599 307.584 
L 339.47398 307.584 
L 340.668361 307.584 
L 341.862742 307.584 
L 343.057124 307.584 
L 344.251505 307.584 
L 345.445886 307.584 
L 346.640268 307.584 
L 347.834649 307.584 
L 349.02903 307.584 
L 350.223411 307.584 
L 351.417793 307.584 
L 352.612174 307.584 
L 353.806555 307.584 
L 355.000936 307.584 
L 356.195318 307.584 
L 357.389699 307.584 
L 358.58408 307.584 
L 359.778462 307.584 
L 360.972843 307.584 
L 362.167224 307.584 
L 363.361605 307.584 
L 364.555987 307.584 
L 365.750368 307.584 
L 366.944749 307.584 
L 368.13913 307.584 
L 369.333512 307.584 
L 370.527893 307.584 
L 371.722274 307.584 
L 372.916656 307.584 
L 374.111037 307.584 
L 375.305418 307.584 
L 376.499799 307.584 
L 377.694181 307.584 
L 378.888562 307.584 
L 380.082943 307.584 
L 381.277324 307.584 
L 382.471706 307.584 
L 383.666087 307.584 
L 384.860468 307.584 
L 386.054849 307.584 
L 387.249231 307.584 
L 388.443612 307.584 
L 389.637993 307.584 
L 390.832375 307.584 
L 392.026756 307.584 
L 393.221137 307.584 
L 394.415518 307.584 
L 395.6099 307.584 
L 396.804281 307.584 
L 397.998662 307.584 
L 399.193043 307.584 
L 400.387425 307.584 
L 401.581806 307.584 
L 402.776187 307.584 
L 403.970569 307.584 
L 405.16495 307.584 
L 406.359331 307.584 
L 407.553712 307.584 
L 408.748094 307.584 
L 409.942475 307.584 
L 411.136856 307.584 
L 412.331237 307.584 
L 413.525619 307.584 
L 414.72 307.584 
L 414.72 306.693993 
L 414.72 305.803987 
L 414.72 304.91398 
L 414.72 304.023973 
L 414.72 303.133967 
L 414.72 302.24396 
L 414.72 301.353953 
L 414.72 300.463946 
L 414.72 299.57394 
L 414.72 298.683933 
L 414.72 297.793926 
L 414.72 296.90392 
L 414.72 296.013913 
L 414.72 295.123906 
L 414.72 294.2339 
L 414.72 293.343893 
L 414.72 292.453886 
L 414.72 291.56388 
L 414.72 290.673873 
L 414.72 289.783866 
L 414.72 288.89386 
L 414.72 288.003853 
L 414.72 287.113846 
L 414.72 286.223839 
L 414.72 285.333833 
L 414.72 284.443826 
L 414.72 283.553819 
L 414.72 282.663813 
L 414.72 281.773806 
L 414.72 280.883799 
L 414.72 279.993793 
L 414.72 279.103786 
L 414.72 278.213779 
L 414.72 277.323773 
L 414.72 276.433766 
L 414.72 275.543759 
L 414.72 274.653753 
L 414.72 273.763746 
L 414.72 272.873739 
L 414.72 271.983732 
L 414.72 271.093726 
L 414.72 270.203719 
L 414.72 269.313712 
L 414.72 268.423706 
L 414.72 267.533699 
L 414.72 266.643692 
L 414.72 265.753686 
L 414.72 264.863679 
L 414.72 263.973672 
L 414.72 263.083666 
L 414.72 262.193659 
L 414.72 261.303652 
L 414.72 260.413645 
L 414.72 259.523639 
L 414.72 258.633632 
L 414.72 257.743625 
L 414.72 256.853619 
L 414.72 255.963612 
L 414.72 255.073605 
L 414.72 254.183599 
L 414.72 253.293592 
L 414.72 252.403585 
L 414.72 251.513579 
L 414.72 250.623572 
L 414.72 249.733565 
L 414.72 248.843559 
L 414.72 247.953552 
L 414.72 247.063545 
L 414.72 246.173538 
L 414.72 245.283532 
L 414.72 244.393525 
L 414.72 243.503518 
L 414.72 242.613512 
L 414.72 241.723505 
L 414.72 240.833498 
L 414.72 239.943492 
L 414.72 239.053485 
L 414.72 238.163478 
L 414.72 237.273472 
L 414.72 236.383465 
L 414.72 235.493458 
L 414.72 234.647175 
L 413.737247 235.493458 
L 413.525619 235.672191 
L 412.675923 236.383465 
L 412.331237 236.666657 
L 411.585478 237.273472 
L 411.136856 237.632022 
L 410.464885 238.163478 
L 409.942475 238.56961 
L 409.312989 239.053485 
L 408.748094 239.480634 
L 408.128498 239.943492 
L 407.553712 240.366195 
L 406.909972 240.833498 
L 406.359331 241.227296 
L 405.655808 241.723505 
L 405.16495 242.064843 
L 404.364224 242.613512 
L 403.970569 242.879652 
L 403.033247 243.503518 
L 402.776187 243.672457 
L 401.660687 244.393525 
L 401.581806 244.44391 
L 400.387425 245.195469 
L 400.245127 245.283532 
L 399.193043 245.92757 
L 398.783529 246.173538 
L 397.998662 246.640194 
L 397.272257 247.063545 
L 396.804281 247.33373 
L 395.707946 247.953552 
L 395.6099 248.008505 
L 394.415518 248.666922 
L 394.088293 248.843559 
L 393.221137 249.308109 
L 392.407895 249.733565 
L 392.026756 249.931601 
L 390.832375 250.538638 
L 390.662001 250.623572 
L 389.637993 251.131122 
L 388.845532 251.513579 
L 388.443612 251.70658 
L 387.249231 252.266946 
L 386.951423 252.403585 
L 386.054849 252.813337 
L 384.972229 253.293592 
L 384.860468 253.343012 
L 383.666087 253.860765 
L 382.898492 254.183599 
L 382.471706 254.362723 
L 381.277324 254.851483 
L 380.719145 255.073605 
L 380.082943 255.326534 
L 378.888562 255.787757 
L 378.420459 255.963612 
L 377.694181 256.236504 
L 376.499799 256.671515 
L 375.98504 256.853619 
L 375.305418 257.09436 
L 374.111037 257.504352 
L 373.390752 257.743625 
L 372.916656 257.901502 
L 371.722274 258.287541 
L 370.609239 258.633632 
L 370.527893 258.659017 
L 369.333512 259.02204 
L 368.13913 259.370597 
L 367.596642 259.523639 
L 366.944749 259.708498 
L 365.750368 260.035361 
L 364.555987 260.34855 
L 364.299301 260.413645 
L 363.361605 260.653065 
L 362.167224 260.94564 
L 360.972843 261.225241 
L 360.624949 261.303652 
L 359.778462 261.496051 
L 358.58408 261.755875 
L 357.389699 262.003331 
L 356.425734 262.193659 
L 356.195318 262.239611 
L 355.000936 262.467881 
L 353.806555 262.684289 
L 352.612174 262.889033 
L 351.417793 263.082302 
L 351.40893 263.083666 
L 350.223411 263.268377 
L 349.02903 263.443195 
L 347.834649 263.606887 
L 346.640268 263.759603 
L 345.445886 263.901486 
L 344.791051 263.973672 
L 344.251505 264.034067 
L 343.057124 264.157575 
L 341.862742 264.270422 
L 340.668361 264.37271 
L 339.47398 264.464527 
L 338.279599 264.545954 
L 337.085217 264.617061 
L 335.890836 264.677905 
L 334.696455 264.728535 
L 333.502074 264.768987 
L 332.307692 264.799283 
L 331.113311 264.819438 
L 329.91893 264.82945 
L 328.724548 264.829305 
L 327.530167 264.818978 
L 326.335786 264.798427 
L 325.141405 264.767597 
L 323.947023 264.726419 
L 322.752642 264.674808 
L 321.558261 264.612663 
L 320.36388 264.539867 
L 319.169498 264.456286 
L 317.975117 264.361767 
L 316.780736 264.256141 
L 315.586355 264.139218 
L 314.391973 264.01079 
L 314.075202 263.973672 
L 313.197592 263.873418 
L 312.003211 263.725405 
L 310.808829 263.565483 
L 309.614448 263.393361 
L 308.420067 263.208724 
L 307.662539 263.083666 
L 307.225686 263.013232 
L 306.031304 262.808346 
L 304.836923 262.590228 
L 303.642542 262.35846 
L 302.840281 262.193659 
L 302.448161 262.114864 
L 301.253779 261.861708 
L 300.059398 261.593876 
L 298.865017 261.310828 
L 298.836098 261.303652 
L 297.670635 261.020211 
L 296.476254 260.71382 
L 295.365578 260.413645 
L 295.281873 260.391453 
L 294.087492 260.060764 
L 292.89311 259.712473 
L 292.274605 259.523639 
L 291.698729 259.350873 
L 290.504348 258.975935 
L 289.466401 258.633632 
L 289.309967 258.582879 
L 288.115585 258.179602 
L 286.921204 257.755282 
L 286.889569 257.743625 
L 285.726823 257.321273 
L 284.532441 256.864898 
L 284.503947 256.853619 
L 283.33806 256.398016 
L 282.279692 255.963612 
L 282.143679 255.908466 
L 280.949298 255.406036 
L 280.194012 255.073605 
L 279.754916 254.88239 
L 278.560535 254.340514 
L 278.227721 254.183599 
L 277.366154 253.780994 
L 276.368596 253.293592 
L 276.171773 253.198195 
L 274.977391 252.597576 
L 274.606437 252.403585 
L 273.78301 251.975581 
L 272.930605 251.513579 
L 272.588629 251.329159 
L 271.394247 250.658956 
L 271.333236 250.623572 
L 270.199866 249.968119 
L 269.809811 249.733565 
L 269.005485 249.250678 
L 268.352726 248.843559 
L 267.811104 248.505869 
L 266.95758 247.953552 
L 266.616722 247.732759 
L 265.62036 247.063545 
L 265.422341 246.93022 
L 264.337417 246.173538 
L 264.22796 246.096895 
L 263.10545 245.283532 
L 263.033579 245.231164 
L 261.921479 244.393525 
L 261.839197 244.331098 
L 260.782836 243.503518 
L 260.644816 243.394406 
L 259.687143 242.613512 
L 259.450435 242.418369 
L 258.632307 241.723505 
L 258.256054 241.399762 
L 257.616499 240.833498 
L 257.061672 240.33476 
L 256.638153 239.943492 
L 255.867291 239.218817 
L 255.695952 239.053485 
L 254.787739 238.163478 
L 254.67291 238.049349 
L 253.911305 237.273472 
L 253.478528 236.822273 
L 253.067331 236.383465 
L 252.284147 235.525722 
L 252.255326 235.493458 
L 251.46983 234.603452 
L 251.089766 234.160316 
L 250.714167 233.713445 
L 249.987345 232.823438 
L 249.895385 232.708896 
L 249.284153 231.933431 
L 248.701003 231.165023 
L 248.61026 231.043425 
L 247.957881 230.153418 
L 247.506622 229.513586 
L 247.332772 229.263411 
L 246.728872 228.373405 
L 246.312241 227.734558 
L 246.150505 227.483398 
L 245.591576 226.593391 
L 245.11786 225.803255 
L 245.058602 225.703385 
L 244.5414 224.813378 
L 244.049967 223.923371 
L 243.923478 223.687775 
L 243.574724 223.033365 
L 243.120578 222.143358 
L 242.729097 221.336515 
L 242.688939 221.253351 
L 242.269454 220.363344 
L 241.872203 219.473338 
L 241.534716 218.676484 
L 241.495315 218.583331 
L 241.129092 217.693324 
L 240.783142 216.803318 
L 240.456812 215.913311 
L 240.340334 215.58256 
L 240.142732 215.023304 
L 239.843088 214.133298 
L 239.56125 213.243291 
L 239.296592 212.353284 
L 239.145953 211.819315 
L 239.04466 211.463278 
L 238.803062 210.573271 
L 238.576982 209.683264 
L 238.365825 208.793258 
L 238.169001 207.903251 
L 237.985927 207.013244 
L 237.951572 206.837284 
L 237.809863 206.123237 
L 237.64512 205.233231 
L 237.492668 204.343224 
L 237.351954 203.453217 
L 237.222434 202.563211 
L 237.103566 201.673204 
L 236.99482 200.783197 
L 236.895668 199.893191 
L 236.805591 199.003184 
L 236.757191 198.479842 
L 236.722277 198.113177 
L 236.644728 197.223171 
L 236.575032 196.333164 
L 236.512698 195.443157 
L 236.457243 194.553151 
L 236.408193 193.663144 
L 236.365082 192.773137 
L 236.327453 191.88313 
L 236.294859 190.993124 
L 236.266866 190.103117 
L 236.243051 189.21311 
L 236.223004 188.323104 
L 236.206328 187.433097 
L 236.192644 186.54309 
L 236.181588 185.653084 
L 236.172813 184.763077 
L 236.165993 183.87307 
L 236.160822 182.983064 
L 236.157016 182.093057 
L 236.154316 181.20305 
L 236.152484 180.313043 
L 236.151313 179.423037 
L 236.15062 178.53303 
L 236.150253 177.643023 
L 236.150087 176.753017 
L 236.150029 175.86301 
L 236.150015 174.973003 
L 236.150015 174.082997 
L 236.150029 173.19299 
L 236.150087 172.302983 
L 236.150253 171.412977 
L 236.15062 170.52297 
L 236.151313 169.632963 
L 236.152484 168.742957 
L 236.154316 167.85295 
L 236.157016 166.962943 
L 236.160822 166.072936 
L 236.165993 165.18293 
L 236.172813 164.292923 
L 236.181588 163.402916 
L 236.192644 162.51291 
L 236.206328 161.622903 
L 236.223004 160.732896 
L 236.243051 159.84289 
L 236.266866 158.952883 
L 236.294859 158.062876 
L 236.327453 157.17287 
L 236.365082 156.282863 
L 236.408193 155.392856 
L 236.457243 154.502849 
L 236.512698 153.612843 
L 236.575032 152.722836 
L 236.644728 151.832829 
L 236.722277 150.942823 
L 236.757191 150.576158 
L 236.805591 150.052816 
L 236.895668 149.162809 
L 236.99482 148.272803 
L 237.103566 147.382796 
L 237.222434 146.492789 
L 237.351954 145.602783 
L 237.492668 144.712776 
L 237.64512 143.822769 
L 237.809863 142.932763 
L 237.951572 142.218716 
L 237.985927 142.042756 
L 238.169001 141.152749 
L 238.365825 140.262742 
L 238.576982 139.372736 
L 238.803062 138.482729 
L 239.04466 137.592722 
L 239.145953 137.236685 
L 239.296592 136.702716 
L 239.56125 135.812709 
L 239.843088 134.922702 
L 240.142732 134.032696 
L 240.340334 133.47344 
L 240.456812 133.142689 
L 240.783142 132.252682 
L 241.129092 131.362676 
L 241.495315 130.472669 
L 241.534716 130.379516 
L 241.872203 129.582662 
L 242.269454 128.692656 
L 242.688939 127.802649 
L 242.729097 127.719485 
L 243.120578 126.912642 
L 243.574724 126.022635 
L 243.923478 125.368225 
L 244.049967 125.132629 
L 244.5414 124.242622 
L 245.058602 123.352615 
L 245.11786 123.252745 
L 245.591576 122.462609 
L 246.150505 121.572602 
L 246.312241 121.321442 
L 246.728872 120.682595 
L 247.332772 119.792589 
L 247.506622 119.542414 
L 247.957881 118.902582 
L 248.61026 118.012575 
L 248.701003 117.890977 
L 249.284153 117.122569 
L 249.895385 116.347104 
L 249.987345 116.232562 
L 250.714167 115.342555 
L 251.089766 114.895684 
L 251.46983 114.452548 
L 252.255326 113.562542 
L 252.284147 113.530278 
L 253.067331 112.672535 
L 253.478528 112.233727 
L 253.911305 111.782528 
L 254.67291 111.006651 
L 254.787739 110.892522 
L 255.695952 110.002515 
L 255.867291 109.837183 
L 256.638153 109.112508 
L 257.061672 108.72124 
L 257.616499 108.222502 
L 258.256054 107.656238 
L 258.632307 107.332495 
L 259.450435 106.637631 
L 259.687143 106.442488 
L 260.644816 105.661594 
L 260.782836 105.552482 
L 261.839197 104.724902 
L 261.921479 104.662475 
L 263.033579 103.824836 
L 263.10545 103.772468 
L 264.22796 102.959105 
L 264.337417 102.882462 
L 265.422341 102.12578 
L 265.62036 101.992455 
L 266.616722 101.323241 
L 266.95758 101.102448 
L 267.811104 100.550131 
L 268.352726 100.212441 
L 269.005485 99.805322 
L 269.809811 99.322435 
L 270.199866 99.087881 
L 271.333236 98.432428 
L 271.394247 98.397044 
L 272.588629 97.726841 
L 272.930605 97.542421 
L 273.78301 97.080419 
L 274.606437 96.652415 
L 274.977391 96.458424 
L 276.171773 95.857805 
L 276.368596 95.762408 
L 277.366154 95.275006 
L 278.227721 94.872401 
L 278.560535 94.715486 
L 279.754916 94.17361 
L 280.194012 93.982395 
L 280.949298 93.649964 
L 282.143679 93.147534 
L 282.279692 93.092388 
L 283.33806 92.657984 
L 284.503947 92.202381 
L 284.532441 92.191102 
L 285.726823 91.734727 
L 286.889569 91.312375 
L 286.921204 91.300718 
L 288.115585 90.876398 
L 289.309967 90.473121 
L 289.466401 90.422368 
L 290.504348 90.080065 
L 291.698729 89.705127 
L 292.274605 89.532361 
L 292.89311 89.343527 
L 294.087492 88.995236 
L 295.281873 88.664547 
L 295.365578 88.642355 
L 296.476254 88.34218 
L 297.670635 88.035789 
L 298.836098 87.752348 
L 298.865017 87.745172 
L 300.059398 87.462124 
L 301.253779 87.194292 
L 302.448161 86.941136 
L 302.840281 86.862341 
L 303.642542 86.69754 
L 304.836923 86.465772 
L 306.031304 86.247654 
L 307.225686 86.042768 
L 307.662539 85.972334 
L 308.420067 85.847276 
L 309.614448 85.662639 
L 310.808829 85.490517 
L 312.003211 85.330595 
L 313.197592 85.182582 
L 314.075202 85.082328 
L 314.391973 85.04521 
L 315.586355 84.916782 
L 316.780736 84.799859 
L 317.975117 84.694233 
L 319.169498 84.599714 
L 320.36388 84.516133 
L 321.558261 84.443337 
L 322.752642 84.381192 
L 323.947023 84.329581 
L 325.141405 84.288403 
L 326.335786 84.257573 
L 327.530167 84.237022 
L 328.724548 84.226695 
L 329.91893 84.22655 
L 331.113311 84.236562 
L 332.307692 84.256717 
L 333.502074 84.287013 
L 334.696455 84.327465 
L 335.890836 84.378095 
L 337.085217 84.438939 
L 338.279599 84.510046 
L 339.47398 84.591473 
L 340.668361 84.68329 
L 341.862742 84.785578 
L 343.057124 84.898425 
L 344.251505 85.021933 
L 344.791051 85.082328 
L 345.445886 85.154514 
L 346.640268 85.296397 
L 347.834649 85.449113 
L 349.02903 85.612805 
L 350.223411 85.787623 
L 351.40893 85.972334 
L 351.417793 85.973698 
L 352.612174 86.166967 
L 353.806555 86.371711 
L 355.000936 86.588119 
L 356.195318 86.816389 
L 356.425734 86.862341 
L 357.389699 87.052669 
L 358.58408 87.300125 
L 359.778462 87.559949 
L 360.624949 87.752348 
L 360.972843 87.830759 
L 362.167224 88.11036 
L 363.361605 88.402935 
L 364.299301 88.642355 
L 364.555987 88.70745 
L 365.750368 89.020639 
L 366.944749 89.347502 
L 367.596642 89.532361 
L 368.13913 89.685403 
L 369.333512 90.03396 
L 370.527893 90.396983 
L 370.609239 90.422368 
L 371.722274 90.768459 
L 372.916656 91.154498 
L 373.390752 91.312375 
L 374.111037 91.551648 
L 375.305418 91.96164 
L 375.98504 92.202381 
L 376.499799 92.384485 
L 377.694181 92.819496 
L 378.420459 93.092388 
L 378.888562 93.268243 
L 380.082943 93.729466 
L 380.719145 93.982395 
L 381.277324 94.204517 
L 382.471706 94.693277 
L 382.898492 94.872401 
L 383.666087 95.195235 
L 384.860468 95.712988 
L 384.972229 95.762408 
L 386.054849 96.242663 
L 386.951423 96.652415 
L 387.249231 96.789054 
L 388.443612 97.34942 
L 388.845532 97.542421 
L 389.637993 97.924878 
L 390.662001 98.432428 
L 390.832375 98.517362 
L 392.026756 99.124399 
L 392.407895 99.322435 
L 393.221137 99.747891 
L 394.088293 100.212441 
L 394.415518 100.389078 
L 395.6099 101.047495 
L 395.707946 101.102448 
L 396.804281 101.72227 
L 397.272257 101.992455 
L 397.998662 102.415806 
L 398.783529 102.882462 
L 399.193043 103.12843 
L 400.245127 103.772468 
L 400.387425 103.860531 
L 401.581806 104.61209 
L 401.660687 104.662475 
L 402.776187 105.383543 
L 403.033247 105.552482 
L 403.970569 106.176348 
L 404.364224 106.442488 
L 405.16495 106.991157 
L 405.655808 107.332495 
L 406.359331 107.828704 
L 406.909972 108.222502 
L 407.553712 108.689805 
L 408.128498 109.112508 
L 408.748094 109.575366 
L 409.312989 110.002515 
L 409.942475 110.48639 
L 410.464885 110.892522 
L 411.136856 111.423978 
L 411.585478 111.782528 
L 412.331237 112.389343 
L 412.675923 112.672535 
L 413.525619 113.383809 
L 413.737247 113.562542 
L 414.72 114.408825 
L 414.72 113.562542 
L 414.72 112.672535 
L 414.72 111.782528 
L 414.72 110.892522 
L 414.72 110.002515 
L 414.72 109.112508 
L 414.72 108.222502 
L 414.72 107.332495 
L 414.72 106.442488 
L 414.72 105.552482 
L 414.72 104.662475 
L 414.72 103.772468 
L 414.72 102.882462 
L 414.72 101.992455 
L 414.72 101.102448 
L 414.72 100.212441 
L 414.72 99.322435 
L 414.72 98.432428 
L 414.72 97.542421 
L 414.72 96.652415 
L 414.72 95.762408 
L 414.72 94.872401 
L 414.72 93.982395 
L 414.72 93.092388 
L 414.72 92.202381 
L 414.72 91.312375 
L 414.72 90.422368 
L 414.72 89.532361 
L 414.72 88.642355 
L 414.72 87.752348 
L 414.72 86.862341 
L 414.72 85.972334 
L 414.72 85.082328 
L 414.72 84.192321 
L 414.72 83.302314 
L 414.72 82.412308 
L 414.72 81.522301 
L 414.72 80.632294 
L 414.72 79.742288 
L 414.72 78.852281 
L 414.72 77.962274 
L 414.72 77.072268 
L 414.72 76.182261 
L 414.72 75.292254 
L 414.72 74.402247 
L 414.72 73.512241 
L 414.72 72.622234 
L 414.72 71.732227 
L 414.72 70.842221 
L 414.72 69.952214 
L 414.72 69.062207 
L 414.72 68.172201 
L 414.72 67.282194 
L 414.72 66.392187 
L 414.72 65.502181 
L 414.72 64.612174 
L 414.72 63.722167 
L 414.72 62.832161 
L 414.72 61.942154 
L 414.72 61.052147 
L 414.72 60.16214 
L 414.72 59.272134 
L 414.72 58.382127 
L 414.72 57.49212 
L 414.72 56.602114 
L 414.72 55.712107 
L 414.72 54.8221 
L 414.72 53.932094 
L 414.72 53.042087 
L 414.72 52.15208 
L 414.72 51.262074 
L 414.72 50.372067 
L 414.72 49.48206 
L 414.72 48.592054 
L 414.72 47.702047 
L 414.72 46.81204 
L 414.72 45.922033 
L 414.72 45.032027 
L 414.72 44.14202 
L 414.72 43.252013 
L 414.72 42.362007 
L 414.72 41.472 
L 413.525619 41.472 
L 412.331237 41.472 
L 411.136856 41.472 
L 409.942475 41.472 
L 408.748094 41.472 
L 407.553712 41.472 
L 406.359331 41.472 
L 405.16495 41.472 
L 403.970569 41.472 
L 402.776187 41.472 
L 401.581806 41.472 
L 400.387425 41.472 
L 399.193043 41.472 
L 397.998662 41.472 
L 396.804281 41.472 
L 395.6099 41.472 
L 394.415518 41.472 
L 393.221137 41.472 
L 392.026756 41.472 
L 390.832375 41.472 
L 389.637993 41.472 
L 388.443612 41.472 
L 387.249231 41.472 
L 386.054849 41.472 
L 384.860468 41.472 
L 383.666087 41.472 
L 382.471706 41.472 
L 381.277324 41.472 
L 380.082943 41.472 
L 378.888562 41.472 
L 377.694181 41.472 
L 376.499799 41.472 
L 375.305418 41.472 
L 374.111037 41.472 
L 372.916656 41.472 
L 371.722274 41.472 
L 370.527893 41.472 
L 369.333512 41.472 
L 368.13913 41.472 
L 366.944749 41.472 
L 365.750368 41.472 
L 364.555987 41.472 
L 363.361605 41.472 
L 362.167224 41.472 
L 360.972843 41.472 
L 359.778462 41.472 
L 358.58408 41.472 
L 357.389699 41.472 
L 356.195318 41.472 
L 355.000936 41.472 
L 353.806555 41.472 
L 352.612174 41.472 
L 351.417793 41.472 
L 350.223411 41.472 
L 349.02903 41.472 
L 347.834649 41.472 
L 346.640268 41.472 
L 345.445886 41.472 
L 344.251505 41.472 
L 343.057124 41.472 
L 341.862742 41.472 
L 340.668361 41.472 
L 339.47398 41.472 
L 338.279599 41.472 
L 337.085217 41.472 
L 335.890836 41.472 
L 334.696455 41.472 
L 333.502074 41.472 
L 332.307692 41.472 
L 331.113311 41.472 
L 329.91893 41.472 
L 328.724548 41.472 
L 327.530167 41.472 
L 326.335786 41.472 
L 325.141405 41.472 
L 323.947023 41.472 
L 322.752642 41.472 
L 321.558261 41.472 
L 320.36388 41.472 
L 319.169498 41.472 
L 317.975117 41.472 
L 316.780736 41.472 
L 315.586355 41.472 
L 314.391973 41.472 
L 313.197592 41.472 
L 312.003211 41.472 
L 310.808829 41.472 
L 309.614448 41.472 
L 308.420067 41.472 
L 307.225686 41.472 
L 306.031304 41.472 
L 304.836923 41.472 
L 303.642542 41.472 
L 302.448161 41.472 
L 301.253779 41.472 
L 300.059398 41.472 
L 298.865017 41.472 
L 297.670635 41.472 
L 296.476254 41.472 
L 295.281873 41.472 
L 294.087492 41.472 
L 292.89311 41.472 
L 291.698729 41.472 
L 290.504348 41.472 
L 289.309967 41.472 
L 288.115585 41.472 
L 286.921204 41.472 
L 285.726823 41.472 
L 284.532441 41.472 
L 283.33806 41.472 
L 282.143679 41.472 
L 280.949298 41.472 
L 279.754916 41.472 
L 278.560535 41.472 
L 277.366154 41.472 
L 276.171773 41.472 
L 274.977391 41.472 
L 273.78301 41.472 
L 272.588629 41.472 
L 271.394247 41.472 
L 270.199866 41.472 
L 269.005485 41.472 
L 267.811104 41.472 
L 266.616722 41.472 
L 265.422341 41.472 
L 264.22796 41.472 
L 263.033579 41.472 
L 261.839197 41.472 
L 260.644816 41.472 
L 259.450435 41.472 
L 258.256054 41.472 
L 257.061672 41.472 
L 255.867291 41.472 
L 254.67291 41.472 
L 253.478528 41.472 
L 252.284147 41.472 
L 251.089766 41.472 
L 249.895385 41.472 
L 248.701003 41.472 
L 247.506622 41.472 
L 246.312241 41.472 
L 245.11786 41.472 
L 243.923478 41.472 
L 242.729097 41.472 
L 241.534716 41.472 
L 240.340334 41.472 
L 239.145953 41.472 
L 237.951572 41.472 
L 236.757191 41.472 
L 235.562809 41.472 
L 234.368428 41.472 
L 233.174047 41.472 
L 231.979666 41.472 
L 230.785284 41.472 
L 229.590903 41.472 
L 228.396522 41.472 
L 227.20214 41.472 
L 226.007759 41.472 
L 224.813378 41.472 
L 223.618997 41.472 
L 222.424615 41.472 
L 221.230234 41.472 
L 220.035853 41.472 
L 218.841472 41.472 
L 217.64709 41.472 
L 216.452709 41.472 
L 215.258328 41.472 
L 214.063946 41.472 
L 212.869565 41.472 
L 211.675184 41.472 
L 210.480803 41.472 
L 209.286421 41.472 
L 208.09204 41.472 
L 206.897659 41.472 
L 205.703278 41.472 
L 204.508896 41.472 
L 203.314515 41.472 
L 202.120134 41.472 
L 200.925753 41.472 
L 199.731371 41.472 
L 198.53699 41.472 
L 197.342609 41.472 
L 196.148227 41.472 
L 194.953846 41.472 
L 193.759465 41.472 
L 192.565084 41.472 
L 191.370702 41.472 
L 190.176321 41.472 
L 188.98194 41.472 
L 187.787559 41.472 
L 186.593177 41.472 
L 185.398796 41.472 
L 184.204415 41.472 
L 183.010033 41.472 
L 181.815652 41.472 
L 180.621271 41.472 
L 179.42689 41.472 
L 178.232508 41.472 
L 177.038127 41.472 
L 175.843746 41.472 
L 174.649365 41.472 
L 173.454983 41.472 
L 172.260602 41.472 
L 171.066221 41.472 
L 169.871839 41.472 
L 168.677458 41.472 
L 167.483077 41.472 
L 166.288696 41.472 
L 165.094314 41.472 
L 163.899933 41.472 
L 162.705552 41.472 
L 161.511171 41.472 
L 160.316789 41.472 
L 159.122408 41.472 
L 157.928027 41.472 
L 156.733645 41.472 
L 155.539264 41.472 
L 154.344883 41.472 
L 153.150502 41.472 
L 151.95612 41.472 
L 150.761739 41.472 
L 149.567358 41.472 
L 148.372977 41.472 
L 147.178595 41.472 
L 145.984214 41.472 
L 144.789833 41.472 
L 143.595452 41.472 
L 142.40107 41.472 
L 141.206689 41.472 
L 140.012308 41.472 
L 138.817926 41.472 
L 137.623545 41.472 
L 136.429164 41.472 
L 135.234783 41.472 
L 134.040401 41.472 
L 132.84602 41.472 
L 131.651639 41.472 
L 130.457258 41.472 
L 129.262876 41.472 
L 128.068495 41.472 
L 126.874114 41.472 
L 125.679732 41.472 
L 124.485351 41.472 
L 123.29097 41.472 
L 122.096589 41.472 
L 120.902207 41.472 
L 119.707826 41.472 
L 118.513445 41.472 
L 117.319064 41.472 
L 116.124682 41.472 
L 114.930301 41.472 
L 113.73592 41.472 
L 112.541538 41.472 
L 111.347157 41.472 
L 110.152776 41.472 
L 108.958395 41.472 
L 107.764013 41.472 
L 106.569632 41.472 
L 105.375251 41.472 
L 104.18087 41.472 
L 102.986488 41.472 
L 101.792107 41.472 
L 100.597726 41.472 
L 99.403344 41.472 
L 98.208963 41.472 
L 97.014582 41.472 
L 95.820201 41.472 
L 94.625819 41.472 
L 93.431438 41.472 
L 92.237057 41.472 
L 91.042676 41.472 
L 89.848294 41.472 
L 88.653913 41.472 
L 87.459532 41.472 
L 86.265151 41.472 
L 85.070769 41.472 
L 83.876388 41.472 
L 82.682007 41.472 
L 81.487625 41.472 
L 80.293244 41.472 
L 79.098863 41.472 
L 77.904482 41.472 
L 76.7101 41.472 
L 75.515719 41.472 
L 74.321338 41.472 
L 73.126957 41.472 
L 71.932575 41.472 
L 70.738194 41.472 
L 69.543813 41.472 
L 68.349431 41.472 
L 67.15505 41.472 
L 65.960669 41.472 
L 64.766288 41.472 
L 63.571906 41.472 
L 62.377525 41.472 
L 61.183144 41.472 
L 59.988763 41.472 
L 58.794381 41.472 
L 57.6 41.472 
L 57.6 42.362007 
L 57.6 43.252013 
L 57.6 44.14202 
L 57.6 45.032027 
L 57.6 45.922033 
L 57.6 46.81204 
L 57.6 47.702047 
L 57.6 48.592054 
L 57.6 49.48206 
L 57.6 50.372067 
L 57.6 51.262074 
L 57.6 52.15208 
L 57.6 53.042087 
L 57.6 53.932094 
L 57.6 54.8221 
L 57.6 55.712107 
L 57.6 56.602114 
L 57.6 57.49212 
L 57.6 58.382127 
L 57.6 59.272134 
L 57.6 60.16214 
L 57.6 61.052147 
L 57.6 61.942154 
L 57.6 62.832161 
L 57.6 63.722167 
L 57.6 64.612174 
L 57.6 65.502181 
L 57.6 66.392187 
L 57.6 67.282194 
L 57.6 68.172201 
L 57.6 69.062207 
L 57.6 69.952214 
L 57.6 70.842221 
L 57.6 71.732227 
L 57.6 72.622234 
L 57.6 73.512241 
L 57.6 74.402247 
L 57.6 75.292254 
L 57.6 76.182261 
L 57.6 77.072268 
L 57.6 77.962274 
L 57.6 78.852281 
L 57.6 79.742288 
L 57.6 80.632294 
L 57.6 81.522301 
L 57.6 82.412308 
L 57.6 83.302314 
L 57.6 84.192321 
L 57.6 85.082328 
L 57.6 85.972334 
L 57.6 86.862341 
L 57.6 87.752348 
L 57.6 88.642355 
L 57.6 89.532361 
L 57.6 90.422368 
L 57.6 91.312375 
L 57.6 92.202381 
L 57.6 93.092388 
L 57.6 93.982395 
L 57.6 94.872401 
L 57.6 95.762408 
L 57.6 96.652415 
L 57.6 97.542421 
L 57.6 98.432428 
L 57.6 99.322435 
L 57.6 100.212441 
L 57.6 101.102448 
L 57.6 101.992455 
L 57.6 102.882462 
L 57.6 103.772468 
L 57.6 104.662475 
L 57.6 105.552482 
L 57.6 106.442488 
L 57.6 107.332495 
L 57.6 108.222502 
L 57.6 109.112508 
L 57.6 110.002515 
L 57.6 110.892522 
L 57.6 111.782528 
L 57.6 112.672535 
L 57.6 113.562542 
L 57.6 114.452548 
L 57.6 115.342555 
L 57.6 116.232562 
L 57.6 117.122569 
L 57.6 118.012575 
L 57.6 118.902582 
L 57.6 119.792589 
L 57.6 120.682595 
L 57.6 121.572602 
L 57.6 122.462609 
L 57.6 123.352615 
L 57.6 124.242622 
L 57.6 125.132629 
L 57.6 126.022635 
L 57.6 126.912642 
L 57.6 127.802649 
L 57.6 128.692656 
L 57.6 129.582662 
L 57.6 130.472669 
L 57.6 131.362676 
L 57.6 132.252682 
L 57.6 133.142689 
L 57.6 134.032696 
L 57.6 134.922702 
L 57.6 135.812709 
L 57.6 136.702716 
L 57.6 137.592722 
L 57.6 138.482729 
L 57.6 139.372736 
L 57.6 140.262742 
L 57.6 141.152749 
L 57.6 142.042756 
L 57.6 142.932763 
L 57.6 143.822769 
L 57.6 144.712776 
L 57.6 145.602783 
L 57.6 146.492789 
L 57.6 147.382796 
L 57.6 148.272803 
L 57.6 149.162809 
L 57.6 150.052816 
L 57.6 150.942823 
L 57.6 151.832829 
L 57.6 152.722836 
L 57.6 153.612843 
L 57.6 154.502849 
L 57.6 155.392856 
L 57.6 156.282863 
L 57.6 157.17287 
L 57.6 158.062876 
L 57.6 158.952883 
L 57.6 159.84289 
L 57.6 160.732896 
L 57.6 161.622903 
L 57.6 162.51291 
L 57.6 163.402916 
L 57.6 164.292923 
L 57.6 165.18293 
L 57.6 166.072936 
L 57.6 166.962943 
L 57.6 167.85295 
L 57.6 168.742957 
L 57.6 169.632963 
L 57.6 170.52297 
L 57.6 171.412977 
L 57.6 172.302983 
L 57.6 173.19299 
L 57.6 174.082997 
L 57.6 174.973003 
L 57.6 175.86301 
L 57.6 176.753017 
L 57.6 177.643023 
L 57.6 178.53303 
L 57.6 179.423037 
L 57.6 180.313043 
L 57.6 181.20305 
L 57.6 182.093057 
L 57.6 182.983064 
L 57.6 183.87307 
L 57.6 184.763077 
L 57.6 185.653084 
L 57.6 186.54309 
L 57.6 187.433097 
L 57.6 188.323104 
L 57.6 189.21311 
L 57.6 190.103117 
L 57.6 190.993124 
L 57.6 191.88313 
L 57.6 192.773137 
L 57.6 193.663144 
L 57.6 194.553151 
L 57.6 195.443157 
L 57.6 196.333164 
L 57.6 197.223171 
L 57.6 198.113177 
L 57.6 199.003184 
L 57.6 199.893191 
L 57.6 200.783197 
L 57.6 201.673204 
L 57.6 202.563211 
L 57.6 203.453217 
L 57.6 204.343224 
L 57.6 205.233231 
L 57.6 206.123237 
L 57.6 207.013244 
L 57.6 207.903251 
L 57.6 208.793258 
L 57.6 209.683264 
L 57.6 210.573271 
L 57.6 211.463278 
L 57.6 212.353284 
L 57.6 213.243291 
L 57.6 214.133298 
L 57.6 215.023304 
L 57.6 215.913311 
L 57.6 216.803318 
L 57.6 217.693324 
L 57.6 218.583331 
L 57.6 219.473338 
L 57.6 220.363344 
L 57.6 221.253351 
L 57.6 222.143358 
L 57.6 223.033365 
L 57.6 223.923371 
L 57.6 224.813378 
L 57.6 225.703385 
L 57.6 226.593391 
L 57.6 227.483398 
L 57.6 228.373405 
L 57.6 229.263411 
L 57.6 230.153418 
L 57.6 231.043425 
L 57.6 231.933431 
L 57.6 232.823438 
L 57.6 233.713445 
L 57.6 234.603452 
L 57.6 235.493458 
L 57.6 236.383465 
L 57.6 237.273472 
L 57.6 238.163478 
L 57.6 239.053485 
L 57.6 239.943492 
L 57.6 240.833498 
L 57.6 241.723505 
L 57.6 242.613512 
L 57.6 243.503518 
L 57.6 244.393525 
L 57.6 245.283532 
L 57.6 246.173538 
L 57.6 247.063545 
L 57.6 247.953552 
L 57.6 248.843559 
L 57.6 249.733565 
L 57.6 250.623572 
L 57.6 251.513579 
L 57.6 252.403585 
L 57.6 253.293592 
L 57.6 254.183599 
L 57.6 255.073605 
L 57.6 255.963612 
L 57.6 256.853619 
L 57.6 257.743625 
L 57.6 258.633632 
L 57.6 259.523639 
L 57.6 260.413645 
L 57.6 261.303652 
L 57.6 262.193659 
L 57.6 263.083666 
L 57.6 263.973672 
L 57.6 264.863679 
L 57.6 265.753686 
L 57.6 266.643692 
L 57.6 267.533699 
L 57.6 268.423706 
L 57.6 269.313712 
L 57.6 270.203719 
L 57.6 271.093726 
L 57.6 271.983732 
L 57.6 272.873739 
L 57.6 273.763746 
L 57.6 274.653753 
L 57.6 275.543759 
L 57.6 276.433766 
L 57.6 277.323773 
L 57.6 278.213779 
L 57.6 279.103786 
L 57.6 279.993793 
L 57.6 280.883799 
L 57.6 281.773806 
L 57.6 282.663813 
L 57.6 283.553819 
L 57.6 284.443826 
L 57.6 285.333833 
L 57.6 286.223839 
L 57.6 287.113846 
L 57.6 288.003853 
L 57.6 288.89386 
L 57.6 289.783866 
L 57.6 290.673873 
L 57.6 291.56388 
L 57.6 292.453886 
L 57.6 293.343893 
L 57.6 294.2339 
L 57.6 295.123906 
L 57.6 296.013913 
L 57.6 296.90392 
L 57.6 297.793926 
L 57.6 298.683933 
L 57.6 299.57394 
L 57.6 300.463946 
L 57.6 301.353953 
L 57.6 302.24396 
L 57.6 303.133967 
L 57.6 304.023973 
L 57.6 304.91398 
L 57.6 305.803987 
L 57.6 306.693993 
L 57.6 307.584 
z
" clip-path="url(#p7790c93298)" style="fill: #ffc0cb; fill-opacity: 0.3"/>
   </g>
   <g id="matplotlib.axis_1">
    <g id="xtick_1">
     <g id="line2d_1">
      <path d="M 57.6 307.584 
L 57.6 41.472 
" clip-path="url(#p7790c93298)" style="fill: none; stroke: #b0b0b0; stroke-opacity: 0.3; stroke-width: 0.8; stroke-linecap: square"/>
     </g>
     <g id="line2d_2">
      <defs>
       <path id="me1265cd5e5" d="M 0 0 
L 0 3.5 
" style="stroke: #000000; stroke-width: 0.8"/>
      </defs>
      <g>
       <use xlink:href="#me1265cd5e5" x="57.6" y="307.584" style="stroke: #000000; stroke-width: 0.8"/>
      </g>
     </g>
     <g id="text_1">
      <!-- −10.0 -->
      <g transform="translate(42.277344 322.182437) scale(0.1 -0.1)">
       <defs>
        <path id="DejaVuSans-2212" d="M 678 2272 
L 4684 2272 
L 4684 1741 
L 678 1741 
L 678 2272 
z
" transform="scale(0.015625)"/>
        <path id="DejaVuSans-31" d="M 794 531 
L 1825 531 
L 1825 4091 
L 703 3866 
L 703 4441 
L 1819 4666 
L 2450 4666 
L 2450 531 
L 3481 531 
L 3481 0 
L 794 0 
L 794 531 
z
" transform="scale(0.015625)"/>
        <path id="DejaVuSans-30" d="M 2034 4250 
Q 1547 4250 1301 3770 
Q 1056 3291 1056 2328 
Q 1056 1369 1301 889 
Q 1547 409 2034 409 
Q 2525 409 2770 889 
Q 3016 1369 3016 2328 
Q 3016 3291 2770 3770 
Q 2525 4250 2034 4250 
z
M 2034 4750 
Q 2819 4750 3233 4129 
Q 3647 3509 3647 2328 
Q 3647 1150 3233 529 
Q 2819 -91 2034 -91 
Q 1250 -91 836 529 
Q 422 1150 422 2328 
Q 422 3509 836 4129 
Q 1250 4750 2034 4750 
z
" transform="scale(0.015625)"/>
        <path id="DejaVuSans-2e" d="M 684 794 
L 1344 794 
L 1344 0 
L 684 0 
L 684 794 
z
" transform="scale(0.015625)"/>
       </defs>
       <use xlink:href="#DejaVuSans-2212"/>
       <use xlink:href="#DejaVuSans-31" x="83.789062"/>
       <use xlink:href="#DejaVuSans-30" x="147.412109"/>
       <use xlink:href="#DejaVuSans-2e" x="211.035156"/>
       <use xlink:href="#DejaVuSans-30" x="242.822266"/>
      </g>
     </g>
    </g>
    <g id="xtick_2">
     <g id="line2d_3">
      <path d="M 102.24 307.584 
L 102.24 41.472 
" clip-path="url(#p7790c93298)" style="fill: none; stroke: #b0b0b0; stroke-opacity: 0.3; stroke-width: 0.8; stroke-linecap: square"/>
     </g>
     <g id="line2d_4">
      <g>
       <use xlink:href="#me1265cd5e5" x="102.24" y="307.584" style="stroke: #000000; stroke-width: 0.8"/>
      </g>
     </g>
     <g id="text_2">
      <!-- −7.5 -->
      <g transform="translate(90.098594 322.182437) scale(0.1 -0.1)">
       <defs>
        <path id="DejaVuSans-37" d="M 525 4666 
L 3525 4666 
L 3525 4397 
L 1831 0 
L 1172 0 
L 2766 4134 
L 525 4134 
L 525 4666 
z
" transform="scale(0.015625)"/>
        <path id="DejaVuSans-35" d="M 691 4666 
L 3169 4666 
L 3169 4134 
L 1269 4134 
L 1269 2991 
Q 1406 3038 1543 3061 
Q 1681 3084 1819 3084 
Q 2600 3084 3056 2656 
Q 3513 2228 3513 1497 
Q 3513 744 3044 326 
Q 2575 -91 1722 -91 
Q 1428 -91 1123 -41 
Q 819 9 494 109 
L 494 744 
Q 775 591 1075 516 
Q 1375 441 1709 441 
Q 2250 441 2565 725 
Q 2881 1009 2881 1497 
Q 2881 1984 2565 2268 
Q 2250 2553 1709 2553 
Q 1456 2553 1204 2497 
Q 953 2441 691 2322 
L 691 4666 
z
" transform="scale(0.015625)"/>
       </defs>
       <use xlink:href="#DejaVuSans-2212"/>
       <use xlink:href="#DejaVuSans-37" x="83.789062"/>
       <use xlink:href="#DejaVuSans-2e" x="147.412109"/>
       <use xlink:href="#DejaVuSans-35" x="179.199219"/>
      </g>
     </g>
    </g>
    <g id="xtick_3">
     <g id="line2d_5">
      <path d="M 146.88 307.584 
L 146.88 41.472 
" clip-path="url(#p7790c93298)" style="fill: none; stroke: #b0b0b0; stroke-opacity: 0.3; stroke-width: 0.8; stroke-linecap: square"/>
     </g>
     <g id="line2d_6">
      <g>
       <use xlink:href="#me1265cd5e5" x="146.88" y="307.584" style="stroke: #000000; stroke-width: 0.8"/>
      </g>
     </g>
     <g id="text_3">
      <!-- −5.0 -->
      <g transform="translate(134.738594 322.182437) scale(0.1 -0.1)">
       <use xlink:href="#DejaVuSans-2212"/>
       <use xlink:href="#DejaVuSans-35" x="83.789062"/>
       <use xlink:href="#DejaVuSans-2e" x="147.412109"/>
       <use xlink:href="#DejaVuSans-30" x="179.199219"/>
      </g>
     </g>
    </g>
    <g id="xtick_4">
     <g id="line2d_7">
      <path d="M 191.52 307.584 
L 191.52 41.472 
" clip-path="url(#p7790c93298)" style="fill: none; stroke: #b0b0b0; stroke-opacity: 0.3; stroke-width: 0.8; stroke-linecap: square"/>
     </g>
     <g id="line2d_8">
      <g>
       <use xlink:href="#me1265cd5e5" x="191.52" y="307.584" style="stroke: #000000; stroke-width: 0.8"/>
      </g>
     </g>
     <g id="text_4">
      <!-- −2.5 -->
      <g transform="translate(179.378594 322.182437) scale(0.1 -0.1)">
       <defs>
        <path id="DejaVuSans-32" d="M 1228 531 
L 3431 531 
L 3431 0 
L 469 0 
L 469 531 
Q 828 903 1448 1529 
Q 2069 2156 2228 2338 
Q 2531 2678 2651 2914 
Q 2772 3150 2772 3378 
Q 2772 3750 2511 3984 
Q 2250 4219 1831 4219 
Q 1534 4219 1204 4116 
Q 875 4013 500 3803 
L 500 4441 
Q 881 4594 1212 4672 
Q 1544 4750 1819 4750 
Q 2544 4750 2975 4387 
Q 3406 4025 3406 3419 
Q 3406 3131 3298 2873 
Q 3191 2616 2906 2266 
Q 2828 2175 2409 1742 
Q 1991 1309 1228 531 
z
" transform="scale(0.015625)"/>
       </defs>
       <use xlink:href="#DejaVuSans-2212"/>
       <use xlink:href="#DejaVuSans-32" x="83.789062"/>
       <use xlink:href="#DejaVuSans-2e" x="147.412109"/>
       <use xlink:href="#DejaVuSans-35" x="179.199219"/>
      </g>
     </g>
    </g>
    <g id="xtick_5">
     <g id="line2d_9">
      <path d="M 236.16 307.584 
L 236.16 41.472 
" clip-path="url(#p7790c93298)" style="fill: none; stroke: #b0b0b0; stroke-opacity: 0.3; stroke-width: 0.8; stroke-linecap: square"/>
     </g>
     <g id="line2d_10">
      <g>
       <use xlink:href="#me1265cd5e5" x="236.16" y="307.584" style="stroke: #000000; stroke-width: 0.8"/>
      </g>
     </g>
     <g id="text_5">
      <!-- 0.0 -->
      <g transform="translate(228.208438 322.182437) scale(0.1 -0.1)">
       <use xlink:href="#DejaVuSans-30"/>
       <use xlink:href="#DejaVuSans-2e" x="63.623047"/>
       <use xlink:href="#DejaVuSans-30" x="95.410156"/>
      </g>
     </g>
    </g>
    <g id="xtick_6">
     <g id="line2d_11">
      <path d="M 280.8 307.584 
L 280.8 41.472 
" clip-path="url(#p7790c93298)" style="fill: none; stroke: #b0b0b0; stroke-opacity: 0.3; stroke-width: 0.8; stroke-linecap: square"/>
     </g>
     <g id="line2d_12">
      <g>
       <use xlink:href="#me1265cd5e5" x="280.8" y="307.584" style="stroke: #000000; stroke-width: 0.8"/>
      </g>
     </g>
     <g id="text_6">
      <!-- 2.5 -->
      <g transform="translate(272.848437 322.182437) scale(0.1 -0.1)">
       <use xlink:href="#DejaVuSans-32"/>
       <use xlink:href="#DejaVuSans-2e" x="63.623047"/>
       <use xlink:href="#DejaVuSans-35" x="95.410156"/>
      </g>
     </g>
    </g>
    <g id="xtick_7">
     <g id="line2d_13">
      <path d="M 325.44 307.584 
L 325.44 41.472 
" clip-path="url(#p7790c93298)" style="fill: none; stroke: #b0b0b0; stroke-opacity: 0.3; stroke-width: 0.8; stroke-linecap: square"/>
     </g>
     <g id="line2d_14">
      <g>
       <use xlink:href="#me1265cd5e5" x="325.44" y="307.584" style="stroke: #000000; stroke-width: 0.8"/>
      </g>
     </g>
     <g id="text_7">
      <!-- 5.0 -->
      <g transform="translate(317.488437 322.182437) scale(0.1 -0.1)">
       <use xlink:href="#DejaVuSans-35"/>
       <use xlink:href="#DejaVuSans-2e" x="63.623047"/>
       <use xlink:href="#DejaVuSans-30" x="95.410156"/>
      </g>
     </g>
    </g>
    <g id="xtick_8">
     <g id="line2d_15">
      <path d="M 370.08 307.584 
L 370.08 41.472 
" clip-path="url(#p7790c93298)" style="fill: none; stroke: #b0b0b0; stroke-opacity: 0.3; stroke-width: 0.8; stroke-linecap: square"/>
     </g>
     <g id="line2d_16">
      <g>
       <use xlink:href="#me1265cd5e5" x="370.08" y="307.584" style="stroke: #000000; stroke-width: 0.8"/>
      </g>
     </g>
     <g id="text_8">
      <!-- 7.5 -->
      <g transform="translate(362.128438 322.182437) scale(0.1 -0.1)">
       <use xlink:href="#DejaVuSans-37"/>
       <use xlink:href="#DejaVuSans-2e" x="63.623047"/>
       <use xlink:href="#DejaVuSans-35" x="95.410156"/>
      </g>
     </g>
    </g>
    <g id="xtick_9">
     <g id="line2d_17">
      <path d="M 414.72 307.584 
L 414.72 41.472 
" clip-path="url(#p7790c93298)" style="fill: none; stroke: #b0b0b0; stroke-opacity: 0.3; stroke-width: 0.8; stroke-linecap: square"/>
     </g>
     <g id="line2d_18">
      <g>
       <use xlink:href="#me1265cd5e5" x="414.72" y="307.584" style="stroke: #000000; stroke-width: 0.8"/>
      </g>
     </g>
     <g id="text_9">
      <!-- 10.0 -->
      <g transform="translate(403.587188 322.182437) scale(0.1 -0.1)">
       <use xlink:href="#DejaVuSans-31"/>
       <use xlink:href="#DejaVuSans-30" x="63.623047"/>
       <use xlink:href="#DejaVuSans-2e" x="127.246094"/>
       <use xlink:href="#DejaVuSans-30" x="159.033203"/>
      </g>
     </g>
    </g>
    <g id="text_10">
     <!-- Re(z) -->
     <g transform="translate(223.308437 335.860562) scale(0.1 -0.1)">
      <defs>
       <path id="DejaVuSans-52" d="M 2841 2188 
Q 3044 2119 3236 1894 
Q 3428 1669 3622 1275 
L 4263 0 
L 3584 0 
L 2988 1197 
Q 2756 1666 2539 1819 
Q 2322 1972 1947 1972 
L 1259 1972 
L 1259 0 
L 628 0 
L 628 4666 
L 2053 4666 
Q 2853 4666 3247 4331 
Q 3641 3997 3641 3322 
Q 3641 2881 3436 2590 
Q 3231 2300 2841 2188 
z
M 1259 4147 
L 1259 2491 
L 2053 2491 
Q 2509 2491 2742 2702 
Q 2975 2913 2975 3322 
Q 2975 3731 2742 3939 
Q 2509 4147 2053 4147 
L 1259 4147 
z
" transform="scale(0.015625)"/>
       <path id="DejaVuSans-65" d="M 3597 1894 
L 3597 1613 
L 953 1613 
Q 991 1019 1311 708 
Q 1631 397 2203 397 
Q 2534 397 2845 478 
Q 3156 559 3463 722 
L 3463 178 
Q 3153 47 2828 -22 
Q 2503 -91 2169 -91 
Q 1331 -91 842 396 
Q 353 884 353 1716 
Q 353 2575 817 3079 
Q 1281 3584 2069 3584 
Q 2775 3584 3186 3129 
Q 3597 2675 3597 1894 
z
M 3022 2063 
Q 3016 2534 2758 2815 
Q 2500 3097 2075 3097 
Q 1594 3097 1305 2825 
Q 1016 2553 972 2059 
L 3022 2063 
z
" transform="scale(0.015625)"/>
       <path id="DejaVuSans-28" d="M 1984 4856 
Q 1566 4138 1362 3434 
Q 1159 2731 1159 2009 
Q 1159 1288 1364 580 
Q 1569 -128 1984 -844 
L 1484 -844 
Q 1016 -109 783 600 
Q 550 1309 550 2009 
Q 550 2706 781 3412 
Q 1013 4119 1484 4856 
L 1984 4856 
z
" transform="scale(0.015625)"/>
       <path id="DejaVuSans-7a" d="M 353 3500 
L 3084 3500 
L 3084 2975 
L 922 459 
L 3084 459 
L 3084 0 
L 275 0 
L 275 525 
L 2438 3041 
L 353 3041 
L 353 3500 
z
" transform="scale(0.015625)"/>
       <path id="DejaVuSans-29" d="M 513 4856 
L 1013 4856 
Q 1481 4119 1714 3412 
Q 1947 2706 1947 2009 
Q 1947 1309 1714 600 
Q 1481 -109 1013 -844 
L 513 -844 
Q 928 -128 1133 580 
Q 1338 1288 1338 2009 
Q 1338 2731 1133 3434 
Q 928 4138 513 4856 
z
" transform="scale(0.015625)"/>
      </defs>
      <use xlink:href="#DejaVuSans-52"/>
      <use xlink:href="#DejaVuSans-65" x="64.982422"/>
      <use xlink:href="#DejaVuSans-28" x="126.505859"/>
      <use xlink:href="#DejaVuSans-7a" x="165.519531"/>
      <use xlink:href="#DejaVuSans-29" x="218.009766"/>
     </g>
    </g>
   </g>
   <g id="matplotlib.axis_2">
    <g id="ytick_1">
     <g id="line2d_19">
      <path d="M 57.6 307.584 
L 414.72 307.584 
" clip-path="url(#p7790c93298)" style="fill: none; stroke: #b0b0b0; stroke-opacity: 0.3; stroke-width: 0.8; stroke-linecap: square"/>
     </g>
     <g id="line2d_20">
      <defs>
       <path id="mbf31e35818" d="M 0 0 
L -3.5 0 
" style="stroke: #000000; stroke-width: 0.8"/>
      </defs>
      <g>
       <use xlink:href="#mbf31e35818" x="57.6" y="307.584" style="stroke: #000000; stroke-width: 0.8"/>
      </g>
     </g>
     <g id="text_11">
      <!-- −10.0 -->
      <g transform="translate(19.954687 311.383219) scale(0.1 -0.1)">
       <use xlink:href="#DejaVuSans-2212"/>
       <use xlink:href="#DejaVuSans-31" x="83.789062"/>
       <use xlink:href="#DejaVuSans-30" x="147.412109"/>
       <use xlink:href="#DejaVuSans-2e" x="211.035156"/>
       <use xlink:href="#DejaVuSans-30" x="242.822266"/>
      </g>
     </g>
    </g>
    <g id="ytick_2">
     <g id="line2d_21">
      <path d="M 57.6 274.32 
L 414.72 274.32 
" clip-path="url(#p7790c93298)" style="fill: none; stroke: #b0b0b0; stroke-opacity: 0.3; stroke-width: 0.8; stroke-linecap: square"/>
     </g>
     <g id="line2d_22">
      <g>
       <use xlink:href="#mbf31e35818" x="57.6" y="274.32" style="stroke: #000000; stroke-width: 0.8"/>
      </g>
     </g>
     <g id="text_12">
      <!-- −7.5 -->
      <g transform="translate(26.317187 278.119219) scale(0.1 -0.1)">
       <use xlink:href="#DejaVuSans-2212"/>
       <use xlink:href="#DejaVuSans-37" x="83.789062"/>
       <use xlink:href="#DejaVuSans-2e" x="147.412109"/>
       <use xlink:href="#DejaVuSans-35" x="179.199219"/>
      </g>
     </g>
    </g>
    <g id="ytick_3">
     <g id="line2d_23">
      <path d="M 57.6 241.056 
L 414.72 241.056 
" clip-path="url(#p7790c93298)" style="fill: none; stroke: #b0b0b0; stroke-opacity: 0.3; stroke-width: 0.8; stroke-linecap: square"/>
     </g>
     <g id="line2d_24">
      <g>
       <use xlink:href="#mbf31e35818" x="57.6" y="241.056" style="stroke: #000000; stroke-width: 0.8"/>
      </g>
     </g>
     <g id="text_13">
      <!-- −5.0 -->
      <g transform="translate(26.317187 244.855219) scale(0.1 -0.1)">
       <use xlink:href="#DejaVuSans-2212"/>
       <use xlink:href="#DejaVuSans-35" x="83.789062"/>
       <use xlink:href="#DejaVuSans-2e" x="147.412109"/>
       <use xlink:href="#DejaVuSans-30" x="179.199219"/>
      </g>
     </g>
    </g>
    <g id="ytick_4">
     <g id="line2d_25">
      <path d="M 57.6 207.792 
L 414.72 207.792 
" clip-path="url(#p7790c93298)" style="fill: none; stroke: #b0b0b0; stroke-opacity: 0.3; stroke-width: 0.8; stroke-linecap: square"/>
     </g>
     <g id="line2d_26">
      <g>
       <use xlink:href="#mbf31e35818" x="57.6" y="207.792" style="stroke: #000000; stroke-width: 0.8"/>
      </g>
     </g>
     <g id="text_14">
      <!-- −2.5 -->
      <g transform="translate(26.317187 211.591219) scale(0.1 -0.1)">
       <use xlink:href="#DejaVuSans-2212"/>
       <use xlink:href="#DejaVuSans-32" x="83.789062"/>
       <use xlink:href="#DejaVuSans-2e" x="147.412109"/>
       <use xlink:href="#DejaVuSans-35" x="179.199219"/>
      </g>
     </g>
    </g>
    <g id="ytick_5">
     <g id="line2d_27">
      <path d="M 57.6 174.528 
L 414.72 174.528 
" clip-path="url(#p7790c93298)" style="fill: none; stroke: #b0b0b0; stroke-opacity: 0.3; stroke-width: 0.8; stroke-linecap: square"/>
     </g>
     <g id="line2d_28">
      <g>
       <use xlink:href="#mbf31e35818" x="57.6" y="174.528" style="stroke: #000000; stroke-width: 0.8"/>
      </g>
     </g>
     <g id="text_15">
      <!-- 0.0 -->
      <g transform="translate(34.696875 178.327219) scale(0.1 -0.1)">
       <use xlink:href="#DejaVuSans-30"/>
       <use xlink:href="#DejaVuSans-2e" x="63.623047"/>
       <use xlink:href="#DejaVuSans-30" x="95.410156"/>
      </g>
     </g>
    </g>
    <g id="ytick_6">
     <g id="line2d_29">
      <path d="M 57.6 141.264 
L 414.72 141.264 
" clip-path="url(#p7790c93298)" style="fill: none; stroke: #b0b0b0; stroke-opacity: 0.3; stroke-width: 0.8; stroke-linecap: square"/>
     </g>
     <g id="line2d_30">
      <g>
       <use xlink:href="#mbf31e35818" x="57.6" y="141.264" style="stroke: #000000; stroke-width: 0.8"/>
      </g>
     </g>
     <g id="text_16">
      <!-- 2.5 -->
      <g transform="translate(34.696875 145.063219) scale(0.1 -0.1)">
       <use xlink:href="#DejaVuSans-32"/>
       <use xlink:href="#DejaVuSans-2e" x="63.623047"/>
       <use xlink:href="#DejaVuSans-35" x="95.410156"/>
      </g>
     </g>
    </g>
    <g id="ytick_7">
     <g id="line2d_31">
      <path d="M 57.6 108 
L 414.72 108 
" clip-path="url(#p7790c93298)" style="fill: none; stroke: #b0b0b0; stroke-opacity: 0.3; stroke-width: 0.8; stroke-linecap: square"/>
     </g>
     <g id="line2d_32">
      <g>
       <use xlink:href="#mbf31e35818" x="57.6" y="108" style="stroke: #000000; stroke-width: 0.8"/>
      </g>
     </g>
     <g id="text_17">
      <!-- 5.0 -->
      <g transform="translate(34.696875 111.799219) scale(0.1 -0.1)">
       <use xlink:href="#DejaVuSans-35"/>
       <use xlink:href="#DejaVuSans-2e" x="63.623047"/>
       <use xlink:href="#DejaVuSans-30" x="95.410156"/>
      </g>
     </g>
    </g>
    <g id="ytick_8">
     <g id="line2d_33">
      <path d="M 57.6 74.736 
L 414.72 74.736 
" clip-path="url(#p7790c93298)" style="fill: none; stroke: #b0b0b0; stroke-opacity: 0.3; stroke-width: 0.8; stroke-linecap: square"/>
     </g>
     <g id="line2d_34">
      <g>
       <use xlink:href="#mbf31e35818" x="57.6" y="74.736" style="stroke: #000000; stroke-width: 0.8"/>
      </g>
     </g>
     <g id="text_18">
      <!-- 7.5 -->
      <g transform="translate(34.696875 78.535219) scale(0.1 -0.1)">
       <use xlink:href="#DejaVuSans-37"/>
       <use xlink:href="#DejaVuSans-2e" x="63.623047"/>
       <use xlink:href="#DejaVuSans-35" x="95.410156"/>
      </g>
     </g>
    </g>
    <g id="ytick_9">
     <g id="line2d_35">
      <path d="M 57.6 41.472 
L 414.72 41.472 
" clip-path="url(#p7790c93298)" style="fill: none; stroke: #b0b0b0; stroke-opacity: 0.3; stroke-width: 0.8; stroke-linecap: square"/>
     </g>
     <g id="line2d_36">
      <g>
       <use xlink:href="#mbf31e35818" x="57.6" y="41.472" style="stroke: #000000; stroke-width: 0.8"/>
      </g>
     </g>
     <g id="text_19">
      <!-- 10.0 -->
      <g transform="translate(28.334375 45.271219) scale(0.1 -0.1)">
       <use xlink:href="#DejaVuSans-31"/>
       <use xlink:href="#DejaVuSans-30" x="63.623047"/>
       <use xlink:href="#DejaVuSans-2e" x="127.246094"/>
       <use xlink:href="#DejaVuSans-30" x="159.033203"/>
      </g>
     </g>
    </g>
    <g id="text_20">
     <!-- Im(z) -->
     <g transform="translate(13.875 187.399094) rotate(-90) scale(0.1 -0.1)">
      <defs>
       <path id="DejaVuSans-49" d="M 628 4666 
L 1259 4666 
L 1259 0 
L 628 0 
L 628 4666 
z
" transform="scale(0.015625)"/>
       <path id="DejaVuSans-6d" d="M 3328 2828 
Q 3544 3216 3844 3400 
Q 4144 3584 4550 3584 
Q 5097 3584 5394 3201 
Q 5691 2819 5691 2113 
L 5691 0 
L 5113 0 
L 5113 2094 
Q 5113 2597 4934 2840 
Q 4756 3084 4391 3084 
Q 3944 3084 3684 2787 
Q 3425 2491 3425 1978 
L 3425 0 
L 2847 0 
L 2847 2094 
Q 2847 2600 2669 2842 
Q 2491 3084 2119 3084 
Q 1678 3084 1418 2786 
Q 1159 2488 1159 1978 
L 1159 0 
L 581 0 
L 581 3500 
L 1159 3500 
L 1159 2956 
Q 1356 3278 1631 3431 
Q 1906 3584 2284 3584 
Q 2666 3584 2933 3390 
Q 3200 3197 3328 2828 
z
" transform="scale(0.015625)"/>
      </defs>
      <use xlink:href="#DejaVuSans-49"/>
      <use xlink:href="#DejaVuSans-6d" x="29.492188"/>
      <use xlink:href="#DejaVuSans-28" x="126.904297"/>
      <use xlink:href="#DejaVuSans-7a" x="165.917969"/>
      <use xlink:href="#DejaVuSans-29" x="218.408203"/>
     </g>
    </g>
   </g>
   <g id="PathCollection_2">
    <path d="M 414.72 114.408825 
L 411.136856 111.423978 
L 406.909972 108.222502 
L 402.776187 105.383543 
L 397.998662 102.415806 
L 393.221137 99.747891 
L 388.443612 97.34942 
L 383.666087 95.195235 
L 378.420459 93.092388 
L 373.390752 91.312375 
L 369.333512 90.03396 
L 363.361605 88.402935 
L 357.389699 87.052669 
L 351.40893 85.972334 
L 345.445886 85.154514 
L 339.47398 84.591473 
L 333.502074 84.287013 
L 327.530167 84.237022 
L 321.558261 84.443337 
L 315.586355 84.916782 
L 309.614448 85.662639 
L 303.642542 86.69754 
L 297.670635 88.035789 
L 292.274605 89.532361 
L 288.115585 90.876398 
L 283.33806 92.657984 
L 278.227721 94.872401 
L 274.606437 96.652415 
L 271.333236 98.432428 
L 267.811104 100.550131 
L 264.22796 102.959105 
L 260.644816 105.661594 
L 257.061672 108.72124 
L 253.911305 111.782528 
L 251.46983 114.452548 
L 249.284153 117.122569 
L 247.332772 119.792589 
L 245.11786 123.252745 
L 243.574724 126.022635 
L 241.872203 129.582662 
L 240.340334 133.47344 
L 239.296592 136.702716 
L 238.365825 140.262742 
L 237.492668 144.712776 
L 236.895668 149.162809 
L 236.457243 154.502849 
L 236.223004 160.732896 
L 236.15062 170.52297 
L 236.243051 189.21311 
L 236.512698 195.443157 
L 236.99482 200.783197 
L 237.64512 205.233231 
L 238.576982 209.683264 
L 239.56125 213.243291 
L 240.783142 216.803318 
L 242.269454 220.363344 
L 244.049967 223.923371 
L 245.591576 226.593391 
L 247.957881 230.153418 
L 249.987345 232.823438 
L 252.284147 235.525722 
L 254.787739 238.163478 
L 257.616499 240.833498 
L 260.782836 243.503518 
L 264.337417 246.173538 
L 268.352726 248.843559 
L 271.394247 250.658956 
L 274.977391 252.597576 
L 279.754916 254.88239 
L 284.532441 256.864898 
L 289.466401 258.633632 
L 294.087492 260.060764 
L 298.865017 261.310828 
L 303.642542 262.35846 
L 308.420067 263.208724 
L 314.075202 263.973672 
L 317.975117 264.361767 
L 323.947023 264.726419 
L 329.91893 264.82945 
L 335.890836 264.677905 
L 341.862742 264.270422 
L 347.834649 263.606887 
L 353.806555 262.684289 
L 359.778462 261.496051 
L 365.750368 260.035361 
L 371.722274 258.287541 
L 376.499799 256.671515 
L 381.277324 254.851483 
L 386.054849 252.813337 
L 390.832375 250.538638 
L 395.707946 247.953552 
L 400.387425 245.195469 
L 405.16495 242.064843 
L 409.312989 239.053485 
L 412.675923 236.383465 
L 414.72 234.647175 
L 414.72 234.647175 
" clip-path="url(#p7790c93298)" style="fill: none; stroke: #ffc0cb; stroke-width: 1.5"/>
   </g>
   <g id="line2d_37">
    <path d="M 57.6 174.528 
L 414.72 174.528 
" clip-path="url(#p7790c93298)" style="fill: none; stroke: #000000; stroke-opacity: 0.2; stroke-width: 1.5; stroke-linecap: square"/>
   </g>
   <g id="line2d_38">
    <path d="M 236.16 307.584 
L 236.16 41.472 
" clip-path="url(#p7790c93298)" style="fill: none; stroke: #000000; stroke-opacity: 0.2; stroke-width: 1.5; stroke-linecap: square"/>
   </g>
   <g id="patch_3">
    <path d="M 57.6 307.584 
L 57.6 41.472 
" style="fill: none; stroke: #000000; stroke-width: 0.8; stroke-linejoin: miter; stroke-linecap: square"/>
   </g>
   <g id="patch_4">
    <path d="M 414.72 307.584 
L 414.72 41.472 
" style="fill: none; stroke: #000000; stroke-width: 0.8; stroke-linejoin: miter; stroke-linecap: square"/>
   </g>
   <g id="patch_5">
    <path d="M 57.6 307.584 
L 414.72 307.584 
" style="fill: none; stroke: #000000; stroke-width: 0.8; stroke-linejoin: miter; stroke-linecap: square"/>
   </g>
   <g id="patch_6">
    <path d="M 57.6 41.472 
L 414.72 41.472 
" style="fill: none; stroke: #000000; stroke-width: 0.8; stroke-linejoin: miter; stroke-linecap: square"/>
   </g>
   <g id="text_21">
    <!-- Regions of Absolute Stability -->
    <g transform="translate(150.214687 35.472) scale(0.12 -0.12)">
     <defs>
      <path id="DejaVuSans-67" d="M 2906 1791 
Q 2906 2416 2648 2759 
Q 2391 3103 1925 3103 
Q 1463 3103 1205 2759 
Q 947 2416 947 1791 
Q 947 1169 1205 825 
Q 1463 481 1925 481 
Q 2391 481 2648 825 
Q 2906 1169 2906 1791 
z
M 3481 434 
Q 3481 -459 3084 -895 
Q 2688 -1331 1869 -1331 
Q 1566 -1331 1297 -1286 
Q 1028 -1241 775 -1147 
L 775 -588 
Q 1028 -725 1275 -790 
Q 1522 -856 1778 -856 
Q 2344 -856 2625 -561 
Q 2906 -266 2906 331 
L 2906 616 
Q 2728 306 2450 153 
Q 2172 0 1784 0 
Q 1141 0 747 490 
Q 353 981 353 1791 
Q 353 2603 747 3093 
Q 1141 3584 1784 3584 
Q 2172 3584 2450 3431 
Q 2728 3278 2906 2969 
L 2906 3500 
L 3481 3500 
L 3481 434 
z
" transform="scale(0.015625)"/>
      <path id="DejaVuSans-69" d="M 603 3500 
L 1178 3500 
L 1178 0 
L 603 0 
L 603 3500 
z
M 603 4863 
L 1178 4863 
L 1178 4134 
L 603 4134 
L 603 4863 
z
" transform="scale(0.015625)"/>
      <path id="DejaVuSans-6f" d="M 1959 3097 
Q 1497 3097 1228 2736 
Q 959 2375 959 1747 
Q 959 1119 1226 758 
Q 1494 397 1959 397 
Q 2419 397 2687 759 
Q 2956 1122 2956 1747 
Q 2956 2369 2687 2733 
Q 2419 3097 1959 3097 
z
M 1959 3584 
Q 2709 3584 3137 3096 
Q 3566 2609 3566 1747 
Q 3566 888 3137 398 
Q 2709 -91 1959 -91 
Q 1206 -91 779 398 
Q 353 888 353 1747 
Q 353 2609 779 3096 
Q 1206 3584 1959 3584 
z
" transform="scale(0.015625)"/>
      <path id="DejaVuSans-6e" d="M 3513 2113 
L 3513 0 
L 2938 0 
L 2938 2094 
Q 2938 2591 2744 2837 
Q 2550 3084 2163 3084 
Q 1697 3084 1428 2787 
Q 1159 2491 1159 1978 
L 1159 0 
L 581 0 
L 581 3500 
L 1159 3500 
L 1159 2956 
Q 1366 3272 1645 3428 
Q 1925 3584 2291 3584 
Q 2894 3584 3203 3211 
Q 3513 2838 3513 2113 
z
" transform="scale(0.015625)"/>
      <path id="DejaVuSans-73" d="M 2834 3397 
L 2834 2853 
Q 2591 2978 2328 3040 
Q 2066 3103 1784 3103 
Q 1356 3103 1142 2972 
Q 928 2841 928 2578 
Q 928 2378 1081 2264 
Q 1234 2150 1697 2047 
L 1894 2003 
Q 2506 1872 2764 1633 
Q 3022 1394 3022 966 
Q 3022 478 2636 193 
Q 2250 -91 1575 -91 
Q 1294 -91 989 -36 
Q 684 19 347 128 
L 347 722 
Q 666 556 975 473 
Q 1284 391 1588 391 
Q 1994 391 2212 530 
Q 2431 669 2431 922 
Q 2431 1156 2273 1281 
Q 2116 1406 1581 1522 
L 1381 1569 
Q 847 1681 609 1914 
Q 372 2147 372 2553 
Q 372 3047 722 3315 
Q 1072 3584 1716 3584 
Q 2034 3584 2315 3537 
Q 2597 3491 2834 3397 
z
" transform="scale(0.015625)"/>
      <path id="DejaVuSans-20" transform="scale(0.015625)"/>
      <path id="DejaVuSans-66" d="M 2375 4863 
L 2375 4384 
L 1825 4384 
Q 1516 4384 1395 4259 
Q 1275 4134 1275 3809 
L 1275 3500 
L 2222 3500 
L 2222 3053 
L 1275 3053 
L 1275 0 
L 697 0 
L 697 3053 
L 147 3053 
L 147 3500 
L 697 3500 
L 697 3744 
Q 697 4328 969 4595 
Q 1241 4863 1831 4863 
L 2375 4863 
z
" transform="scale(0.015625)"/>
      <path id="DejaVuSans-41" d="M 2188 4044 
L 1331 1722 
L 3047 1722 
L 2188 4044 
z
M 1831 4666 
L 2547 4666 
L 4325 0 
L 3669 0 
L 3244 1197 
L 1141 1197 
L 716 0 
L 50 0 
L 1831 4666 
z
" transform="scale(0.015625)"/>
      <path id="DejaVuSans-62" d="M 3116 1747 
Q 3116 2381 2855 2742 
Q 2594 3103 2138 3103 
Q 1681 3103 1420 2742 
Q 1159 2381 1159 1747 
Q 1159 1113 1420 752 
Q 1681 391 2138 391 
Q 2594 391 2855 752 
Q 3116 1113 3116 1747 
z
M 1159 2969 
Q 1341 3281 1617 3432 
Q 1894 3584 2278 3584 
Q 2916 3584 3314 3078 
Q 3713 2572 3713 1747 
Q 3713 922 3314 415 
Q 2916 -91 2278 -91 
Q 1894 -91 1617 61 
Q 1341 213 1159 525 
L 1159 0 
L 581 0 
L 581 4863 
L 1159 4863 
L 1159 2969 
z
" transform="scale(0.015625)"/>
      <path id="DejaVuSans-6c" d="M 603 4863 
L 1178 4863 
L 1178 0 
L 603 0 
L 603 4863 
z
" transform="scale(0.015625)"/>
      <path id="DejaVuSans-75" d="M 544 1381 
L 544 3500 
L 1119 3500 
L 1119 1403 
Q 1119 906 1312 657 
Q 1506 409 1894 409 
Q 2359 409 2629 706 
Q 2900 1003 2900 1516 
L 2900 3500 
L 3475 3500 
L 3475 0 
L 2900 0 
L 2900 538 
Q 2691 219 2414 64 
Q 2138 -91 1772 -91 
Q 1169 -91 856 284 
Q 544 659 544 1381 
z
M 1991 3584 
L 1991 3584 
z
" transform="scale(0.015625)"/>
      <path id="DejaVuSans-74" d="M 1172 4494 
L 1172 3500 
L 2356 3500 
L 2356 3053 
L 1172 3053 
L 1172 1153 
Q 1172 725 1289 603 
Q 1406 481 1766 481 
L 2356 481 
L 2356 0 
L 1766 0 
Q 1100 0 847 248 
Q 594 497 594 1153 
L 594 3053 
L 172 3053 
L 172 3500 
L 594 3500 
L 594 4494 
L 1172 4494 
z
" transform="scale(0.015625)"/>
      <path id="DejaVuSans-53" d="M 3425 4513 
L 3425 3897 
Q 3066 4069 2747 4153 
Q 2428 4238 2131 4238 
Q 1616 4238 1336 4038 
Q 1056 3838 1056 3469 
Q 1056 3159 1242 3001 
Q 1428 2844 1947 2747 
L 2328 2669 
Q 3034 2534 3370 2195 
Q 3706 1856 3706 1288 
Q 3706 609 3251 259 
Q 2797 -91 1919 -91 
Q 1588 -91 1214 -16 
Q 841 59 441 206 
L 441 856 
Q 825 641 1194 531 
Q 1563 422 1919 422 
Q 2459 422 2753 634 
Q 3047 847 3047 1241 
Q 3047 1584 2836 1778 
Q 2625 1972 2144 2069 
L 1759 2144 
Q 1053 2284 737 2584 
Q 422 2884 422 3419 
Q 422 4038 858 4394 
Q 1294 4750 2059 4750 
Q 2388 4750 2728 4690 
Q 3069 4631 3425 4513 
z
" transform="scale(0.015625)"/>
      <path id="DejaVuSans-61" d="M 2194 1759 
Q 1497 1759 1228 1600 
Q 959 1441 959 1056 
Q 959 750 1161 570 
Q 1363 391 1709 391 
Q 2188 391 2477 730 
Q 2766 1069 2766 1631 
L 2766 1759 
L 2194 1759 
z
M 3341 1997 
L 3341 0 
L 2766 0 
L 2766 531 
Q 2569 213 2275 61 
Q 1981 -91 1556 -91 
Q 1019 -91 701 211 
Q 384 513 384 1019 
Q 384 1609 779 1909 
Q 1175 2209 1959 2209 
L 2766 2209 
L 2766 2266 
Q 2766 2663 2505 2880 
Q 2244 3097 1772 3097 
Q 1472 3097 1187 3025 
Q 903 2953 641 2809 
L 641 3341 
Q 956 3463 1253 3523 
Q 1550 3584 1831 3584 
Q 2591 3584 2966 3190 
Q 3341 2797 3341 1997 
z
" transform="scale(0.015625)"/>
      <path id="DejaVuSans-79" d="M 2059 -325 
Q 1816 -950 1584 -1140 
Q 1353 -1331 966 -1331 
L 506 -1331 
L 506 -850 
L 844 -850 
Q 1081 -850 1212 -737 
Q 1344 -625 1503 -206 
L 1606 56 
L 191 3500 
L 800 3500 
L 1894 763 
L 2988 3500 
L 3597 3500 
L 2059 -325 
z
" transform="scale(0.015625)"/>
     </defs>
     <use xlink:href="#DejaVuSans-52"/>
     <use xlink:href="#DejaVuSans-65" x="64.982422"/>
     <use xlink:href="#DejaVuSans-67" x="126.505859"/>
     <use xlink:href="#DejaVuSans-69" x="189.982422"/>
     <use xlink:href="#DejaVuSans-6f" x="217.765625"/>
     <use xlink:href="#DejaVuSans-6e" x="278.947266"/>
     <use xlink:href="#DejaVuSans-73" x="342.326172"/>
     <use xlink:href="#DejaVuSans-20" x="394.425781"/>
     <use xlink:href="#DejaVuSans-6f" x="426.212891"/>
     <use xlink:href="#DejaVuSans-66" x="487.394531"/>
     <use xlink:href="#DejaVuSans-20" x="522.599609"/>
     <use xlink:href="#DejaVuSans-41" x="554.386719"/>
     <use xlink:href="#DejaVuSans-62" x="622.794922"/>
     <use xlink:href="#DejaVuSans-73" x="686.271484"/>
     <use xlink:href="#DejaVuSans-6f" x="738.371094"/>
     <use xlink:href="#DejaVuSans-6c" x="799.552734"/>
     <use xlink:href="#DejaVuSans-75" x="827.335938"/>
     <use xlink:href="#DejaVuSans-74" x="890.714844"/>
     <use xlink:href="#DejaVuSans-65" x="929.923828"/>
     <use xlink:href="#DejaVuSans-20" x="991.447266"/>
     <use xlink:href="#DejaVuSans-53" x="1023.234375"/>
     <use xlink:href="#DejaVuSans-74" x="1086.710938"/>
     <use xlink:href="#DejaVuSans-61" x="1125.919922"/>
     <use xlink:href="#DejaVuSans-62" x="1187.199219"/>
     <use xlink:href="#DejaVuSans-69" x="1250.675781"/>
     <use xlink:href="#DejaVuSans-6c" x="1278.458984"/>
     <use xlink:href="#DejaVuSans-69" x="1306.242188"/>
     <use xlink:href="#DejaVuSans-74" x="1334.025391"/>
     <use xlink:href="#DejaVuSans-79" x="1373.234375"/>
    </g>
   </g>
   <g id="legend_1">
    <g id="patch_7">
     <path d="M 351.56375 64.150125 
L 407.72 64.150125 
Q 409.72 64.150125 409.72 62.150125 
L 409.72 48.472 
Q 409.72 46.472 407.72 46.472 
L 351.56375 46.472 
Q 349.56375 46.472 349.56375 48.472 
L 349.56375 62.150125 
Q 349.56375 64.150125 351.56375 64.150125 
z
" style="fill: #ffffff; opacity: 0.8; stroke: #cccccc; stroke-linejoin: miter"/>
    </g>
    <g id="line2d_39">
     <path d="M 353.56375 54.570438 
L 363.56375 54.570438 
L 373.56375 54.570438 
" style="fill: none; stroke: #ffc0cb; stroke-width: 2; stroke-linecap: square"/>
    </g>
    <g id="text_22">
     <!-- DIRK -->
     <g transform="translate(381.56375 58.070438) scale(0.1 -0.1)">
      <defs>
       <path id="DejaVuSans-44" d="M 1259 4147 
L 1259 519 
L 2022 519 
Q 2988 519 3436 956 
Q 3884 1394 3884 2338 
Q 3884 3275 3436 3711 
Q 2988 4147 2022 4147 
L 1259 4147 
z
M 628 4666 
L 1925 4666 
Q 3281 4666 3915 4102 
Q 4550 3538 4550 2338 
Q 4550 1131 3912 565 
Q 3275 0 1925 0 
L 628 0 
L 628 4666 
z
" transform="scale(0.015625)"/>
       <path id="DejaVuSans-4b" d="M 628 4666 
L 1259 4666 
L 1259 2694 
L 3353 4666 
L 4166 4666 
L 1850 2491 
L 4331 0 
L 3500 0 
L 1259 2247 
L 1259 0 
L 628 0 
L 628 4666 
z
" transform="scale(0.015625)"/>
      </defs>
      <use xlink:href="#DejaVuSans-44"/>
      <use xlink:href="#DejaVuSans-49" x="77.001953"/>
      <use xlink:href="#DejaVuSans-52" x="106.494141"/>
      <use xlink:href="#DejaVuSans-4b" x="175.976562"/>
     </g>
    </g>
   </g>
  </g>
 </g>
 <defs>
  <clipPath id="p7790c93298">
   <rect x="57.6" y="41.472" width="357.12" height="266.112"/>
  </clipPath>
 </defs>
</svg>
