<?xml version="1.0" encoding="utf-8" standalone="no"?>
<!DOCTYPE svg PUBLIC "-//W3C//DTD SVG 1.1//EN"
  "http://www.w3.org/Graphics/SVG/1.1/DTD/svg11.dtd">
<svg xmlns:xlink="http://www.w3.org/1999/xlink" width="460.8pt" height="345.6pt" viewBox="0 0 460.8 345.6" xmlns="http://www.w3.org/2000/svg" version="1.1">
 <metadata>
  <rdf:RDF xmlns:dc="http://purl.org/dc/elements/1.1/" xmlns:cc="http://creativecommons.org/ns#" xmlns:rdf="http://www.w3.org/1999/02/22-rdf-syntax-ns#">
   <cc:Work>
    <dc:type rdf:resource="http://purl.org/dc/dcmitype/StillImage"/>
    <dc:date>2026-02-18T13:49:51.974407</dc:date>
    <dc:format>image/svg+xml</dc:format>
    <dc:creator>
     <cc:Agent>
      <dc:title>Matplotlib v3.6.3, https://matplotlib.org/</dc:title>
     </cc:Agent>
    </dc:creator>
   </cc:Work>
  </rdf:RDF>
 </metadata>
 <defs>
  <style type="text/css">*{stroke-linejoin: round; stroke-linecap: butt}</style>
 </defs>
 <g id="figure_1">
  <g id="patch_1">
   <path d="M 0 345.6 
L 460.8 345.6 
L 460.8 0 
L 0 0 
z
" style="fill: #ffffff"/>
  </g>
  <g id="axes_1">
   <g id="patch_2">
    <path d="M 57.6 307.584 
L 414.72 307.584 
L 414.72 41.472 
L 57.6 41.472 
z
" style="fill: #ffffff"/>
   </g>
   <g id="PathCollection_1">
    <defs>
     <path id="m5c096e1956" d="M 0 3 
C 0.795609 3 1.55874 2.683901 2.12132 2.12132 
C 2.683901 1.55874 3 0.795609 3 0 
C 3 -0.795609 2.683901 -1.55874 2.12132 -2.12132 
C 1.55874 -2.683901 0.795609 -3 0 -3 
C -0.795609 -3 -1.55874 -2.683901 -2.12132 -2.12132 
C -2.683901 -1.55874 -3 -0.795609 -3 0 
C -3 0.795609 -2.683901 1.55874 -2.12132 2.12132 
C -1.55874 2.683901 -0.795609 3 0 3 
z
" style="stroke: #0000ff"/>
    </defs>
    <g clip-path="url(#p0daaf8d673)">
     <use xlink:href="#m5c096e1956" x="254.344803" y="174.528955" style="fill: #0000ff; stroke: #0000ff"/>
    </g>
   </g>
   <g id="matplotlib.axis_1">
    <g id="xtick_1">
     <g id="line2d_1">
      <path d="M 109.332258 307.584 
L 109.332258 41.472 
" clip-path="url(#p0daaf8d673)" style="fill: none; stroke: #b0b0b0; stroke-opacity: 0.4; stroke-width: 0.8; stroke-linecap: square"/>
     </g>
     <g id="line2d_2">
      <defs>
       <path id="m1d761ac35b" d="M 0 0 
L 0 3.5 
" style="stroke: #000000; stroke-width: 0.8"/>
      </defs>
      <g>
       <use xlink:href="#m1d761ac35b" x="109.332258" y="307.584" style="stroke: #000000; stroke-width: 0.8"/>
      </g>
     </g>
     <g id="text_1">
      <!-- −1.0 -->
      <g transform="translate(97.190852 322.182437) scale(0.1 -0.1)">
       <defs>
        <path id="DejaVuSans-2212" d="M 678 2272 
L 4684 2272 
L 4684 1741 
L 678 1741 
L 678 2272 
z
" transform="scale(0.015625)"/>
        <path id="DejaVuSans-31" d="M 794 531 
L 1825 531 
L 1825 4091 
L 703 3866 
L 703 4441 
L 1819 4666 
L 2450 4666 
L 2450 531 
L 3481 531 
L 3481 0 
L 794 0 
L 794 531 
z
" transform="scale(0.015625)"/>
        <path id="DejaVuSans-2e" d="M 684 794 
L 1344 794 
L 1344 0 
L 684 0 
L 684 794 
z
" transform="scale(0.015625)"/>
        <path id="DejaVuSans-30" d="M 2034 4250 
Q 1547 4250 1301 3770 
Q 1056 3291 1056 2328 
Q 1056 1369 1301 889 
Q 1547 409 2034 409 
Q 2525 409 2770 889 
Q 3016 1369 3016 2328 
Q 3016 3291 2770 3770 
Q 2525 4250 2034 4250 
z
M 2034 4750 
Q 2819 4750 3233 4129 
Q 3647 3509 3647 2328 
Q 3647 1150 3233 529 
Q 2819 -91 2034 -91 
Q 1250 -91 836 529 
Q 422 1150 422 2328 
Q 422 3509 836 4129 
Q 1250 4750 2034 4750 
z
" transform="scale(0.015625)"/>
       </defs>
       <use xlink:href="#DejaVuSans-2212"/>
       <use xlink:href="#DejaVuSans-31" x="83.789062"/>
       <use xlink:href="#DejaVuSans-2e" x="147.412109"/>
       <use xlink:href="#DejaVuSans-30" x="179.199219"/>
      </g>
     </g>
    </g>
    <g id="xtick_2">
     <g id="line2d_3">
      <path d="M 181.838531 307.584 
L 181.838531 41.472 
" clip-path="url(#p0daaf8d673)" style="fill: none; stroke: #b0b0b0; stroke-opacity: 0.4; stroke-width: 0.8; stroke-linecap: square"/>
     </g>
     <g id="line2d_4">
      <g>
       <use xlink:href="#m1d761ac35b" x="181.838531" y="307.584" style="stroke: #000000; stroke-width: 0.8"/>
      </g>
     </g>
     <g id="text_2">
      <!-- −0.5 -->
      <g transform="translate(169.697125 322.182437) scale(0.1 -0.1)">
       <defs>
        <path id="DejaVuSans-35" d="M 691 4666 
L 3169 4666 
L 3169 4134 
L 1269 4134 
L 1269 2991 
Q 1406 3038 1543 3061 
Q 1681 3084 1819 3084 
Q 2600 3084 3056 2656 
Q 3513 2228 3513 1497 
Q 3513 744 3044 326 
Q 2575 -91 1722 -91 
Q 1428 -91 1123 -41 
Q 819 9 494 109 
L 494 744 
Q 775 591 1075 516 
Q 1375 441 1709 441 
Q 2250 441 2565 725 
Q 2881 1009 2881 1497 
Q 2881 1984 2565 2268 
Q 2250 2553 1709 2553 
Q 1456 2553 1204 2497 
Q 953 2441 691 2322 
L 691 4666 
z
" transform="scale(0.015625)"/>
       </defs>
       <use xlink:href="#DejaVuSans-2212"/>
       <use xlink:href="#DejaVuSans-30" x="83.789062"/>
       <use xlink:href="#DejaVuSans-2e" x="147.412109"/>
       <use xlink:href="#DejaVuSans-35" x="179.199219"/>
      </g>
     </g>
    </g>
    <g id="xtick_3">
     <g id="line2d_5">
      <path d="M 254.344803 307.584 
L 254.344803 41.472 
" clip-path="url(#p0daaf8d673)" style="fill: none; stroke: #b0b0b0; stroke-opacity: 0.4; stroke-width: 0.8; stroke-linecap: square"/>
     </g>
     <g id="line2d_6">
      <g>
       <use xlink:href="#m1d761ac35b" x="254.344803" y="307.584" style="stroke: #000000; stroke-width: 0.8"/>
      </g>
     </g>
     <g id="text_3">
      <!-- 0.0 -->
      <g transform="translate(246.393241 322.182437) scale(0.1 -0.1)">
       <use xlink:href="#DejaVuSans-30"/>
       <use xlink:href="#DejaVuSans-2e" x="63.623047"/>
       <use xlink:href="#DejaVuSans-30" x="95.410156"/>
      </g>
     </g>
    </g>
    <g id="xtick_4">
     <g id="line2d_7">
      <path d="M 326.851076 307.584 
L 326.851076 41.472 
" clip-path="url(#p0daaf8d673)" style="fill: none; stroke: #b0b0b0; stroke-opacity: 0.4; stroke-width: 0.8; stroke-linecap: square"/>
     </g>
     <g id="line2d_8">
      <g>
       <use xlink:href="#m1d761ac35b" x="326.851076" y="307.584" style="stroke: #000000; stroke-width: 0.8"/>
      </g>
     </g>
     <g id="text_4">
      <!-- 0.5 -->
      <g transform="translate(318.899513 322.182437) scale(0.1 -0.1)">
       <use xlink:href="#DejaVuSans-30"/>
       <use xlink:href="#DejaVuSans-2e" x="63.623047"/>
       <use xlink:href="#DejaVuSans-35" x="95.410156"/>
      </g>
     </g>
    </g>
    <g id="xtick_5">
     <g id="line2d_9">
      <path d="M 399.357348 307.584 
L 399.357348 41.472 
" clip-path="url(#p0daaf8d673)" style="fill: none; stroke: #b0b0b0; stroke-opacity: 0.4; stroke-width: 0.8; stroke-linecap: square"/>
     </g>
     <g id="line2d_10">
      <g>
       <use xlink:href="#m1d761ac35b" x="399.357348" y="307.584" style="stroke: #000000; stroke-width: 0.8"/>
      </g>
     </g>
     <g id="text_5">
      <!-- 1.0 -->
      <g transform="translate(391.405785 322.182437) scale(0.1 -0.1)">
       <use xlink:href="#DejaVuSans-31"/>
       <use xlink:href="#DejaVuSans-2e" x="63.623047"/>
       <use xlink:href="#DejaVuSans-30" x="95.410156"/>
      </g>
     </g>
    </g>
    <g id="text_6">
     <!-- x -->
     <g transform="translate(233.200625 335.860562) scale(0.1 -0.1)">
      <defs>
       <path id="DejaVuSans-78" d="M 3513 3500 
L 2247 1797 
L 3578 0 
L 2900 0 
L 1881 1375 
L 863 0 
L 184 0 
L 1544 1831 
L 300 3500 
L 978 3500 
L 1906 2253 
L 2834 3500 
L 3513 3500 
z
" transform="scale(0.015625)"/>
      </defs>
      <use xlink:href="#DejaVuSans-78"/>
     </g>
    </g>
   </g>
   <g id="matplotlib.axis_2">
    <g id="ytick_1">
     <g id="line2d_11">
      <path d="M 57.6 280.4398 
L 414.72 280.4398 
" clip-path="url(#p0daaf8d673)" style="fill: none; stroke: #b0b0b0; stroke-opacity: 0.4; stroke-width: 0.8; stroke-linecap: square"/>
     </g>
     <g id="line2d_12">
      <defs>
       <path id="m836a258b79" d="M 0 0 
L -3.5 0 
" style="stroke: #000000; stroke-width: 0.8"/>
      </defs>
      <g>
       <use xlink:href="#m836a258b79" x="57.6" y="280.4398" style="stroke: #000000; stroke-width: 0.8"/>
      </g>
     </g>
     <g id="text_7">
      <!-- −1.0 -->
      <g transform="translate(26.317187 284.239018) scale(0.1 -0.1)">
       <use xlink:href="#DejaVuSans-2212"/>
       <use xlink:href="#DejaVuSans-31" x="83.789062"/>
       <use xlink:href="#DejaVuSans-2e" x="147.412109"/>
       <use xlink:href="#DejaVuSans-30" x="179.199219"/>
      </g>
     </g>
    </g>
    <g id="ytick_2">
     <g id="line2d_13">
      <path d="M 57.6 227.484377 
L 414.72 227.484377 
" clip-path="url(#p0daaf8d673)" style="fill: none; stroke: #b0b0b0; stroke-opacity: 0.4; stroke-width: 0.8; stroke-linecap: square"/>
     </g>
     <g id="line2d_14">
      <g>
       <use xlink:href="#m836a258b79" x="57.6" y="227.484377" style="stroke: #000000; stroke-width: 0.8"/>
      </g>
     </g>
     <g id="text_8">
      <!-- −0.5 -->
      <g transform="translate(26.317187 231.283596) scale(0.1 -0.1)">
       <use xlink:href="#DejaVuSans-2212"/>
       <use xlink:href="#DejaVuSans-30" x="83.789062"/>
       <use xlink:href="#DejaVuSans-2e" x="147.412109"/>
       <use xlink:href="#DejaVuSans-35" x="179.199219"/>
      </g>
     </g>
    </g>
    <g id="ytick_3">
     <g id="line2d_15">
      <path d="M 57.6 174.528955 
L 414.72 174.528955 
" clip-path="url(#p0daaf8d673)" style="fill: none; stroke: #b0b0b0; stroke-opacity: 0.4; stroke-width: 0.8; stroke-linecap: square"/>
     </g>
     <g id="line2d_16">
      <g>
       <use xlink:href="#m836a258b79" x="57.6" y="174.528955" style="stroke: #000000; stroke-width: 0.8"/>
      </g>
     </g>
     <g id="text_9">
      <!-- 0.0 -->
      <g transform="translate(34.696875 178.328173) scale(0.1 -0.1)">
       <use xlink:href="#DejaVuSans-30"/>
       <use xlink:href="#DejaVuSans-2e" x="63.623047"/>
       <use xlink:href="#DejaVuSans-30" x="95.410156"/>
      </g>
     </g>
    </g>
    <g id="ytick_4">
     <g id="line2d_17">
      <path d="M 57.6 121.573532 
L 414.72 121.573532 
" clip-path="url(#p0daaf8d673)" style="fill: none; stroke: #b0b0b0; stroke-opacity: 0.4; stroke-width: 0.8; stroke-linecap: square"/>
     </g>
     <g id="line2d_18">
      <g>
       <use xlink:href="#m836a258b79" x="57.6" y="121.573532" style="stroke: #000000; stroke-width: 0.8"/>
      </g>
     </g>
     <g id="text_10">
      <!-- 0.5 -->
      <g transform="translate(34.696875 125.372751) scale(0.1 -0.1)">
       <use xlink:href="#DejaVuSans-30"/>
       <use xlink:href="#DejaVuSans-2e" x="63.623047"/>
       <use xlink:href="#DejaVuSans-35" x="95.410156"/>
      </g>
     </g>
    </g>
    <g id="ytick_5">
     <g id="line2d_19">
      <path d="M 57.6 68.618109 
L 414.72 68.618109 
" clip-path="url(#p0daaf8d673)" style="fill: none; stroke: #b0b0b0; stroke-opacity: 0.4; stroke-width: 0.8; stroke-linecap: square"/>
     </g>
     <g id="line2d_20">
      <g>
       <use xlink:href="#m836a258b79" x="57.6" y="68.618109" style="stroke: #000000; stroke-width: 0.8"/>
      </g>
     </g>
     <g id="text_11">
      <!-- 1.0 -->
      <g transform="translate(34.696875 72.417328) scale(0.1 -0.1)">
       <use xlink:href="#DejaVuSans-31"/>
       <use xlink:href="#DejaVuSans-2e" x="63.623047"/>
       <use xlink:href="#DejaVuSans-30" x="95.410156"/>
      </g>
     </g>
    </g>
    <g id="text_12">
     <!-- y -->
     <g transform="translate(20.2375 177.487375) rotate(-90) scale(0.1 -0.1)">
      <defs>
       <path id="DejaVuSans-79" d="M 2059 -325 
Q 1816 -950 1584 -1140 
Q 1353 -1331 966 -1331 
L 506 -1331 
L 506 -850 
L 844 -850 
Q 1081 -850 1212 -737 
Q 1344 -625 1503 -206 
L 1606 56 
L 191 3500 
L 800 3500 
L 1894 763 
L 2988 3500 
L 3597 3500 
L 2059 -325 
z
" transform="scale(0.015625)"/>
      </defs>
      <use xlink:href="#DejaVuSans-79"/>
     </g>
    </g>
   </g>
   <g id="line2d_21">
    <path d="M 398.487273 174.528955 
L 398.375343 174.998097 
L 398.022141 175.486722 
L 397.317121 176.051026 
L 396.134628 176.687906 
L 394.41194 177.35431 
L 392.141886 177.990855 
L 389.423592 178.51454 
L 386.571609 178.841502 
L 383.567423 178.967478 
L 380.397095 178.873151 
L 377.30084 178.565308 
L 374.099075 178.030407 
L 370.931784 177.291832 
L 367.340607 176.212613 
L 364.041469 175.00628 
L 360.537957 173.515363 
L 356.198632 171.398131 
L 351.810369 168.99527 
L 346.66525 165.91421 
L 339.976597 161.628949 
L 321.097467 149.356828 
L 314.332434 145.31118 
L 308.245758 141.930607 
L 302.048054 138.762266 
L 296.67306 136.243116 
L 291.250758 133.91486 
L 285.781614 131.777227 
L 280.259686 129.824928 
L 273.736967 127.771005 
L 267.108185 125.944714 
L 260.352694 124.332008 
L 253.455471 122.919414 
L 246.393766 121.690012 
L 238.131465 120.488856 
L 228.716382 119.365508 
L 216.268374 118.128113 
L 199.352045 116.434748 
L 191.801891 115.447954 
L 186.358626 114.545689 
L 181.1422 113.457287 
L 177.001229 112.37813 
L 173.081439 111.118507 
L 170.129238 109.967483 
L 167.362263 108.679835 
L 164.802007 107.249088 
L 162.470621 105.671056 
L 160.390422 103.944126 
L 159.008362 102.551816 
L 157.788958 101.077926 
L 156.740811 99.524957 
L 155.872031 97.896327 
L 155.190144 96.196335 
L 154.702013 94.430115 
L 154.413775 92.603561 
L 154.330813 90.723251 
L 154.458376 88.791005 
L 154.804911 86.801832 
L 155.37926 84.763956 
L 156.189112 82.687089 
L 157.240858 80.581992 
L 158.539427 78.460424 
L 160.088128 76.335063 
L 161.888455 74.219456 
L 163.939841 72.127971 
L 166.239331 70.075752 
L 168.781178 68.07865 
L 171.556373 66.153087 
L 174.552171 64.315826 
L 177.751742 62.583582 
L 181.134095 60.972473 
L 184.674445 59.497336 
L 188.345066 58.171034 
L 192.116506 57.003888 
L 195.958921 56.003377 
L 199.843239 55.174131 
L 203.741964 54.518174 
L 207.629599 54.035314 
L 212.755769 53.657107 
L 217.771103 53.574451 
L 222.6328 53.775796 
L 227.300621 54.247368 
L 231.736401 54.973154 
L 235.906713 55.935404 
L 239.782224 57.115028 
L 243.33742 58.49184 
L 246.55062 60.044747 
L 248.725317 61.311904 
L 250.691797 62.656506 
L 252.4457 64.069138 
L 253.98422 65.540424 
L 255.306203 67.061199 
L 256.412307 68.622901 
L 257.304311 70.216811 
L 257.985631 71.834642 
L 258.461261 73.468762 
L 258.737581 75.11226 
L 258.822156 76.758977 
L 258.72301 78.40811 
L 258.445221 80.067923 
L 257.804851 82.292066 
L 256.868163 84.521871 
L 255.650711 86.751518 
L 254.169842 88.97714 
L 252.444105 91.196792 
L 249.971925 93.962894 
L 247.185216 96.722832 
L 243.478732 100.036332 
L 238.733717 103.926024 
L 232.114719 109.015397 
L 214.840587 122.149277 
L 208.76177 127.128297 
L 203.727347 131.531655 
L 198.995059 135.975513 
L 194.56924 140.467812 
L 190.439442 145.02111 
L 186.587778 149.649987 
L 182.992049 154.37028 
L 179.627174 159.198281 
L 176.465953 164.148562 
L 173.479701 169.228938 
L 170.243083 175.182954 
L 166.377702 182.788875 
L 159.950259 195.488684 
L 157.192434 200.379013 
L 154.687023 204.337747 
L 152.459953 207.444001 
L 150.076878 210.350594 
L 148.041837 212.515473 
L 145.881404 214.5232 
L 143.58783 216.359778 
L 141.15612 218.010968 
L 138.584368 219.462593 
L 135.874031 220.700885 
L 133.0301 221.71286 
L 130.061145 222.486697 
L 126.979219 223.012091 
L 123.799604 223.280568 
L 120.538987 223.28565 
L 117.180454 223.018284 
L 113.729264 222.463659 
L 110.21062 221.608511 
L 106.653706 220.442252 
L 103.98049 219.358743 
L 101.319091 218.094009 
L 98.685348 216.647281 
L 96.095826 215.019029 
L 93.567691 213.211049 
L 91.118576 211.226573 
L 88.766422 209.070393 
L 86.529292 206.749 
L 84.425133 204.270725 
L 82.471475 201.645853 
L 80.685056 198.886676 
L 79.081388 196.007446 
L 77.674292 193.024185 
L 76.475461 189.95436 
L 75.494108 186.816418 
L 74.73675 183.629258 
L 74.207167 180.411713 
L 73.906509 177.182087 
L 73.833533 173.957819 
L 73.985976 170.742202 
L 74.365153 167.526437 
L 74.971786 164.327583 
L 75.804297 161.163488 
L 76.858593 158.052486 
L 78.127948 155.013004 
L 79.603024 152.063083 
L 81.272047 149.219891 
L 83.121124 146.499272 
L 85.134648 143.915401 
L 87.295752 141.480565 
L 89.586738 139.205083 
L 91.989468 137.097322 
L 94.485675 135.163794 
L 97.057218 133.409282 
L 99.68628 131.836974 
L 102.355534 130.448588 
L 105.048279 129.244485 
L 107.748575 128.223755 
L 111.334849 127.144252 
L 114.875107 126.378919 
L 118.340262 125.916636 
L 121.705363 125.743564 
L 124.960049 125.844354 
L 128.126645 126.209859 
L 131.191123 126.833466 
L 134.138903 127.70658 
L 136.958693 128.818807 
L 139.642741 130.158259 
L 142.186928 131.711902 
L 144.590708 133.465924 
L 146.856918 135.406084 
L 148.991493 137.518029 
L 151.003114 139.787567 
L 153.361752 142.825129 
L 155.571401 146.061674 
L 158.067566 150.174131 
L 160.834054 155.236666 
L 164.67492 162.833877 
L 170.568102 174.492646 
L 173.891559 180.553629 
L 176.95688 185.706272 
L 180.196618 190.707208 
L 183.636253 195.564709 
L 187.29968 200.294568 
L 190.63417 204.260417 
L 194.160412 208.156098 
L 198.528978 212.625896 
L 203.180266 217.029021 
L 208.112927 221.378128 
L 214.064571 226.289729 
L 221.040075 231.722415 
L 241.825568 247.631813 
L 245.622332 250.898437 
L 249.058268 254.156653 
L 251.603223 256.876273 
L 253.82082 259.605684 
L 255.334927 261.797428 
L 256.598196 263.995373 
L 257.593186 266.196552 
L 258.30377 268.396078 
L 258.715722 270.587144 
L 258.821534 272.219754 
L 258.748548 273.841312 
L 258.490106 275.460222 
L 258.038334 277.07221 
L 257.38639 278.670705 
L 256.52867 280.248409 
L 255.461011 281.797344 
L 254.180872 283.308926 
L 252.687278 284.774269 
L 250.980451 286.18454 
L 249.062488 287.530381 
L 246.9371 288.802327 
L 244.609547 289.990934 
L 242.086554 291.086863 
L 238.432737 292.388166 
L 234.468786 293.487539 
L 230.221323 294.365079 
L 225.720783 295.002126 
L 221.00163 295.381523 
L 216.102904 295.488 
L 211.066743 295.308689 
L 205.936369 294.833122 
L 202.056777 294.277515 
L 198.175689 293.549645 
L 194.31842 292.649857 
L 190.512088 291.580679 
L 186.785224 290.347189 
L 183.167036 288.957242 
L 179.686327 287.421483 
L 176.370249 285.753066 
L 173.243115 283.967116 
L 170.325538 282.080041 
L 167.634027 280.108852 
L 165.181004 278.070589 
L 162.975134 275.981921 
L 161.021775 273.858893 
L 159.323458 271.716798 
L 157.880295 269.570096 
L 156.690313 267.432378 
L 155.749706 265.316323 
L 155.053033 263.233643 
L 154.593381 261.195011 
L 154.362529 259.209994 
L 154.351108 257.287022 
L 154.550629 255.421973 
L 154.955776 253.614491 
L 155.56095 251.870844 
L 156.359834 250.196602 
L 157.345439 248.596555 
L 158.510149 247.074653 
L 159.84581 245.633952 
L 161.343807 244.276587 
L 163.578122 242.598354 
L 166.063166 241.070637 
L 168.776698 239.690985 
L 171.69659 238.454397 
L 174.801257 237.353601 
L 178.910635 236.154394 
L 183.239375 235.131593 
L 188.677316 234.103311 
L 195.298006 233.122328 
L 203.15917 232.202536 
L 217.501325 230.813711 
L 231.267785 229.409176 
L 240.840511 228.20047 
L 249.202227 226.903343 
L 256.318857 225.579077 
L 263.249755 224.063523 
L 270.016387 222.343015 
L 276.636198 220.406619 
L 283.131031 218.24302 
L 288.614241 216.199479 
L 294.031032 213.975675 
L 299.387669 211.569035 
L 305.561224 208.534213 
L 311.639245 205.274546 
L 317.589903 201.834096 
L 324.185784 197.766749 
L 332.853146 192.13386 
L 346.254824 183.399183 
L 352.060895 179.919268 
L 356.399847 177.555535 
L 360.7108 175.464199 
L 364.222682 173.98025 
L 367.565154 172.77052 
L 371.234406 171.68672 
L 374.480161 170.952529 
L 377.755394 170.434347 
L 380.906633 170.154309 
L 384.107425 170.097298 
L 387.109402 170.26206 
L 390.085714 170.6505 
L 392.791876 171.227995 
L 395.094431 171.942973 
L 396.783631 172.691303 
L 397.818432 173.379647 
L 398.328014 173.969225 
L 398.485577 174.471249 
L 398.487273 174.528955 
L 398.487273 174.528955 
" clip-path="url(#p0daaf8d673)" style="fill: none; stroke: #000000; stroke-width: 1.5; stroke-linecap: square"/>
   </g>
   <g id="patch_3">
    <path d="M 57.6 307.584 
L 57.6 41.472 
" style="fill: none; stroke: #000000; stroke-width: 0.8; stroke-linejoin: miter; stroke-linecap: square"/>
   </g>
   <g id="patch_4">
    <path d="M 414.72 307.584 
L 414.72 41.472 
" style="fill: none; stroke: #000000; stroke-width: 0.8; stroke-linejoin: miter; stroke-linecap: square"/>
   </g>
   <g id="patch_5">
    <path d="M 57.6 307.584 
L 414.72 307.584 
" style="fill: none; stroke: #000000; stroke-width: 0.8; stroke-linejoin: miter; stroke-linecap: square"/>
   </g>
   <g id="patch_6">
    <path d="M 57.6 41.472 
L 414.72 41.472 
" style="fill: none; stroke: #000000; stroke-width: 0.8; stroke-linejoin: miter; stroke-linecap: square"/>
   </g>
   <g id="legend_1">
    <g id="patch_7">
     <path d="M 326.349688 78.82825 
L 407.72 78.82825 
Q 409.72 78.82825 409.72 76.82825 
L 409.72 48.472 
Q 409.72 46.472 407.72 46.472 
L 326.349688 46.472 
Q 324.349688 46.472 324.349688 48.472 
L 324.349688 76.82825 
Q 324.349688 78.82825 326.349688 78.82825 
z
" style="fill: #ffffff; opacity: 0.8; stroke: #cccccc; stroke-linejoin: miter"/>
    </g>
    <g id="PathCollection_2">
     <g>
      <use xlink:href="#m5c096e1956" x="338.349688" y="55.445437" style="fill: #0000ff; stroke: #0000ff"/>
     </g>
    </g>
    <g id="text_13">
     <!-- Earth -->
     <g transform="translate(356.349688 58.070437) scale(0.1 -0.1)">
      <defs>
       <path id="DejaVuSans-45" d="M 628 4666 
L 3578 4666 
L 3578 4134 
L 1259 4134 
L 1259 2753 
L 3481 2753 
L 3481 2222 
L 1259 2222 
L 1259 531 
L 3634 531 
L 3634 0 
L 628 0 
L 628 4666 
z
" transform="scale(0.015625)"/>
       <path id="DejaVuSans-61" d="M 2194 1759 
Q 1497 1759 1228 1600 
Q 959 1441 959 1056 
Q 959 750 1161 570 
Q 1363 391 1709 391 
Q 2188 391 2477 730 
Q 2766 1069 2766 1631 
L 2766 1759 
L 2194 1759 
z
M 3341 1997 
L 3341 0 
L 2766 0 
L 2766 531 
Q 2569 213 2275 61 
Q 1981 -91 1556 -91 
Q 1019 -91 701 211 
Q 384 513 384 1019 
Q 384 1609 779 1909 
Q 1175 2209 1959 2209 
L 2766 2209 
L 2766 2266 
Q 2766 2663 2505 2880 
Q 2244 3097 1772 3097 
Q 1472 3097 1187 3025 
Q 903 2953 641 2809 
L 641 3341 
Q 956 3463 1253 3523 
Q 1550 3584 1831 3584 
Q 2591 3584 2966 3190 
Q 3341 2797 3341 1997 
z
" transform="scale(0.015625)"/>
       <path id="DejaVuSans-72" d="M 2631 2963 
Q 2534 3019 2420 3045 
Q 2306 3072 2169 3072 
Q 1681 3072 1420 2755 
Q 1159 2438 1159 1844 
L 1159 0 
L 581 0 
L 581 3500 
L 1159 3500 
L 1159 2956 
Q 1341 3275 1631 3429 
Q 1922 3584 2338 3584 
Q 2397 3584 2469 3576 
Q 2541 3569 2628 3553 
L 2631 2963 
z
" transform="scale(0.015625)"/>
       <path id="DejaVuSans-74" d="M 1172 4494 
L 1172 3500 
L 2356 3500 
L 2356 3053 
L 1172 3053 
L 1172 1153 
Q 1172 725 1289 603 
Q 1406 481 1766 481 
L 2356 481 
L 2356 0 
L 1766 0 
Q 1100 0 847 248 
Q 594 497 594 1153 
L 594 3053 
L 172 3053 
L 172 3500 
L 594 3500 
L 594 4494 
L 1172 4494 
z
" transform="scale(0.015625)"/>
       <path id="DejaVuSans-68" d="M 3513 2113 
L 3513 0 
L 2938 0 
L 2938 2094 
Q 2938 2591 2744 2837 
Q 2550 3084 2163 3084 
Q 1697 3084 1428 2787 
Q 1159 2491 1159 1978 
L 1159 0 
L 581 0 
L 581 4863 
L 1159 4863 
L 1159 2956 
Q 1366 3272 1645 3428 
Q 1925 3584 2291 3584 
Q 2894 3584 3203 3211 
Q 3513 2838 3513 2113 
z
" transform="scale(0.015625)"/>
      </defs>
      <use xlink:href="#DejaVuSans-45"/>
      <use xlink:href="#DejaVuSans-61" x="63.183594"/>
      <use xlink:href="#DejaVuSans-72" x="124.462891"/>
      <use xlink:href="#DejaVuSans-74" x="165.576172"/>
      <use xlink:href="#DejaVuSans-68" x="204.785156"/>
     </g>
    </g>
    <g id="line2d_22">
     <path d="M 328.349688 69.248562 
L 338.349688 69.248562 
L 348.349688 69.248562 
" style="fill: none; stroke: #000000; stroke-width: 1.5; stroke-linecap: square"/>
    </g>
    <g id="text_14">
     <!-- Trajectory -->
     <g transform="translate(356.349688 72.748562) scale(0.1 -0.1)">
      <defs>
       <path id="DejaVuSans-54" d="M -19 4666 
L 3928 4666 
L 3928 4134 
L 2272 4134 
L 2272 0 
L 1638 0 
L 1638 4134 
L -19 4134 
L -19 4666 
z
" transform="scale(0.015625)"/>
       <path id="DejaVuSans-6a" d="M 603 3500 
L 1178 3500 
L 1178 -63 
Q 1178 -731 923 -1031 
Q 669 -1331 103 -1331 
L -116 -1331 
L -116 -844 
L 38 -844 
Q 366 -844 484 -692 
Q 603 -541 603 -63 
L 603 3500 
z
M 603 4863 
L 1178 4863 
L 1178 4134 
L 603 4134 
L 603 4863 
z
" transform="scale(0.015625)"/>
       <path id="DejaVuSans-65" d="M 3597 1894 
L 3597 1613 
L 953 1613 
Q 991 1019 1311 708 
Q 1631 397 2203 397 
Q 2534 397 2845 478 
Q 3156 559 3463 722 
L 3463 178 
Q 3153 47 2828 -22 
Q 2503 -91 2169 -91 
Q 1331 -91 842 396 
Q 353 884 353 1716 
Q 353 2575 817 3079 
Q 1281 3584 2069 3584 
Q 2775 3584 3186 3129 
Q 3597 2675 3597 1894 
z
M 3022 2063 
Q 3016 2534 2758 2815 
Q 2500 3097 2075 3097 
Q 1594 3097 1305 2825 
Q 1016 2553 972 2059 
L 3022 2063 
z
" transform="scale(0.015625)"/>
       <path id="DejaVuSans-63" d="M 3122 3366 
L 3122 2828 
Q 2878 2963 2633 3030 
Q 2388 3097 2138 3097 
Q 1578 3097 1268 2742 
Q 959 2388 959 1747 
Q 959 1106 1268 751 
Q 1578 397 2138 397 
Q 2388 397 2633 464 
Q 2878 531 3122 666 
L 3122 134 
Q 2881 22 2623 -34 
Q 2366 -91 2075 -91 
Q 1284 -91 818 406 
Q 353 903 353 1747 
Q 353 2603 823 3093 
Q 1294 3584 2113 3584 
Q 2378 3584 2631 3529 
Q 2884 3475 3122 3366 
z
" transform="scale(0.015625)"/>
       <path id="DejaVuSans-6f" d="M 1959 3097 
Q 1497 3097 1228 2736 
Q 959 2375 959 1747 
Q 959 1119 1226 758 
Q 1494 397 1959 397 
Q 2419 397 2687 759 
Q 2956 1122 2956 1747 
Q 2956 2369 2687 2733 
Q 2419 3097 1959 3097 
z
M 1959 3584 
Q 2709 3584 3137 3096 
Q 3566 2609 3566 1747 
Q 3566 888 3137 398 
Q 2709 -91 1959 -91 
Q 1206 -91 779 398 
Q 353 888 353 1747 
Q 353 2609 779 3096 
Q 1206 3584 1959 3584 
z
" transform="scale(0.015625)"/>
      </defs>
      <use xlink:href="#DejaVuSans-54"/>
      <use xlink:href="#DejaVuSans-72" x="46.333984"/>
      <use xlink:href="#DejaVuSans-61" x="87.447266"/>
      <use xlink:href="#DejaVuSans-6a" x="148.726562"/>
      <use xlink:href="#DejaVuSans-65" x="176.509766"/>
      <use xlink:href="#DejaVuSans-63" x="238.033203"/>
      <use xlink:href="#DejaVuSans-74" x="293.013672"/>
      <use xlink:href="#DejaVuSans-6f" x="332.222656"/>
      <use xlink:href="#DejaVuSans-72" x="393.404297"/>
      <use xlink:href="#DejaVuSans-79" x="434.517578"/>
     </g>
    </g>
   </g>
  </g>
 </g>
 <defs>
  <clipPath id="p0daaf8d673">
   <rect x="57.6" y="41.472" width="357.12" height="266.112"/>
  </clipPath>
 </defs>
</svg>
