<?xml version="1.0" encoding="utf-8" standalone="no"?>
<!DOCTYPE svg PUBLIC "-//W3C//DTD SVG 1.1//EN"
  "http://www.w3.org/Graphics/SVG/1.1/DTD/svg11.dtd">
<svg xmlns:xlink="http://www.w3.org/1999/xlink" width="460.8pt" height="345.6pt" viewBox="0 0 460.8 345.6" xmlns="http://www.w3.org/2000/svg" version="1.1">
 <metadata>
  <rdf:RDF xmlns:dc="http://purl.org/dc/elements/1.1/" xmlns:cc="http://creativecommons.org/ns#" xmlns:rdf="http://www.w3.org/1999/02/22-rdf-syntax-ns#">
   <cc:Work>
    <dc:type rdf:resource="http://purl.org/dc/dcmitype/StillImage"/>
    <dc:date>2026-03-11T14:34:03.335482</dc:date>
    <dc:format>image/svg+xml</dc:format>
    <dc:creator>
     <cc:Agent>
      <dc:title>Matplotlib v3.6.3, https://matplotlib.org/</dc:title>
     </cc:Agent>
    </dc:creator>
   </cc:Work>
  </rdf:RDF>
 </metadata>
 <defs>
  <style type="text/css">*{stroke-linejoin: round; stroke-linecap: butt}</style>
 </defs>
 <g id="figure_1">
  <g id="patch_1">
   <path d="M 0 345.6 
L 460.8 345.6 
L 460.8 0 
L 0 0 
z
" style="fill: #ffffff"/>
  </g>
  <g id="axes_1">
   <g id="patch_2">
    <path d="M 57.6 307.584 
L 414.72 307.584 
L 414.72 41.472 
L 57.6 41.472 
z
" style="fill: #ffffff"/>
   </g>
   <g id="matplotlib.axis_1">
    <g id="xtick_1">
     <g id="line2d_1">
      <path d="M 73.832727 307.584 
L 73.832727 41.472 
" clip-path="url(#p0044e47623)" style="fill: none; stroke: #b0b0b0; stroke-opacity: 0.4; stroke-width: 0.8; stroke-linecap: square"/>
     </g>
     <g id="line2d_2">
      <defs>
       <path id="mb72adffeee" d="M 0 0 
L 0 3.5 
" style="stroke: #000000; stroke-width: 0.8"/>
      </defs>
      <g>
       <use xlink:href="#mb72adffeee" x="73.832727" y="307.584" style="stroke: #000000; stroke-width: 0.8"/>
      </g>
     </g>
     <g id="text_1">
      <!-- 0 -->
      <g transform="translate(70.651477 322.182437) scale(0.1 -0.1)">
       <defs>
        <path id="DejaVuSans-30" d="M 2034 4250 
Q 1547 4250 1301 3770 
Q 1056 3291 1056 2328 
Q 1056 1369 1301 889 
Q 1547 409 2034 409 
Q 2525 409 2770 889 
Q 3016 1369 3016 2328 
Q 3016 3291 2770 3770 
Q 2525 4250 2034 4250 
z
M 2034 4750 
Q 2819 4750 3233 4129 
Q 3647 3509 3647 2328 
Q 3647 1150 3233 529 
Q 2819 -91 2034 -91 
Q 1250 -91 836 529 
Q 422 1150 422 2328 
Q 422 3509 836 4129 
Q 1250 4750 2034 4750 
z
" transform="scale(0.015625)"/>
       </defs>
       <use xlink:href="#DejaVuSans-30"/>
      </g>
     </g>
    </g>
    <g id="xtick_2">
     <g id="line2d_3">
      <path d="M 140.954514 307.584 
L 140.954514 41.472 
" clip-path="url(#p0044e47623)" style="fill: none; stroke: #b0b0b0; stroke-opacity: 0.4; stroke-width: 0.8; stroke-linecap: square"/>
     </g>
     <g id="line2d_4">
      <g>
       <use xlink:href="#mb72adffeee" x="140.954514" y="307.584" style="stroke: #000000; stroke-width: 0.8"/>
      </g>
     </g>
     <g id="text_2">
      <!-- 20 -->
      <g transform="translate(134.592014 322.182437) scale(0.1 -0.1)">
       <defs>
        <path id="DejaVuSans-32" d="M 1228 531 
L 3431 531 
L 3431 0 
L 469 0 
L 469 531 
Q 828 903 1448 1529 
Q 2069 2156 2228 2338 
Q 2531 2678 2651 2914 
Q 2772 3150 2772 3378 
Q 2772 3750 2511 3984 
Q 2250 4219 1831 4219 
Q 1534 4219 1204 4116 
Q 875 4013 500 3803 
L 500 4441 
Q 881 4594 1212 4672 
Q 1544 4750 1819 4750 
Q 2544 4750 2975 4387 
Q 3406 4025 3406 3419 
Q 3406 3131 3298 2873 
Q 3191 2616 2906 2266 
Q 2828 2175 2409 1742 
Q 1991 1309 1228 531 
z
" transform="scale(0.015625)"/>
       </defs>
       <use xlink:href="#DejaVuSans-32"/>
       <use xlink:href="#DejaVuSans-30" x="63.623047"/>
      </g>
     </g>
    </g>
    <g id="xtick_3">
     <g id="line2d_5">
      <path d="M 208.076301 307.584 
L 208.076301 41.472 
" clip-path="url(#p0044e47623)" style="fill: none; stroke: #b0b0b0; stroke-opacity: 0.4; stroke-width: 0.8; stroke-linecap: square"/>
     </g>
     <g id="line2d_6">
      <g>
       <use xlink:href="#mb72adffeee" x="208.076301" y="307.584" style="stroke: #000000; stroke-width: 0.8"/>
      </g>
     </g>
     <g id="text_3">
      <!-- 40 -->
      <g transform="translate(201.713801 322.182437) scale(0.1 -0.1)">
       <defs>
        <path id="DejaVuSans-34" d="M 2419 4116 
L 825 1625 
L 2419 1625 
L 2419 4116 
z
M 2253 4666 
L 3047 4666 
L 3047 1625 
L 3713 1625 
L 3713 1100 
L 3047 1100 
L 3047 0 
L 2419 0 
L 2419 1100 
L 313 1100 
L 313 1709 
L 2253 4666 
z
" transform="scale(0.015625)"/>
       </defs>
       <use xlink:href="#DejaVuSans-34"/>
       <use xlink:href="#DejaVuSans-30" x="63.623047"/>
      </g>
     </g>
    </g>
    <g id="xtick_4">
     <g id="line2d_7">
      <path d="M 275.198088 307.584 
L 275.198088 41.472 
" clip-path="url(#p0044e47623)" style="fill: none; stroke: #b0b0b0; stroke-opacity: 0.4; stroke-width: 0.8; stroke-linecap: square"/>
     </g>
     <g id="line2d_8">
      <g>
       <use xlink:href="#mb72adffeee" x="275.198088" y="307.584" style="stroke: #000000; stroke-width: 0.8"/>
      </g>
     </g>
     <g id="text_4">
      <!-- 60 -->
      <g transform="translate(268.835588 322.182437) scale(0.1 -0.1)">
       <defs>
        <path id="DejaVuSans-36" d="M 2113 2584 
Q 1688 2584 1439 2293 
Q 1191 2003 1191 1497 
Q 1191 994 1439 701 
Q 1688 409 2113 409 
Q 2538 409 2786 701 
Q 3034 994 3034 1497 
Q 3034 2003 2786 2293 
Q 2538 2584 2113 2584 
z
M 3366 4563 
L 3366 3988 
Q 3128 4100 2886 4159 
Q 2644 4219 2406 4219 
Q 1781 4219 1451 3797 
Q 1122 3375 1075 2522 
Q 1259 2794 1537 2939 
Q 1816 3084 2150 3084 
Q 2853 3084 3261 2657 
Q 3669 2231 3669 1497 
Q 3669 778 3244 343 
Q 2819 -91 2113 -91 
Q 1303 -91 875 529 
Q 447 1150 447 2328 
Q 447 3434 972 4092 
Q 1497 4750 2381 4750 
Q 2619 4750 2861 4703 
Q 3103 4656 3366 4563 
z
" transform="scale(0.015625)"/>
       </defs>
       <use xlink:href="#DejaVuSans-36"/>
       <use xlink:href="#DejaVuSans-30" x="63.623047"/>
      </g>
     </g>
    </g>
    <g id="xtick_5">
     <g id="line2d_9">
      <path d="M 342.319875 307.584 
L 342.319875 41.472 
" clip-path="url(#p0044e47623)" style="fill: none; stroke: #b0b0b0; stroke-opacity: 0.4; stroke-width: 0.8; stroke-linecap: square"/>
     </g>
     <g id="line2d_10">
      <g>
       <use xlink:href="#mb72adffeee" x="342.319875" y="307.584" style="stroke: #000000; stroke-width: 0.8"/>
      </g>
     </g>
     <g id="text_5">
      <!-- 80 -->
      <g transform="translate(335.957375 322.182437) scale(0.1 -0.1)">
       <defs>
        <path id="DejaVuSans-38" d="M 2034 2216 
Q 1584 2216 1326 1975 
Q 1069 1734 1069 1313 
Q 1069 891 1326 650 
Q 1584 409 2034 409 
Q 2484 409 2743 651 
Q 3003 894 3003 1313 
Q 3003 1734 2745 1975 
Q 2488 2216 2034 2216 
z
M 1403 2484 
Q 997 2584 770 2862 
Q 544 3141 544 3541 
Q 544 4100 942 4425 
Q 1341 4750 2034 4750 
Q 2731 4750 3128 4425 
Q 3525 4100 3525 3541 
Q 3525 3141 3298 2862 
Q 3072 2584 2669 2484 
Q 3125 2378 3379 2068 
Q 3634 1759 3634 1313 
Q 3634 634 3220 271 
Q 2806 -91 2034 -91 
Q 1263 -91 848 271 
Q 434 634 434 1313 
Q 434 1759 690 2068 
Q 947 2378 1403 2484 
z
M 1172 3481 
Q 1172 3119 1398 2916 
Q 1625 2713 2034 2713 
Q 2441 2713 2670 2916 
Q 2900 3119 2900 3481 
Q 2900 3844 2670 4047 
Q 2441 4250 2034 4250 
Q 1625 4250 1398 4047 
Q 1172 3844 1172 3481 
z
" transform="scale(0.015625)"/>
       </defs>
       <use xlink:href="#DejaVuSans-38"/>
       <use xlink:href="#DejaVuSans-30" x="63.623047"/>
      </g>
     </g>
    </g>
    <g id="xtick_6">
     <g id="line2d_11">
      <path d="M 409.441662 307.584 
L 409.441662 41.472 
" clip-path="url(#p0044e47623)" style="fill: none; stroke: #b0b0b0; stroke-opacity: 0.4; stroke-width: 0.8; stroke-linecap: square"/>
     </g>
     <g id="line2d_12">
      <g>
       <use xlink:href="#mb72adffeee" x="409.441662" y="307.584" style="stroke: #000000; stroke-width: 0.8"/>
      </g>
     </g>
     <g id="text_6">
      <!-- 100 -->
      <g transform="translate(399.897912 322.182437) scale(0.1 -0.1)">
       <defs>
        <path id="DejaVuSans-31" d="M 794 531 
L 1825 531 
L 1825 4091 
L 703 3866 
L 703 4441 
L 1819 4666 
L 2450 4666 
L 2450 531 
L 3481 531 
L 3481 0 
L 794 0 
L 794 531 
z
" transform="scale(0.015625)"/>
       </defs>
       <use xlink:href="#DejaVuSans-31"/>
       <use xlink:href="#DejaVuSans-30" x="63.623047"/>
       <use xlink:href="#DejaVuSans-30" x="127.246094"/>
      </g>
     </g>
    </g>
    <g id="text_7">
     <!-- t -->
     <g transform="translate(234.199844 335.860562) scale(0.1 -0.1)">
      <defs>
       <path id="DejaVuSans-74" d="M 1172 4494 
L 1172 3500 
L 2356 3500 
L 2356 3053 
L 1172 3053 
L 1172 1153 
Q 1172 725 1289 603 
Q 1406 481 1766 481 
L 2356 481 
L 2356 0 
L 1766 0 
Q 1100 0 847 248 
Q 594 497 594 1153 
L 594 3053 
L 172 3053 
L 172 3500 
L 594 3500 
L 594 4494 
L 1172 4494 
z
" transform="scale(0.015625)"/>
      </defs>
      <use xlink:href="#DejaVuSans-74"/>
     </g>
    </g>
   </g>
   <g id="matplotlib.axis_2">
    <g id="ytick_1">
     <g id="line2d_13">
      <path d="M 57.6 298.672034 
L 414.72 298.672034 
" clip-path="url(#p0044e47623)" style="fill: none; stroke: #b0b0b0; stroke-opacity: 0.4; stroke-width: 0.8; stroke-linecap: square"/>
     </g>
     <g id="line2d_14">
      <defs>
       <path id="mf3cdde2281" d="M 0 0 
L -3.5 0 
" style="stroke: #000000; stroke-width: 0.8"/>
      </defs>
      <g>
       <use xlink:href="#mf3cdde2281" x="57.6" y="298.672034" style="stroke: #000000; stroke-width: 0.8"/>
      </g>
     </g>
     <g id="text_8">
      <!-- −4.0 -->
      <g transform="translate(26.317187 302.471253) scale(0.1 -0.1)">
       <defs>
        <path id="DejaVuSans-2212" d="M 678 2272 
L 4684 2272 
L 4684 1741 
L 678 1741 
L 678 2272 
z
" transform="scale(0.015625)"/>
        <path id="DejaVuSans-2e" d="M 684 794 
L 1344 794 
L 1344 0 
L 684 0 
L 684 794 
z
" transform="scale(0.015625)"/>
       </defs>
       <use xlink:href="#DejaVuSans-2212"/>
       <use xlink:href="#DejaVuSans-34" x="83.789062"/>
       <use xlink:href="#DejaVuSans-2e" x="147.412109"/>
       <use xlink:href="#DejaVuSans-30" x="179.199219"/>
      </g>
     </g>
    </g>
    <g id="ytick_2">
     <g id="line2d_15">
      <path d="M 57.6 268.601416 
L 414.72 268.601416 
" clip-path="url(#p0044e47623)" style="fill: none; stroke: #b0b0b0; stroke-opacity: 0.4; stroke-width: 0.8; stroke-linecap: square"/>
     </g>
     <g id="line2d_16">
      <g>
       <use xlink:href="#mf3cdde2281" x="57.6" y="268.601416" style="stroke: #000000; stroke-width: 0.8"/>
      </g>
     </g>
     <g id="text_9">
      <!-- −3.5 -->
      <g transform="translate(26.317187 272.400634) scale(0.1 -0.1)">
       <defs>
        <path id="DejaVuSans-33" d="M 2597 2516 
Q 3050 2419 3304 2112 
Q 3559 1806 3559 1356 
Q 3559 666 3084 287 
Q 2609 -91 1734 -91 
Q 1441 -91 1130 -33 
Q 819 25 488 141 
L 488 750 
Q 750 597 1062 519 
Q 1375 441 1716 441 
Q 2309 441 2620 675 
Q 2931 909 2931 1356 
Q 2931 1769 2642 2001 
Q 2353 2234 1838 2234 
L 1294 2234 
L 1294 2753 
L 1863 2753 
Q 2328 2753 2575 2939 
Q 2822 3125 2822 3475 
Q 2822 3834 2567 4026 
Q 2313 4219 1838 4219 
Q 1578 4219 1281 4162 
Q 984 4106 628 3988 
L 628 4550 
Q 988 4650 1302 4700 
Q 1616 4750 1894 4750 
Q 2613 4750 3031 4423 
Q 3450 4097 3450 3541 
Q 3450 3153 3228 2886 
Q 3006 2619 2597 2516 
z
" transform="scale(0.015625)"/>
        <path id="DejaVuSans-35" d="M 691 4666 
L 3169 4666 
L 3169 4134 
L 1269 4134 
L 1269 2991 
Q 1406 3038 1543 3061 
Q 1681 3084 1819 3084 
Q 2600 3084 3056 2656 
Q 3513 2228 3513 1497 
Q 3513 744 3044 326 
Q 2575 -91 1722 -91 
Q 1428 -91 1123 -41 
Q 819 9 494 109 
L 494 744 
Q 775 591 1075 516 
Q 1375 441 1709 441 
Q 2250 441 2565 725 
Q 2881 1009 2881 1497 
Q 2881 1984 2565 2268 
Q 2250 2553 1709 2553 
Q 1456 2553 1204 2497 
Q 953 2441 691 2322 
L 691 4666 
z
" transform="scale(0.015625)"/>
       </defs>
       <use xlink:href="#DejaVuSans-2212"/>
       <use xlink:href="#DejaVuSans-33" x="83.789062"/>
       <use xlink:href="#DejaVuSans-2e" x="147.412109"/>
       <use xlink:href="#DejaVuSans-35" x="179.199219"/>
      </g>
     </g>
    </g>
    <g id="ytick_3">
     <g id="line2d_17">
      <path d="M 57.6 238.530797 
L 414.72 238.530797 
" clip-path="url(#p0044e47623)" style="fill: none; stroke: #b0b0b0; stroke-opacity: 0.4; stroke-width: 0.8; stroke-linecap: square"/>
     </g>
     <g id="line2d_18">
      <g>
       <use xlink:href="#mf3cdde2281" x="57.6" y="238.530797" style="stroke: #000000; stroke-width: 0.8"/>
      </g>
     </g>
     <g id="text_10">
      <!-- −3.0 -->
      <g transform="translate(26.317187 242.330016) scale(0.1 -0.1)">
       <use xlink:href="#DejaVuSans-2212"/>
       <use xlink:href="#DejaVuSans-33" x="83.789062"/>
       <use xlink:href="#DejaVuSans-2e" x="147.412109"/>
       <use xlink:href="#DejaVuSans-30" x="179.199219"/>
      </g>
     </g>
    </g>
    <g id="ytick_4">
     <g id="line2d_19">
      <path d="M 57.6 208.460179 
L 414.72 208.460179 
" clip-path="url(#p0044e47623)" style="fill: none; stroke: #b0b0b0; stroke-opacity: 0.4; stroke-width: 0.8; stroke-linecap: square"/>
     </g>
     <g id="line2d_20">
      <g>
       <use xlink:href="#mf3cdde2281" x="57.6" y="208.460179" style="stroke: #000000; stroke-width: 0.8"/>
      </g>
     </g>
     <g id="text_11">
      <!-- −2.5 -->
      <g transform="translate(26.317187 212.259398) scale(0.1 -0.1)">
       <use xlink:href="#DejaVuSans-2212"/>
       <use xlink:href="#DejaVuSans-32" x="83.789062"/>
       <use xlink:href="#DejaVuSans-2e" x="147.412109"/>
       <use xlink:href="#DejaVuSans-35" x="179.199219"/>
      </g>
     </g>
    </g>
    <g id="ytick_5">
     <g id="line2d_21">
      <path d="M 57.6 178.389561 
L 414.72 178.389561 
" clip-path="url(#p0044e47623)" style="fill: none; stroke: #b0b0b0; stroke-opacity: 0.4; stroke-width: 0.8; stroke-linecap: square"/>
     </g>
     <g id="line2d_22">
      <g>
       <use xlink:href="#mf3cdde2281" x="57.6" y="178.389561" style="stroke: #000000; stroke-width: 0.8"/>
      </g>
     </g>
     <g id="text_12">
      <!-- −2.0 -->
      <g transform="translate(26.317187 182.18878) scale(0.1 -0.1)">
       <use xlink:href="#DejaVuSans-2212"/>
       <use xlink:href="#DejaVuSans-32" x="83.789062"/>
       <use xlink:href="#DejaVuSans-2e" x="147.412109"/>
       <use xlink:href="#DejaVuSans-30" x="179.199219"/>
      </g>
     </g>
    </g>
    <g id="ytick_6">
     <g id="line2d_23">
      <path d="M 57.6 148.318943 
L 414.72 148.318943 
" clip-path="url(#p0044e47623)" style="fill: none; stroke: #b0b0b0; stroke-opacity: 0.4; stroke-width: 0.8; stroke-linecap: square"/>
     </g>
     <g id="line2d_24">
      <g>
       <use xlink:href="#mf3cdde2281" x="57.6" y="148.318943" style="stroke: #000000; stroke-width: 0.8"/>
      </g>
     </g>
     <g id="text_13">
      <!-- −1.5 -->
      <g transform="translate(26.317187 152.118162) scale(0.1 -0.1)">
       <use xlink:href="#DejaVuSans-2212"/>
       <use xlink:href="#DejaVuSans-31" x="83.789062"/>
       <use xlink:href="#DejaVuSans-2e" x="147.412109"/>
       <use xlink:href="#DejaVuSans-35" x="179.199219"/>
      </g>
     </g>
    </g>
    <g id="ytick_7">
     <g id="line2d_25">
      <path d="M 57.6 118.248325 
L 414.72 118.248325 
" clip-path="url(#p0044e47623)" style="fill: none; stroke: #b0b0b0; stroke-opacity: 0.4; stroke-width: 0.8; stroke-linecap: square"/>
     </g>
     <g id="line2d_26">
      <g>
       <use xlink:href="#mf3cdde2281" x="57.6" y="118.248325" style="stroke: #000000; stroke-width: 0.8"/>
      </g>
     </g>
     <g id="text_14">
      <!-- −1.0 -->
      <g transform="translate(26.317187 122.047543) scale(0.1 -0.1)">
       <use xlink:href="#DejaVuSans-2212"/>
       <use xlink:href="#DejaVuSans-31" x="83.789062"/>
       <use xlink:href="#DejaVuSans-2e" x="147.412109"/>
       <use xlink:href="#DejaVuSans-30" x="179.199219"/>
      </g>
     </g>
    </g>
    <g id="ytick_8">
     <g id="line2d_27">
      <path d="M 57.6 88.177706 
L 414.72 88.177706 
" clip-path="url(#p0044e47623)" style="fill: none; stroke: #b0b0b0; stroke-opacity: 0.4; stroke-width: 0.8; stroke-linecap: square"/>
     </g>
     <g id="line2d_28">
      <g>
       <use xlink:href="#mf3cdde2281" x="57.6" y="88.177706" style="stroke: #000000; stroke-width: 0.8"/>
      </g>
     </g>
     <g id="text_15">
      <!-- −0.5 -->
      <g transform="translate(26.317187 91.976925) scale(0.1 -0.1)">
       <use xlink:href="#DejaVuSans-2212"/>
       <use xlink:href="#DejaVuSans-30" x="83.789062"/>
       <use xlink:href="#DejaVuSans-2e" x="147.412109"/>
       <use xlink:href="#DejaVuSans-35" x="179.199219"/>
      </g>
     </g>
    </g>
    <g id="ytick_9">
     <g id="line2d_29">
      <path d="M 57.6 58.107088 
L 414.72 58.107088 
" clip-path="url(#p0044e47623)" style="fill: none; stroke: #b0b0b0; stroke-opacity: 0.4; stroke-width: 0.8; stroke-linecap: square"/>
     </g>
     <g id="line2d_30">
      <g>
       <use xlink:href="#mf3cdde2281" x="57.6" y="58.107088" style="stroke: #000000; stroke-width: 0.8"/>
      </g>
     </g>
     <g id="text_16">
      <!-- 0.0 -->
      <g transform="translate(34.696875 61.906307) scale(0.1 -0.1)">
       <use xlink:href="#DejaVuSans-30"/>
       <use xlink:href="#DejaVuSans-2e" x="63.623047"/>
       <use xlink:href="#DejaVuSans-30" x="95.410156"/>
      </g>
     </g>
    </g>
    <g id="text_17">
     <!-- H -->
     <g transform="translate(20.2375 178.288156) rotate(-90) scale(0.1 -0.1)">
      <defs>
       <path id="DejaVuSans-48" d="M 628 4666 
L 1259 4666 
L 1259 2753 
L 3553 2753 
L 3553 4666 
L 4184 4666 
L 4184 0 
L 3553 0 
L 3553 2222 
L 1259 2222 
L 1259 0 
L 628 0 
L 628 4666 
z
" transform="scale(0.015625)"/>
      </defs>
      <use xlink:href="#DejaVuSans-48"/>
     </g>
    </g>
    <g id="text_18">
     <!-- 1e−5−3.75e−1 -->
     <g transform="translate(57.6 38.472) scale(0.1 -0.1)">
      <defs>
       <path id="DejaVuSans-65" d="M 3597 1894 
L 3597 1613 
L 953 1613 
Q 991 1019 1311 708 
Q 1631 397 2203 397 
Q 2534 397 2845 478 
Q 3156 559 3463 722 
L 3463 178 
Q 3153 47 2828 -22 
Q 2503 -91 2169 -91 
Q 1331 -91 842 396 
Q 353 884 353 1716 
Q 353 2575 817 3079 
Q 1281 3584 2069 3584 
Q 2775 3584 3186 3129 
Q 3597 2675 3597 1894 
z
M 3022 2063 
Q 3016 2534 2758 2815 
Q 2500 3097 2075 3097 
Q 1594 3097 1305 2825 
Q 1016 2553 972 2059 
L 3022 2063 
z
" transform="scale(0.015625)"/>
       <path id="DejaVuSans-37" d="M 525 4666 
L 3525 4666 
L 3525 4397 
L 1831 0 
L 1172 0 
L 2766 4134 
L 525 4134 
L 525 4666 
z
" transform="scale(0.015625)"/>
      </defs>
      <use xlink:href="#DejaVuSans-31"/>
      <use xlink:href="#DejaVuSans-65" x="63.623047"/>
      <use xlink:href="#DejaVuSans-2212" x="125.146484"/>
      <use xlink:href="#DejaVuSans-35" x="208.935547"/>
      <use xlink:href="#DejaVuSans-2212" x="272.558594"/>
      <use xlink:href="#DejaVuSans-33" x="356.347656"/>
      <use xlink:href="#DejaVuSans-2e" x="419.970703"/>
      <use xlink:href="#DejaVuSans-37" x="451.757812"/>
      <use xlink:href="#DejaVuSans-35" x="515.380859"/>
      <use xlink:href="#DejaVuSans-65" x="579.003906"/>
      <use xlink:href="#DejaVuSans-2212" x="640.527344"/>
      <use xlink:href="#DejaVuSans-31" x="724.316406"/>
     </g>
    </g>
   </g>
   <g id="line2d_31">
    <path d="M 73.832727 58.107088 
L 76.722442 57.997435 
L 78.930313 57.707008 
L 80.553748 57.27732 
L 81.820028 56.715731 
L 82.891495 56.000999 
L 83.962962 55.009973 
L 85.456522 53.605353 
L 85.781209 53.595606 
L 86.040959 53.829078 
L 86.300709 54.406874 
L 86.592927 55.693994 
L 86.917614 58.368189 
L 87.242301 63.11977 
L 87.599457 72.158186 
L 87.956612 87.343407 
L 88.346237 114.111509 
L 88.800799 162.228357 
L 89.937203 293.253388 
L 90.067078 295.488 
L 90.099547 295.347126 
L 90.196953 293.250573 
L 90.391765 281.926803 
L 90.716452 246.586006 
L 91.885325 106.233557 
L 92.339887 79.508078 
L 92.76198 65.847412 
L 93.184073 58.732949 
L 93.573698 55.507334 
L 93.930853 54.139767 
L 94.25554 53.651529 
L 94.547759 53.571203 
L 94.904914 53.733825 
L 95.554289 54.347899 
L 97.242661 56.001064 
L 98.346597 56.733577 
L 99.580407 57.277349 
L 101.073968 57.681194 
L 103.02209 57.962818 
L 105.619586 58.101396 
L 108.606706 58.039156 
L 110.976922 57.782913 
L 112.697763 57.384537 
L 114.02898 56.852524 
L 115.132915 56.174741 
L 116.171914 55.274721 
L 118.02263 53.576447 
L 118.314848 53.629226 
L 118.574598 53.935529 
L 118.834347 54.624833 
L 119.126566 56.105628 
L 119.451253 59.122049 
L 119.77594 64.416291 
L 120.133095 74.389548 
L 120.490251 90.979683 
L 120.879876 119.840067 
L 121.366906 174.816434 
L 122.340967 290.499647 
L 122.535779 295.487998 
L 122.600717 294.92441 
L 122.730592 290.487165 
L 122.957873 273.116395 
L 123.412434 215.309264 
L 124.191683 119.817606 
L 124.678714 85.630432 
L 125.133276 68.286617 
L 125.555369 59.961429 
L 125.944993 56.103964 
L 126.302149 54.406365 
L 126.626836 53.743835 
L 126.919054 53.570413 
L 127.243741 53.651327 
L 127.730772 54.045002 
L 130.230862 56.380088 
L 131.367266 57.006776 
L 132.698483 57.479967 
L 134.354387 57.824095 
L 136.562258 58.045032 
L 139.419504 58.101923 
L 142.211812 57.946595 
L 144.257341 57.625654 
L 145.78337 57.169369 
L 146.984712 56.58515 
L 148.056179 55.814147 
L 149.192583 54.698685 
L 150.296519 53.651147 
L 150.653675 53.57575 
L 150.913424 53.744216 
L 151.173174 54.221954 
L 151.465392 55.334509 
L 151.757611 57.391594 
L 152.082298 61.417646 
L 152.406985 68.295489 
L 152.76414 80.951566 
L 153.153765 103.812193 
L 153.575858 142.93445 
L 154.225232 229.045165 
L 154.744731 286.711735 
L 154.972012 295.349254 
L 155.004481 295.487995 
L 155.03695 295.345698 
L 155.134356 293.244939 
L 155.329168 281.913557 
L 155.653855 246.564545 
L 156.822728 106.220975 
L 157.27729 79.500985 
L 157.699383 65.843592 
L 158.121476 58.731044 
L 158.511101 55.506423 
L 158.868256 54.139372 
L 159.192943 53.651405 
L 159.485162 53.571224 
L 159.842317 53.733942 
L 160.491691 54.348075 
L 162.180064 56.001195 
L 163.284 56.733667 
L 164.51781 57.277406 
L 166.011371 57.681227 
L 167.959493 57.962834 
L 170.556989 58.101399 
L 173.544109 58.039146 
L 175.914325 57.782886 
L 177.635166 57.384486 
L 178.966382 56.852441 
L 180.070318 56.17462 
L 181.109317 55.274557 
L 182.960033 53.576415 
L 183.252251 53.62933 
L 183.512001 53.935827 
L 183.77175 54.625428 
L 184.063969 56.106738 
L 184.388656 59.124066 
L 184.713343 64.419742 
L 185.070498 74.395461 
L 185.427654 90.989267 
L 185.817278 119.855044 
L 186.304309 174.838211 
L 187.27837 290.50796 
L 187.473182 295.487989 
L 187.53812 294.921562 
L 187.667994 290.478835 
L 187.895275 273.100003 
L 188.349837 215.286 
L 189.129086 119.802635 
L 189.616117 85.621985 
L 190.070678 68.282182 
L 190.492771 59.959176 
L 190.882396 56.102855 
L 191.239552 54.405856 
L 191.564239 53.743645 
L 191.856457 53.570394 
L 192.181144 53.651417 
L 192.668174 54.045164 
L 195.168264 56.380198 
L 196.304669 57.00685 
L 197.635886 57.480013 
L 199.29179 57.82412 
L 201.499661 58.045042 
L 204.356907 58.101921 
L 207.149215 57.946578 
L 209.194743 57.625617 
L 210.720772 57.169305 
L 211.922114 56.585051 
L 212.993582 55.814007 
L 214.129986 54.698507 
L 215.233922 53.651057 
L 215.591078 53.575785 
L 215.850827 53.744407 
L 216.110577 54.222386 
L 216.402795 55.335361 
L 216.695014 57.393104 
L 217.019701 61.420301 
L 217.344388 68.299926 
L 217.701543 80.958985 
L 218.091168 103.824324 
L 218.513261 142.952865 
L 219.162635 229.068031 
L 219.682134 286.722596 
L 219.909415 295.350665 
L 219.941884 295.487982 
L 219.974352 295.344262 
L 220.071758 293.239298 
L 220.266571 281.900305 
L 220.591258 246.543082 
L 221.760131 106.208394 
L 222.214693 79.493894 
L 222.636786 65.839773 
L 223.058879 58.729139 
L 223.448503 55.505511 
L 223.805659 54.138977 
L 224.130346 53.651282 
L 224.422564 53.571244 
L 224.77972 53.73406 
L 225.429094 54.348252 
L 227.117467 56.001325 
L 228.221403 56.733757 
L 229.455213 57.277464 
L 230.948773 57.681261 
L 232.896896 57.962849 
L 235.494392 58.101402 
L 238.481512 58.039136 
L 240.851727 57.782858 
L 242.572569 57.384435 
L 243.903785 56.852359 
L 245.007721 56.174499 
L 246.04672 55.274394 
L 247.897436 53.576382 
L 248.189654 53.629434 
L 248.449403 53.936125 
L 248.709153 54.626024 
L 249.001371 56.107848 
L 249.326058 59.126083 
L 249.650745 64.423195 
L 250.007901 74.401375 
L 250.365057 90.998853 
L 250.754681 119.870024 
L 251.241712 174.859989 
L 252.215773 290.516266 
L 252.410585 295.487973 
L 252.475522 294.918707 
L 252.605397 290.470499 
L 252.832678 273.083606 
L 253.28724 215.262736 
L 254.066489 119.787666 
L 254.553519 85.613539 
L 255.008081 68.277749 
L 255.430174 59.956923 
L 255.819799 56.101746 
L 256.176954 54.405348 
L 256.501641 53.743455 
L 256.79386 53.570375 
L 257.118547 53.651507 
L 257.605577 54.045327 
L 260.105667 56.380308 
L 261.242072 57.006923 
L 262.573289 57.480058 
L 264.229192 57.824145 
L 266.437064 58.045051 
L 269.29431 58.101918 
L 272.086618 57.946561 
L 274.132146 57.62558 
L 275.658175 57.169241 
L 276.859517 56.584953 
L 277.930984 55.813867 
L 279.067389 54.69833 
L 280.171325 53.650967 
L 280.52848 53.575819 
L 280.78823 53.744597 
L 281.04798 54.222817 
L 281.340198 55.336214 
L 281.632416 57.394615 
L 281.957103 61.422957 
L 282.28179 68.304365 
L 282.638946 80.966406 
L 283.02857 103.836458 
L 283.450664 142.971283 
L 284.100038 229.090896 
L 284.619537 286.733451 
L 284.846818 295.352067 
L 284.879286 295.487962 
L 284.911755 295.34282 
L 285.009161 293.23365 
L 285.203973 281.887048 
L 285.528661 246.521616 
L 286.697534 106.195816 
L 287.152096 79.486805 
L 287.574189 65.835956 
L 287.996282 58.727236 
L 288.385906 55.5046 
L 288.743062 54.138582 
L 289.067749 53.651159 
L 289.359967 53.571265 
L 289.717123 53.734178 
L 290.366497 54.348428 
L 292.054869 56.001456 
L 293.158805 56.733846 
L 294.392616 57.277522 
L 295.886176 57.681294 
L 297.834298 57.962865 
L 300.431794 58.101404 
L 303.418915 58.039126 
L 305.78913 57.782831 
L 307.509971 57.384384 
L 308.841188 56.852276 
L 309.945124 56.174377 
L 310.984122 55.274231 
L 312.834838 53.57635 
L 313.127057 53.629538 
L 313.386806 53.936424 
L 313.646556 54.626619 
L 313.938774 56.108958 
L 314.263461 59.128102 
L 314.588148 64.426648 
L 314.945304 74.40729 
L 315.30246 91.008441 
L 315.692084 119.885006 
L 316.179115 174.881768 
L 317.153176 290.524566 
L 317.347988 295.487949 
L 317.412925 294.915844 
L 317.5428 290.462156 
L 317.770081 273.067205 
L 318.224643 215.239471 
L 319.003892 119.7727 
L 319.490922 85.605096 
L 319.945484 68.273317 
L 320.367577 59.954671 
L 320.757202 56.100638 
L 321.114357 54.40484 
L 321.439044 53.743265 
L 321.731263 53.570356 
L 322.05595 53.651597 
L 322.54298 54.045489 
L 325.04307 56.380418 
L 326.179475 57.006997 
L 327.510691 57.480104 
L 329.166595 57.824169 
L 331.374467 58.045061 
L 334.231713 58.101915 
L 337.024021 57.946544 
L 339.069549 57.625543 
L 340.595578 57.169177 
L 341.79692 56.584855 
L 342.868387 55.813728 
L 344.004792 54.698152 
L 345.108728 53.650877 
L 345.465883 53.575854 
L 345.725633 53.744788 
L 345.985383 54.223249 
L 346.277601 55.337068 
L 346.569819 57.396126 
L 346.894506 61.425614 
L 347.219193 68.308805 
L 347.576349 80.973829 
L 347.965973 103.848594 
L 348.388066 142.989703 
L 349.03744 229.113759 
L 349.55694 286.744299 
L 349.784221 295.353463 
L 349.816689 295.487935 
L 349.849158 295.34137 
L 349.946564 293.227995 
L 350.141376 281.873784 
L 350.466063 246.500148 
L 351.634937 106.18324 
L 352.089498 79.479717 
L 352.511592 65.832139 
L 352.933685 58.725332 
L 353.323309 55.50369 
L 353.680465 54.138188 
L 354.005152 53.651035 
L 354.29737 53.571286 
L 354.654526 53.734296 
L 355.3039 54.348604 
L 356.992272 56.001586 
L 358.096208 56.733936 
L 359.330019 57.277579 
L 360.823579 57.681328 
L 362.771701 57.962881 
L 365.369197 58.101407 
L 368.356318 58.039116 
L 370.726533 57.782804 
L 372.447374 57.384332 
L 373.778591 56.852193 
L 374.882527 56.174256 
L 375.921525 55.274068 
L 377.772241 53.576318 
L 378.06446 53.629642 
L 378.324209 53.936722 
L 378.583959 54.627215 
L 378.876177 56.110069 
L 379.200864 59.13012 
L 379.525551 64.430103 
L 379.882707 74.413206 
L 380.239863 91.018031 
L 380.629487 119.899991 
L 381.116517 174.903549 
L 382.090579 290.532859 
L 382.285391 295.487919 
L 382.350328 294.912975 
L 382.480203 290.453806 
L 382.707484 273.050798 
L 383.162046 215.216207 
L 383.941294 119.757736 
L 384.428325 85.596654 
L 384.882887 68.268886 
L 385.30498 59.952419 
L 385.694604 56.09953 
L 386.05176 54.404332 
L 386.376447 53.743075 
L 386.668665 53.570337 
L 386.993352 53.651688 
L 387.480383 54.045652 
L 389.980473 56.380528 
L 391.116878 57.007071 
L 392.448094 57.480149 
L 394.103998 57.824194 
L 396.31187 58.045071 
L 398.487273 58.107076 
L 398.487273 58.107076 
" clip-path="url(#p0044e47623)" style="fill: none; stroke: #00ffff; stroke-width: 1.5; stroke-linecap: square"/>
   </g>
   <g id="patch_3">
    <path d="M 57.6 307.584 
L 57.6 41.472 
" style="fill: none; stroke: #000000; stroke-width: 0.8; stroke-linejoin: miter; stroke-linecap: square"/>
   </g>
   <g id="patch_4">
    <path d="M 414.72 307.584 
L 414.72 41.472 
" style="fill: none; stroke: #000000; stroke-width: 0.8; stroke-linejoin: miter; stroke-linecap: square"/>
   </g>
   <g id="patch_5">
    <path d="M 57.6 307.584 
L 414.72 307.584 
" style="fill: none; stroke: #000000; stroke-width: 0.8; stroke-linejoin: miter; stroke-linecap: square"/>
   </g>
   <g id="patch_6">
    <path d="M 57.6 41.472 
L 414.72 41.472 
" style="fill: none; stroke: #000000; stroke-width: 0.8; stroke-linejoin: miter; stroke-linecap: square"/>
   </g>
  </g>
 </g>
 <defs>
  <clipPath id="p0044e47623">
   <rect x="57.6" y="41.472" width="357.12" height="266.112"/>
  </clipPath>
 </defs>
</svg>
